<svg version="1.1" xmlns="http://www.w3.org/2000/svg" xmlns:xlink="http://www.w3.org/1999/xlink" width="107.29164" height="67.86783" viewBox="0,0,107.29164,67.86783"><g transform="translate(-182.54736,-154.5638)"><g fill="none" stroke="#ff0000" stroke-width="9.26042" stroke-miterlimit="10"><path d="M187.17757,218.26314c3.00346,-1.45226 4.91488,-1.89503 8.18244,-1.89503c2.50383,0 4.97361,-0.75354 5.21674,-1.59176c0.60758,-2.09476 1.87557,-3.33034 5.24516,-5.11061c2.39052,-1.26299 2.95503,-1.69267 3.98322,-3.03272c2.55062,-3.32423 7.57954,-8.23055 8.43669,-8.23055c0.1361,0 0.61634,-0.3059 1.06712,-0.68025c1.02134,-0.8482 6.03198,-3.67471 6.51433,-3.67471c0.6863,0 1.74258,-0.97055 5.21312,-4.78877c1.925,-2.11784 3.88289,-4.06315 4.35064,-4.32289c0.46774,-0.25975 1.37823,-1.04656 2.02313,-1.74873c0.74005,-0.80576 1.57265,-1.40766 2.25774,-1.63114c0.59702,-0.19475 1.65572,-0.69959 2.35231,-1.12194c0.69658,-0.42236 1.76153,-0.92526 2.36679,-1.118c1.31326,-0.4182 3.44199,-2.4889 3.67006,-3.57006c0.13487,-0.63932 0.05625,-0.78596 -0.55656,-1.0381c-1.32256,-0.54412 -2.08876,-1.59619 -2.08876,-2.86786c0,-0.9643 0.1359,-1.2752 0.85783,-1.96535c0.47375,-0.4529 1.5091,-1.02099 2.31252,-1.2688c2.26486,-0.6986 5.04263,-2.01413 6.39961,-3.03047c1.18429,-0.88695 1.33209,-0.92587 3.52071,-0.92669c1.68322,-0.00064 3.07535,-0.21262 5.29064,-0.80516c3.78255,-1.01174 4.6972,-1.43053 6.10918,-2.79809c1.99509,-1.93234 2.81128,-2.18227 6.46576,-1.98112c1.74282,0.09588 5.04892,0.15424 7.34684,0.12942c3.93601,-0.04246 4.23265,-0.01004 5.12475,0.57166c1.81957,1.18556 -0.20032,-1.58849 0,0c0.3974,3.15123 -5.60274,6.02879 0.782,5.72865"></path></g></g></svg>