<svg version="1.1" xmlns="http://www.w3.org/2000/svg" xmlns:xlink="http://www.w3.org/1999/xlink" width="34.53846" height="35.89483" viewBox="0,0,34.53846,35.89483"><g transform="translate(-222.22201,-157.98253)"><g fill="none" stroke="#ff0000" stroke-width="9.26042" stroke-miterlimit="10"><path d="M255.5641,162.45551c-1.06481,-0.2848 -1.14007,-0.2633 -3.31349,0.94206c-2.88085,1.59769 -2.99995,2.01074 -0.54932,1.91048c2.02452,-0.0828 2.46344,0.13648 3.42459,1.71307c1.66581,2.73244 -1.29387,9.46987 -4.16202,9.47487c-0.94012,0.002 -2.65897,0.77312 -3.31762,1.4888c-0.34375,0.37351 -1.07471,1.31785 -1.62471,2.0991c-0.55,0.78125 -1.45039,1.72818 -2.00039,2.10426c-0.86703,0.59287 -1.27231,0.69039 -3.04943,0.73329c-2.1501,0.0519 -3.08706,0.36777 -3.95118,1.3317c-0.27468,0.3064 -1.39594,0.99662 -2.49184,1.53376c-1.0959,0.53715 -2.221,1.18608 -2.5001,1.44229c-0.2791,0.25622 -1.06352,0.81496 -1.74357,1.24178c-0.98749,0.61977 -1.50842,0.77618 -2.58744,0.77618c-1.20316,0 -1.44446,-0.09307 -2.20141,-0.85007"></path></g></g></svg>