<svg version="1.1" xmlns="http://www.w3.org/2000/svg" xmlns:xlink="http://www.w3.org/1999/xlink" width="57.26062" height="115.15252" viewBox="0,0,57.26062,115.15252"><g transform="translate(-217.48595,-117.42702)"><g fill="none" stroke="#ff0000" stroke-width="9.26042" stroke-miterlimit="10"><path d="M262.55816,218.78257c1.2426,0.003 3.1055,0.90572 4.9015,2.37453c1.7284,1.41351 2.6567,3.18957 2.6567,5.08341c0,0.99694 -0.1225,1.31332 -0.7344,1.89963c-0.6194,0.59338 -1.04,0.73515 -2.6876,0.90795c-2.6856,0.28168 -2.9278,0.27597 -3.3724,-0.0806c-0.2143,-0.17188 -1.0796,-1.1993 -1.9229,-2.28359c-1.5331,-1.97144 -1.5327,-1.97157 -1.5327,-4.08347c0,-2.08716 0.01,-2.12207 0.8795,-2.96622c0.684,-0.66421 1.0869,-0.85363 1.8123,-0.85163z"></path><path d="M254.66666,175.04468c1.8467,0.85018 2.8744,4.56616 1.681,6.07921c-1.2398,1.57194 -4.6873,2.22813 -6.0549,1.15239c-1.9937,-1.56828 -1.2232,-6.12517 1.2071,-7.14065c0.5033,-0.21027 1.0945,-0.32538 1.6604,-0.34158c0.5659,-0.01625 1.106,0.06628 1.5064,0.25063z"></path><path d="M251.01926,162.50643c1.6616,1.01325 2.3523,4.05323 1.3617,5.99498c-1.3645,2.67467 -5.0163,3.94066 -6.7541,2.34146c-1.7124,-1.57579 -2.7201,-4.70157 -1.9802,-6.14175c0.4148,-0.80726 1.501,-1.91667 2.2696,-2.3182c0.5171,-0.27014 1.5518,-0.38664 2.5776,-0.36174c1.0259,0.0249 2.0426,0.19085 2.5254,0.48525z"></path><path d="M226.73086,155.31046c0.6401,-0.0235 1.2294,0.14175 1.7994,0.49403c2.3428,1.44793 1.9705,4.88129 -0.6754,6.23114c-1.2708,0.64832 -3.8743,0.67744 -4.6468,0.0517v-0.00052c-0.7998,-0.64784 -1.0919,-1.38858 -1.0919,-2.77089c0,-1.53402 0.6462,-2.40159 2.5094,-3.36827c0.7742,-0.40163 1.4652,-0.61367 2.1053,-0.63717z"></path><path d="M236.23576,144.87701c0.8269,0.82695 1.0551,2.23104 0.5384,3.31453c-0.2431,0.50985 -0.4082,1.48942 -0.4082,2.42414c0,0.86635 -0.1395,1.75504 -0.3121,1.98489c-0.4681,0.62347 -2.3184,1.17977 -3.9254,1.17977c-1.1593,0 -1.5205,-0.10513 -1.9373,-0.56275c-1.3506,-1.48287 -1.4033,-2.64931 -0.2,-4.43746c0.4812,-0.71513 0.8749,-1.46317 0.8749,-1.66243c0,-0.60584 0.7019,-1.76332 1.404,-2.31562c0.4934,-0.38811 1.2821,-0.57157 2.049,-0.55707c0.7669,0.0145 1.5116,0.2269 1.9167,0.632z"></path><path d="M234.31876,137.5648c0.5194,-0.02432 1.0352,0.07534 1.4991,0.31522c1.0255,0.53028 1.2981,1.09048 1.2981,2.66651c0,1.20081 -0.0828,1.38228 -1.0919,2.39158c-1.045,1.04502 -1.1567,1.09192 -2.5818,1.09192c-1.2333,0 -1.5823,-0.09981 -2.0324,-0.57877c-0.7279,-0.77462 -0.7566,-2.94345 -0.055,-4.09484c0.6608,-1.08377 1.8208,-1.73812 2.9637,-1.79162z"></path><path d="M240.08766,122.05725c0.7,0.00187 1.209,0.22611 2.6903,0.9772c3.0234,1.53299 3.4208,2.1243 3.5476,5.28185c0.1139,2.83732 -0.1103,3.60527 -1.3741,4.71495c-0.7479,0.65662 -1.0286,0.74522 -2.2815,0.71882c-0.7858,-0.0165 -1.9352,-0.20086 -2.5539,-0.40928c-0.6188,-0.20841 -1.3736,-0.47117 -1.6774,-0.58446c-0.844,-0.31475 -1.5705,-2.02155 -1.8329,-4.30361c-0.3319,-2.88613 -0.2968,-4.33719 0.126,-5.15472c0.4297,-0.83095 0.7188,-0.96465 2.5492,-1.17978c0.3189,-0.0375 0.5734,-0.06163 0.8067,-0.061z"></path></g></g></svg>