<svg version="1.1" xmlns="http://www.w3.org/2000/svg" xmlns:xlink="http://www.w3.org/1999/xlink" width="111.875" height="16.375" viewBox="0,0,111.875,16.375"><g transform="translate(-183.93753,-171.91411)"><g fill="#000033" stroke="#000000" stroke-width="0.5" stroke-miterlimit="10"><path d="M185.0496,187.60808c0,0 -0.86207,-0.64208 -0.86207,-2.17115c0,-2.95684 0,-7.61869 0,-9.52282c0,-1.60655 1.16379,-2.65517 1.16379,-2.65517c0,0 0.72348,-1.09482 3.08621,-1.09482c10.50495,0 86.41781,0 103.65141,0c2.22653,0 2.61152,0.60345 2.61152,0.60345c0,0 0.86207,1.05677 0.86207,2.41075c0,1.70849 0,6.12888 0,9.31034c0,2.02658 -1.03448,2.60218 -1.03448,2.60218c0,0 -0.40619,0.94828 -2.95635,0.94828c-18.41844,0 -94.71204,0 -104.10345,0c-1.86265,0 -2.41865,-0.43103 -2.41865,-0.43103z"></path></g></g></svg>