<svg version="1.1" xmlns="http://www.w3.org/2000/svg" xmlns:xlink="http://www.w3.org/1999/xlink" width="48.8394" height="47.7716" viewBox="0,0,48.8394,47.7716"><g transform="translate(-219.23967,-155.43308)"><g fill="none" stroke="#ff0000" stroke-width="9.26042" stroke-miterlimit="10"><path d="M227.73638,200.85741c0.09354,-0.41522 0.43922,-1.44252 0.76829,-2.28293c0.54743,-1.39806 0.5738,-1.65136 0.31254,-2.98139c-0.22712,-1.15622 -0.50832,-1.69287 -1.37393,-2.6208c-1.04636,-1.12176 -1.08813,-1.22808 -1.0921,-2.77163c-0.00396,-1.40221 -0.14685,-1.88649 -1.13249,-3.82688c-0.94338,-1.85718 -1.16937,-2.5865 -1.37752,-4.44693c-0.22483,-2.0096 -0.19892,-2.35892 0.26651,-3.60685c0.28347,-0.76004 0.5151,-1.67986 0.5151,-2.04399c0,-0.43546 0.39024,-1.0814 1.14017,-1.88668c0.62711,-0.67338 1.57637,-1.84017 2.10898,-2.59324c0.53261,-0.75307 1.29865,-1.62762 1.70283,-1.94343c1.1847,-0.92568 4.31367,-1.80454 7.21237,-2.02561c2.63686,-0.20111 2.63661,-0.2009 3.95914,-1.42825c1.43359,-1.33043 1.52455,-1.36762 3.94277,-1.60557c1.68053,-0.16537 1.92388,-0.30845 5.91721,-3.48305c1.6143,-1.2833 2.11292,-1.40156 5.28446,-1.25202c5.13111,0.24195 6.98126,0.49961 7.55815,1.05199c1.15929,1.11002 0.34604,3.74634 -1.87317,6.07304c-1.20205,1.26028 -1.31818,1.48599 -1.31818,2.55378c0,1.46695 -0.34018,2.43447 -1.19131,3.38953c-0.91686,1.02881 -3.07781,1.99882 -4.46963,2.00615c-2.82674,0.01538 -3.84117,0.68868 -5.96529,3.9577c-1.43011,2.20092 -1.51455,2.27895 -3.05221,2.81974c-0.86988,0.30594 -1.79311,0.72553 -2.05118,0.93198c-0.25807,0.20646 -0.77676,0.3791 -1.15296,0.38329c-0.79825,0.00942 -2.40122,1.02886 -2.40617,1.52934c-0.00594,0.65219 0.51006,1.35582 0.99439,1.35582c0.26703,0 0.91725,-0.41178 1.44453,-0.91523c1.05476,-1.00708 1.77994,-1.13383 3.11359,-0.54492c1.05113,0.46416 1.21963,0.8075 1.74324,3.55278c0.23319,1.22265 0.54699,2.38234 0.69719,2.57702c0.41185,0.5338 0.52789,5.11783 0.17238,6.81149"></path></g></g></svg>