<svg version="1.1" xmlns="http://www.w3.org/2000/svg" xmlns:xlink="http://www.w3.org/1999/xlink" width="97.45431" height="183.01928" viewBox="0,0,97.45431,183.01928"><g transform="translate(-193.94278,-90.76924)"><g fill="none" stroke="#ff0000" stroke-width="9.26042" stroke-miterlimit="10"><path d="M256.52779,171.78037c0.27789,0.27922 1.05219,0.38213 2.43967,0.32487c1.92161,-0.07933 2.0672,-0.03761 2.67974,0.76254c0.52672,0.68803 0.6481,1.16273 0.6481,2.53967c0,1.4643 -0.10427,1.8194 -0.76947,2.62475c-0.7366,0.89164 -0.85612,0.92869 -2.80544,0.86632c-1.74233,-0.05576 -2.1519,0.03471 -2.83852,0.62654c-1.00707,0.86811 -3.23438,1.17227 -4.14779,0.5666c-1.11824,-0.74146 -2.18229,-1.60961 -2.37847,-1.94022c-0.75885,-1.27943 0.34352,-4.24405 2.16127,-5.81095c0.64882,-0.55929 2.17167,-0.91206 3.39275,-0.92691c0.73268,-0.00893 1.35657,0.10398 1.61817,0.36677z"></path><path d="M246.97776,113.84811c0.72073,0.02693 1.3646,0.38281 2.56692,1.30142c1.8942,1.44677 2.62626,1.71846 4.62855,1.71846c2.48233,0 2.97658,0.4765 2.96628,2.88452c-0.0103,3.01501 -0.58998,5.13541 -1.83217,6.6676c-2.49748,3.08076 -5.07902,3.61795 -9.79382,2.03883c-2.73003,-0.91436 -3.40573,-1.46077 -4.11369,-3.32736c-0.62357,-1.64377 -0.60668,-3.65882 0.04842,-5.7684c1.04684,-3.37208 2.45894,-4.98661 4.75951,-5.44096c0.28077,-0.05538 0.52971,-0.08282 0.76998,-0.07409z"></path><path d="M232.27307,96.93098c1.07178,0.08458 2.2912,0.34605 3.33691,0.75933c1.08506,0.42878 2.34993,0.77931 2.81132,0.77931c0.66591,0 1.10093,0.32219 2.10903,1.56118c1.23313,1.51557 1.27249,1.62157 1.36625,3.66383c0.07315,1.60598 -0.03091,2.49326 -0.44243,3.75213c-0.31621,0.96727 -0.53887,2.35683 -0.53887,3.36216c0,2.43417 -0.51456,3.69196 -1.96736,4.80733c-1.41323,1.08503 -2.80895,1.19289 -4.14728,0.31971v0c-0.45881,-0.2993 -0.99831,-0.70913 -1.19912,-0.9108c-0.46077,-0.46295 -0.92907,-3.66076 -0.92907,-6.34402c0,-1.75899 -0.09644,-2.19468 -0.66983,-3.01989c-0.36866,-0.53036 -0.89723,-1.68748 -1.1746,-2.57125c-0.27737,-0.88377 -0.72928,-1.95293 -1.00418,-2.37594c-0.67571,-1.03995 -0.67653,-3.04339 0,-3.48077c0.45501,-0.29482 1.37912,-0.38689 2.4508,-0.30231z"></path><path d="M287.40615,95.39858l-0.0003,-0.00051c-0.71733,-0.01748 -0.93113,0.12633 -1.24744,0.57368c-0.26099,0.36895 -0.61471,1.59276 -0.78647,2.71951c-0.17176,1.12676 -0.44779,2.24597 -0.61337,2.48746c-0.19649,0.28669 -0.8282,0.43897 -1.81991,0.43897c-0.93834,0 -2.19238,0.28514 -3.28147,0.74579c-2.00425,0.84769 -3.50619,0.72778 -4.48802,-0.35839c-1.51864,-1.67992 -3.85785,-2.17077 -4.81608,-1.01072c-0.61306,0.74216 -0.67643,2.58218 -0.1288,3.74183c0.5569,1.17955 0.49889,4.54348 -0.09582,5.56472c-0.26521,0.45526 -0.78863,1.56447 -1.16338,2.4649c-0.37474,0.90043 -0.79502,1.63725 -0.93391,1.63725c-0.4209,0 -2.32138,2.23034 -2.74424,3.22035c-0.46047,1.07804 -0.33868,2.4851 0.43028,4.97299c0.40729,1.3179 1.04344,2.28482 3.15257,4.78993c2.29089,2.72095 2.82203,3.55848 3.99283,6.2931c0.74278,1.73493 1.51174,3.68571 1.70863,4.33484c1.53894,5.0732 2.01568,7.01043 2.23102,9.06611c0.33064,3.15791 1.17841,6.71932 1.90935,8.02316c0.90218,1.60946 1.03438,3.87831 0.39937,6.85518c-0.29272,1.37209 -0.58689,3.82772 -0.65386,5.45707c-0.18897,4.61435 -0.30416,5.13386 -1.50472,6.77847c-0.59637,0.81688 -1.61869,2.39689 -2.27193,3.51171c-0.65324,1.11482 -1.67175,2.58847 -2.26348,3.27451c-1.41787,1.64395 -1.79663,2.58709 -1.97591,4.92013c-0.10911,1.41997 -0.0103,2.6096 0.37958,4.43539c0.77854,3.67475 0.83717,4.61304 0.54691,8.73093c-0.31436,4.45732 -1.09959,7.5215 -3.37575,13.17276c-1.62291,4.02928 -2.81287,5.88631 -3.53288,5.51251c-1.51606,-0.78708 -2.30841,-0.8576 -3.4928,-0.31004c-0.66035,0.30529 -1.74531,0.99817 -2.41092,1.53992c-0.66561,0.54175 -1.74943,1.36746 -2.40835,1.83449c-1.41704,1.00434 -3.07653,3.19744 -3.81283,5.03874c-0.77668,1.94219 -0.66675,3.5195 0.50745,7.29155c0.56896,1.82783 1.1641,4.17748 1.32308,5.2218c0.28901,1.89877 0.28912,1.89917 -0.64799,3.38537c-0.73784,1.17012 -0.93711,1.76748 -0.93711,2.80975c0,1.65205 1.01645,3.42833 2.61699,4.57335c0.61491,0.43983 1.26157,1.14153 1.43652,1.55925c0.38576,0.92136 0.42265,3.68238 0.06491,4.8228c-0.37474,1.19302 -2.01681,3.53322 -3.21656,4.58365c-0.5667,0.49615 -2.01558,2.05897 -3.21975,3.47239c-2.03454,2.38798 -3.02831,3.24553 -5.85797,5.05614c-1.31565,0.84187 -1.70647,0.74497 -3.25335,-0.80251c-1.35801,-1.3586 -2.71004,-1.77124 -4.18498,-1.27822c-1.48948,0.49786 -2.1591,-0.15426 -2.1591,-2.10135c0,-0.82082 -0.15785,-1.75295 -0.35032,-2.0717c-0.46892,-0.77628 -1.89276,-0.69481 -3.31506,0.18951c-0.68776,0.42755 -1.48999,0.66108 -2.13994,0.62267c-1.16708,-0.0691 -3.91822,0.634 -5.3868,1.37684c-0.87909,0.44508 -1.07888,0.44568 -2.14684,0.00499c-0.64768,-0.26718 -1.47114,-0.48602 -1.82949,-0.48602c-0.39803,0 -1.01377,-0.4281 -1.5819,-1.09966c-0.69549,-0.82214 -1.41282,-1.25861 -2.84429,-1.73072c-1.64424,-0.54227 -2.07771,-0.8409 -3.07334,-2.11747c-1.6938,-2.17175 -4.1788,-4.35346 -5.72866,-5.02971c-0.74536,-0.3252 -2.14241,-0.9498 -3.10518,-1.38779c-2.65099,-1.20609 -3.38079,-1.10147 -4.73138,0.67939"></path></g></g></svg>