<svg version="1.1" xmlns="http://www.w3.org/2000/svg" xmlns:xlink="http://www.w3.org/1999/xlink" width="184.32179" height="132.44329" viewBox="0,0,184.32179,132.44329"><g transform="translate(-153.1858,-119.59382)"><g fill="none" stroke="#ff0000" stroke-width="9.26042" stroke-miterlimit="10"><path d="M333.15512,218.02213c-0.86605,-2.38644 -1.24546,-2.87625 -2.22761,-2.87625c-0.96783,0 -2.32132,1.54103 -5.26708,5.99635c-1.4926,2.25739 -3.44667,4.89913 -4.34216,5.87104c-0.89557,0.97192 -2.02953,2.29515 -2.51974,2.94029c-3.94747,5.19464 -11.15396,12.57304 -13.45867,13.77991c-0.70462,0.36894 -2.34085,1.21082 -3.63624,1.87097c-1.2953,0.66014 -2.59929,1.44376 -2.8981,1.74088c-0.49464,0.49189 -0.86657,0.50018 -4.15815,0.09608c-1.98802,-0.24415 -4.5115,-0.40986 -5.6081,-0.36848c-2.53616,0.09568 -6.70368,-0.48672 -7.84119,-1.09587c-1.43563,-0.76877 -3.15202,-2.73971 -3.55504,-4.08249c-0.20121,-0.67049 -0.37098,-2.09616 -0.38053,-3.18956c-0.02432,-2.81853 -0.45808,-3.73398 -2.31376,-4.88345c-2.78538,-1.72541 -6.19558,-2.21683 -11.8907,-1.71228c-3.00856,0.26653 -3.00856,0.26679 -4.00835,1.58014c-0.99978,1.31334 -0.99961,1.31311 -2.63594,1.09998c-5.93835,-0.77352 -6.1361,-0.83869 -6.70802,-2.22856c-0.23334,-0.56711 -0.16387,-0.61026 0.98502,-0.61026c1.40299,0 2.24108,-0.83253 2.24108,-2.22513c0,-1.66446 -1.81773,-3.36954 -3.59682,-3.37481c-0.36638,-0.00101 -1.14785,-0.20982 -1.73671,-0.46383c-0.58886,-0.254 -1.42078,-0.55241 -1.84838,-0.66339c-0.4276,-0.11084 -1.57397,-0.78651 -2.54762,-1.50113c-0.97356,-0.71461 -2.28467,-1.52609 -2.91329,-1.80353c-0.62863,-0.27746 -1.92445,-0.93731 -2.87969,-1.46639c-0.95523,-0.52909 -2.19652,-1.20802 -2.75846,-1.50862c-0.56194,-0.30059 -1.68999,-1.39596 -2.5068,-2.43424c-0.81681,-1.03828 -2.31097,-2.60663 -3.32031,-3.48516c-1.00934,-0.87852 -2.37246,-2.14936 -3.02914,-2.82382c-0.65677,-0.67448 -1.9538,-1.87654 -2.88238,-2.67125c-0.92858,-0.79471 -2.32288,-2.07473 -3.09861,-2.84493c-0.77574,-0.77021 -1.50476,-1.40034 -1.61956,-1.40034c-0.11471,0 -0.71235,-0.47094 -1.3283,-1.04616c-0.61595,-0.57521 -1.76554,-1.31666 -2.55439,-1.64756c-0.78885,-0.33091 -1.67826,-0.89676 -1.97673,-1.25731c-0.29855,-0.36055 -1.2267,-1.27009 -2.06253,-2.02149c-0.83583,-0.75141 -2.00018,-1.79982 -2.58704,-2.33002c-2.15858,-1.94996 -3.93054,-4.13302 -5.9658,-7.349c-1.14689,-1.81225 -2.48891,-3.88816 -2.98242,-4.61306c-0.98416,-1.44543 -2.33564,-3.94819 -3.64701,-6.75441c-1.33342,-2.85345 -4.00444,-7.154 -5.11451,-8.23512c-0.55708,-0.54258 -1.14897,-1.37278 -1.31527,-1.84441c-0.33599,-0.95284 -3.58718,-5.74614 -5.3205,-7.84416c-0.61439,-0.74355 -1.93783,-2.43947 -2.94065,-3.7685c-1.00291,-1.32903 -3.13908,-4.14638 -4.747,-6.26062c-1.60792,-2.11424 -3.88174,-5.29854 -5.05294,-7.07657c-1.80105,-2.73428 -2.30394,-3.31136 -3.26343,-3.74262c-1.82615,-0.82077 -2.22492,-1.2715 -2.88863,-3.26245c-0.96644,-2.89927 -2.73658,-5.11742 -6.08868,-7.6303c-2.36968,-1.77648 -3.08802,-2.16541 -4.26591,-2.30891c-0.31479,-0.03836 -0.56359,-0.06331 -0.76515,-0.06947"></path></g></g></svg>