<svg version="1.1" xmlns="http://www.w3.org/2000/svg" xmlns:xlink="http://www.w3.org/1999/xlink" width="40.18387" height="57.45393" viewBox="0,0,40.18387,57.45393"><g transform="translate(-215.56536,-124.71049)"><g fill="none" stroke="#ff0000" stroke-width="9.26042" stroke-miterlimit="10"><path d="M241.16156,131.59407c1.30004,-0.47264 2.60011,-0.9453 3.90019,-1.41795c0.86025,1.0372 1.72045,2.07436 2.0989,3.14345c0.37845,1.06909 0.27504,2.17 -0.16436,3.36053c-0.43943,1.19054 -1.21484,2.47066 -1.87399,3.3924c-0.65913,0.92171 -1.20193,1.48496 -1.58965,2.63709c-0.38772,1.15213 -0.62036,2.89312 -0.33601,3.90443c0.28431,1.01133 1.08559,1.29297 1.82225,1.51059c0.73667,0.21764 1.40873,0.37126 1.97741,1.13935c0.56865,0.76809 1.03392,2.15062 1.56378,3.27715c0.52988,1.12654 1.12438,1.99703 1.22777,2.70112c0.10341,0.7041 -0.28431,1.24172 -0.86589,1.7282c-0.58158,0.48647 -1.35702,0.92171 -1.53798,1.24176c-0.18092,0.32002 0.23264,0.52485 0.69789,0.79368c0.46526,0.26883 0.98224,0.60165 1.47334,0.85771c0.49113,0.25602 0.95637,0.43523 1.25364,0.70406c0.29715,0.26883 0.42649,0.62728 0.31017,1.16494c-0.11632,0.53766 -0.47817,1.25453 -1.16316,1.7282c-0.68496,0.47367 -1.69304,0.7041 -2.97251,1.19054c-1.27948,0.48647 -2.83033,1.22894 -4.5005,1.88778c-1.67018,0.65887 -3.45959,1.23407 -5.43267,2.12818c-1.9731,0.89408 -4.12978,2.10705 -6.21343,3.30192c-2.08363,1.1949 -4.09408,2.37161 -5.72081,3.24965c-1.62669,0.87804 -2.86953,1.45737 -3.65638,2.31536c-0.78683,0.85799 -1.11765,1.9946 -1.44846,3.13122"></path></g></g></svg>