<svg version="1.1" xmlns="http://www.w3.org/2000/svg" xmlns:xlink="http://www.w3.org/1999/xlink" width="74.75217" height="85.25781" viewBox="0,0,74.75217,85.25781"><g transform="translate(-202.02169,-131.70708)"><g fill="none" stroke="#ff0000" stroke-width="9.26042" stroke-miterlimit="10"><g><path d="M224.79808,160.24644c1.56954,1.09936 2.01989,3.44422 1.00769,5.24981c-0.73187,1.30554 -2.09273,1.99209 -4.00957,2.02209c-1.34153,0.021 -1.48888,0.08113 -1.9172,0.78549c-0.25519,0.41963 -0.58508,0.83806 -0.73328,0.92966c-0.14819,0.0916 -0.50408,0.71155 -0.79065,1.37769c-0.63253,1.47036 -1.32254,2.14887 -2.48047,2.43861c-0.89165,0.22311 -1.46398,1.04691 -2.27273,3.2737c-0.65485,1.80308 -5.27833,3.05964 -6.94997,1.88878c-0.5538,-0.38792 -0.5792,-0.52687 -0.4842,-2.69803c0.12133,-2.77405 0.58737,-3.73576 2.24947,-4.64261c0.63004,-0.34375 1.59066,-1.18784 2.13475,-1.87534c1.24055,-1.56751 1.52294,-1.79737 2.7094,-2.20813c1.01114,-0.35007 1.24556,-0.62253 1.47381,-1.71256c0.0773,-0.36923 0.36488,-0.74221 0.63976,-0.82941c0.41961,-0.13318 0.49971,-0.37853 0.49971,-1.53582c0,-1.19322 0.0989,-1.47662 0.74052,-2.11822c0.69135,-0.69134 0.82849,-0.72941 2.06241,-0.57671c0.72703,0.09 1.5788,0.32419 1.8929,0.5209c0.51197,0.32064 0.63829,0.30497 1.22112,-0.15348c0.38606,-0.30368 0.94612,-0.47224 1.50533,-0.49764c0.55922,-0.0254 1.11756,0.09251 1.5012,0.36122z"></path><path d="M265.72497,214.52266v-0.00052c-0.75774,-0.75778 -0.84884,-0.99507 -0.84284,-2.18746c0.004,-0.73563 0.22261,-2.12465 0.48524,-3.08715c0.49848,-1.8269 0.60367,-1.9582 3.11557,-3.87522c0.75018,-0.57252 1.54936,-1.56615 2.312,-2.87476c1.12295,-1.9269 1.16705,-2.078 1.20355,-4.12533c0.0209,-1.16875 0.18985,-2.58801 0.37517,-3.15381c0.32114,-0.98049 0.29882,-1.1096 -0.47336,-2.75539c-0.52382,-1.11643 -1.05757,-1.86838 -1.50998,-2.12803c-1.13387,-0.65075 -2.5151,-4.23707 -2.5151,-6.52984c0,-1.14808 0.00005,-1.14773 -0.8108,-0.91519c-0.13372,0.03835 -2.96764,-0.37966 -2.29532,-2.11486c0.09343,-0.24114 -2.59668,1.4169 -2.59968,-0.79203c-0.00255,-1.76428 2.48727,-5.39796 3.19611,-5.85283c1.59004,-1.02036 5.26309,2.48154 5.95496,1.48661c0.50214,-0.72211 -1.63388,-1.7136 -1.76296,-2.12427c-0.37236,-1.18468 -5.20386,1.1174 -5.43256,1.1174v0c-1.73269,0 -1.54376,7.97052 -1.75329,6.35917c-0.1589,-1.22199 -0.15891,-1.22181 -0.4811,-0.47181c-0.48882,1.13784 -0.61121,2.74402 -0.27957,3.67006c0.16348,0.45648 0.36426,1.89635 0.44596,3.19981c0.14846,2.36992 0.1483,2.37001 1.34411,3.6344c1.28141,1.35491 1.72392,2.22267 1.72392,3.38067c0,0.55037 0.1773,0.81896 0.72813,1.10381c0.89988,0.46534 1.77198,1.54225 1.77198,2.18798c0,0.26628 0.16892,0.65262 0.37517,0.85887c0.20625,0.20625 0.37466,0.81024 0.37466,1.34203c0,0.83783 -0.225,1.22255 -1.68724,2.88251c-1.04779,1.18946 -2.14092,2.14629 -2.88355,2.52388c-0.65782,0.33446 -1.41745,0.82937 -1.68775,1.09968c-0.84495,0.84495 -1.74754,0.63094 -3.09076,-0.73278c-0.66324,-0.67337 -1.5032,-1.28402 -1.86604,-1.35702c-0.79637,-0.16024 -2.965,-1.80647 -3.15071,-2.39159c-0.2832,-0.89228 -1.40101,-1.2054 -4.90255,-1.37304c-2.5588,-0.12251 -3.88111,-0.06929 -5.37486,0.21653c-1.08965,0.20851 -2.29531,0.37927 -2.67891,0.3793c-0.87341,0.00005 -2.58194,-0.85418 -2.90111,-1.45056c-0.23203,-0.43354 -0.04001,-2.86292 0.34261,-4.33513c0.1543,-0.59366 0.03264,-0.75266 -1.19941,-1.57045c-0.75408,-0.50054 -1.83184,-1.41041 -2.3952,-2.02158c-0.87308,-0.94719 -1.02423,-1.27232 -1.02423,-2.20297c0,-1.17584 0.28382,-1.56007 1.67484,-2.26446c0.99133,-0.502 2.32843,-0.51213 3.91604,-0.0305c0.6687,0.20289 1.35932,0.28573 1.53479,0.18449c0.17548,-0.10124 0.86409,-0.79288 1.53065,-1.53686c1.04217,-1.16321 1.28571,-1.64531 1.73685,-3.44268c0.69291,-2.7606 0.47547,-4.44525 -0.92915,-7.20422c-1.24335,-2.44222 -1.44309,-2.67438 -3.24889,-3.77134c-0.78941,-0.47955 -1.77962,-1.33988 -2.20039,-1.91203c-0.68721,-0.93447 -0.76481,-1.22437 -0.76481,-2.85099c0,-1.78517 0.0171,-1.83371 1.23094,-3.41736c1.16951,-1.52587 1.22012,-1.65525 1.00614,-2.57762c-0.1239,-0.53407 -0.228,-1.55228 -0.231,-2.26291c-0.008,-1.72763 -0.15192,-2.01943 -1.27847,-2.59416c-1.55359,-0.79258 -1.88732,-1.90045 -0.93638,-3.10937c0.50236,-0.63865 0.51037,-0.70564 0.11007,-0.92966c-0.23724,-0.13276 -0.80518,-0.56944 -1.26194,-0.97048c-0.52653,-0.46228 -1.10739,-0.72916 -1.5875,-0.72916c-5.90711,0 -2.08453,-2.03482 -2.51758,-3.93318c-0.5437,-2.38341 2.49506,-3.45677 4.70835,-4.98214c0.77529,-0.53433 6.72838,-4.12819 7.62798,-3.83672c1.73021,0.56057 -1.21421,5.40757 -1.86541,7.26722c-0.23912,0.68284 1.53053,-0.17014 1.53053,-0.17014v0c0,0 1.08042,-0.27677 2.29059,-1.63918"></path></g><path d="M227.63076,136.33729c1.00321,-0.07718 3.6827,1.18869 4.27803,1.56352c0.59534,0.37484 0.77104,1.30726 0.88678,2.22674c0.11574,0.91948 0.3714,2.54639 -0.24596,3.61575c-0.61736,1.06936 -2.47153,1.94495 -3.55742,2.14997c-1.08589,0.20501 -2.17728,-0.72102 -2.60723,-1.51478c-0.42997,-0.79375 -1.15753,-1.81899 -1.19063,-2.86631c-0.0331,-1.04731 -0.42999,-2.97654 0.022,-3.62699c0.45198,-0.65045 1.41118,-1.4707 2.41439,-1.5479z"></path></g></g></svg>