<svg version="1.1" xmlns="http://www.w3.org/2000/svg" xmlns:xlink="http://www.w3.org/1999/xlink" width="24.30868" height="21.58763" viewBox="0,0,24.30868,21.58763"><g transform="translate(-228.17196,-163.19993)"><g fill="none" stroke="#ff0000" stroke-width="9.26042" stroke-miterlimit="10"><path d="M234.03895,168.65999c0.35078,-0.14152 1.05235,-0.42455 1.75395,-0.52915c0.70159,-0.10459 1.40315,-0.03078 2.22167,0.02463c0.81852,0.05537 1.75395,0.09228 2.51011,-0.02463c0.75616,-0.11691 1.33299,-0.38763 2.0112,-0.63989c0.6782,-0.25227 1.45772,-0.48609 2.26844,-0.44915c0.81072,0.03691 1.65262,0.34456 2.20009,0.78835c0.54747,0.44379 0.80047,1.02373 0.85337,1.96128c0.05288,0.93755 -0.09437,2.23269 -0.11957,3.25943c-0.02517,1.02674 0.07172,1.78506 0.11242,2.34266c0.04066,0.5576 0.02506,0.91445 -0.30235,1.29594c-0.3274,0.38147 -0.96661,0.78756 -1.76954,1.24287c-0.80292,0.45532 -1.76953,0.95984 -2.95803,1.383c-1.18851,0.42316 -2.59887,0.76494 -3.75168,0.85657c-1.1528,0.09162 -2.04796,-0.06689 -2.95141,-0.33862c-0.90345,-0.27173 -1.81509,-0.65661 -2.40847,-1.14818c-0.59339,-0.49158 -0.86843,-1.08978 -0.95143,-1.68423c-0.08297,-0.59445 0.02616,-1.18511 0.32238,-1.62812c0.29623,-0.44302 0.77952,-0.73834 1.12252,-1.00906c0.34304,-0.27073 0.54568,-0.51685 0.43524,-1.44478c-0.11044,-0.92794 -0.52841,-2.51642 -0.73904,-3.31691c-0.21063,-0.8005 -0.21066,-0.8005 0.14013,-0.94201z"></path></g></g></svg>