<svg version="1.1" xmlns="http://www.w3.org/2000/svg" xmlns:xlink="http://www.w3.org/1999/xlink" width="29.37501" height="29.37499" viewBox="0,0,29.37501,29.37499"><g transform="translate(-225.31252,-165.31255)"><g stroke-miterlimit="10"><path d="M226.37775,193.3506c0,0 -0.81522,-0.37122 -0.81522,-2.60556c0,-6.34888 0,-18.96463 0,-22.2c0,-1.4845 1.13406,-2.26147 1.13406,-2.26147c0,0 0.70823,-0.72101 2.44006,-0.72101c3.20749,0 14.20942,0 20.6,0c2.78987,0 3.45089,0.58333 3.45089,0.58333c0,0 1.25,0.57369 1.25,2.39915c0,5.81493 0,18.41259 0,22c0,1.86058 -0.97826,2.9686 -0.97826,2.9686c0,0 -0.61752,0.92391 -3.02262,0.92391c-6.28417,0 -18.09361,0 -21.4,0c-1.69078,0 -2.6589,-1.08696 -2.6589,-1.08696z" fill="#000033" stroke="#000000" stroke-width="0.5"></path><path d="M232.86452,186.99314c0,0 -0.42702,-0.19445 -0.42702,-1.36482c0,-3.3256 0,-9.93385 0,-11.62857c0,-0.77759 0.59403,-1.18458 0.59403,-1.18458c0,0 0.37098,-0.37767 1.27813,-0.37767c1.68011,0 7.44303,0 10.79047,0c1.46136,0 1.80761,0.30555 1.80761,0.30555c0,0 0.65476,0.3005 0.65476,1.2567c0,3.04591 0,9.64469 0,11.52381c0,0.97459 -0.51242,1.55498 -0.51242,1.55498c0,0 -0.32346,0.48395 -1.58328,0.48395c-3.29171,0 -9.4776,0 -11.20952,0c-0.88565,0 -1.39276,-0.56936 -1.39276,-0.56936z" fill="none" stroke="#ffffff" stroke-width="2.5"></path><path d="M234.27083,180c0,-3.16413 2.56504,-5.72917 5.72917,-5.72917c3.16413,0 5.72917,2.56504 5.72917,5.72917c0,3.16413 -2.56504,5.72917 -5.72917,5.72917c-3.16413,0 -5.72917,-2.56504 -5.72917,-5.72917z" fill="none" stroke="#ffffff" stroke-width="2.5"></path></g></g></svg>