<svg version="1.1" xmlns="http://www.w3.org/2000/svg" xmlns:xlink="http://www.w3.org/1999/xlink" width="25.72873" height="95.26625" viewBox="0,0,25.72873,95.26625"><g transform="translate(-235.50433,-125.95322)"><g fill="none" stroke="#ff0000" stroke-width="9.26042" stroke-miterlimit="10"><path d="M245.27039,217.21407c1.38677,-0.80422 1.74153,-1.56608 1.76784,-3.79689c0.01915,-1.62734 -0.04911,-1.87236 -0.97285,-3.5014c-0.66154,-1.1667 -1.21671,-2.64124 -1.66242,-4.41514c-0.36807,-1.46484 -1.09867,-4.0992 -1.62361,-5.85425c-0.91907,-3.07304 -2.16645,-9.14592 -2.64481,-12.87492c-0.42711,-3.32957 -0.22172,-12.06976 0.32851,-13.97484c0.17678,-0.61156 0.82955,-1.82034 1.53741,-2.84673c0.6767,-0.98114 1.50869,-2.39944 1.84902,-3.15192c0.85682,-1.89454 1.33673,-4.62664 1.13085,-6.43465c-0.21631,-1.89749 -0.04776,-2.57346 1.06656,-4.28199c0.53315,-0.81745 1.23591,-2.19251 1.56166,-3.05547c0.32582,-0.86293 0.96433,-2.18073 1.41906,-2.92817c0.45474,-0.74743 1.07979,-1.99615 1.38904,-2.77566c0.30925,-0.77951 0.94266,-2.28093 1.40739,-3.33594c0.46465,-1.05503 0.9423,-2.20184 1.06145,-2.54891c0.11915,-0.34707 0.91629,-1.84205 1.77142,-3.32215c1.52888,-2.64682 1.56148,-2.72792 1.94595,-4.90032c0.36591,-2.06756 0.42356,-2.22614 0.89963,-2.48746c0.27985,-0.15352 0.67363,-0.25033 0.87506,-0.21468"></path></g></g></svg>