<svg version="1.1" xmlns="http://www.w3.org/2000/svg" xmlns:xlink="http://www.w3.org/1999/xlink" width="100.17592" height="54.39401" viewBox="0,0,100.17592,54.39401"><g transform="translate(-190.70866,-132.4104)"><g fill="none" stroke="#ff0000" stroke-width="9.26042" stroke-miterlimit="10"><path d="M286.27336,133.65558c-0.08404,0.92501 -1.28466,3.76813 -1.78255,4.22124c-0.10424,0.09493 -0.33043,0.9546 -0.50253,1.91088c-0.30506,1.69505 -1.25592,4.7516 -1.73878,5.589c-0.1324,0.2296 -0.32319,1.10476 -0.42373,1.94498c-0.19013,1.58876 -0.42294,2.00573 -1.53137,2.7434c-1.01648,0.67648 -1.9138,0.68149 -3.273,0.01785c-1.38755,-0.67748 -2.05721,-1.38817 -3.24591,-3.44393c-0.44556,-0.77054 -1.65223,-2.30641 -2.68156,-3.41348c-2.17314,-2.33724 -6.59907,-6.0664 -7.71217,-6.49779c-2.15986,-0.83704 -7.12504,-1.03023 -11.56213,-0.44995c-2.26154,0.29529 -2.57392,0.39445 -3.39537,1.07556c-0.4976,0.41259 -0.99574,1.03922 -1.10655,1.39249c-0.32688,1.04219 -1.53762,1.80011 -3.61393,2.26127c-1.527,0.33915 -2.0012,0.55233 -2.62237,1.18037c-1.29487,1.30917 -2.44476,1.84369 -4.70585,2.18755c-2.39475,0.36423 -2.66128,0.56934 -2.72355,2.09524c-0.06451,1.581 -0.48895,3.31 -1.27477,5.19438c-0.82144,1.96978 -1.31636,3.86622 -1.37556,5.26887c-0.0288,0.68237 -0.27262,1.33501 -0.76774,2.05439c-0.71202,1.0345 -0.75684,1.05857 -2.35951,1.27497c-1.49253,0.20152 -1.66511,0.28002 -2.0021,0.91138c-0.20284,0.38002 -0.39327,1.05721 -0.4231,1.5047c-0.02983,0.44749 -0.13568,1.07689 -0.23526,1.39868c-0.27469,0.88767 -1.81807,1.70288 -3.63145,1.91812c-1.43763,0.17065 -1.56498,0.2303 -1.72745,0.81133c-0.24233,0.86665 -0.10712,1.87841 0.38511,2.88061c0.89736,1.82709 0.63393,3.56337 -0.75398,4.96849c-0.75585,0.76522 -0.75588,0.76519 -0.04627,1.04743c1.10723,0.44039 1.91445,1.5763 2.36453,3.32619c0.37166,1.44502 0.37175,1.62518 0.00274,2.53261c-0.56999,1.4017 -1.92205,2.68636 -2.97763,2.82888c-0.73246,0.0989 -0.98815,-0.02076 -1.80301,-0.84405c-0.52225,-0.52766 -1.15204,-1.29254 -1.39945,-1.69934c-0.32384,-0.53247 -0.60365,-0.71876 -0.99886,-0.6654c-0.30194,0.04077 -1.0737,-0.07687 -1.71554,-0.26164c-1.15914,-0.33368 -1.17533,-0.3315 -2.37713,0.32097c-1.32906,0.72155 -3.01533,1.04666 -3.98321,0.76781c-0.34268,-0.09873 -1.08608,-0.5648 -1.65208,-1.03563c-1.13477,-0.94395 -1.36084,-0.97506 -2.34902,-0.3244c-2.04174,1.34438 -2.97571,1.50115 -4.12554,0.69389c-0.58027,-0.40738 -0.64455,-0.58618 -0.81763,-2.2722c-0.18786,-1.82996 -0.1878,-1.82948 0.82232,-3.42764c0.55556,-0.87899 1.1053,-1.88184 1.22176,-2.22809c0.20424,-0.60721 0.19035,-0.62039 -0.38946,-0.37304c-1.54124,0.65752 -3.0549,0.87344 -3.66761,0.5228c-0.59039,-0.33787 -0.6234,-0.32733 -1.12724,0.37334"></path></g></g></svg>