<svg version="1.1" xmlns="http://www.w3.org/2000/svg" xmlns:xlink="http://www.w3.org/1999/xlink" width="21.53572" height="26.19971" viewBox="0,0,21.53572,26.19971"><g transform="translate(-237.82719,-159.92779)"><g fill="none" stroke="#ff0000" stroke-width="9.26042" stroke-miterlimit="10"><path d="M254.7327,181.62828c-2.8874,0.70179 -4.2687,0.30182 -6.7934,-1.96733c-0.5131,-0.46124 -1.4162,-0.93399 -2.1234,-1.11207c-0.9059,-0.22811 -1.5112,-0.60314 -2.2944,-1.42059c-0.9221,-0.96228 -1.0641,-1.2568 -1.0641,-2.20865c0,-1.45848 1.0131,-2.39313 2.5942,-2.39313c1.0556,0 1.0556,0.00049 0.9539,-0.87075c-0.068,-0.5861 0.0731,-1.16757 0.4321,-1.77612c0.4701,-0.79673 0.4969,-1.00538 0.2273,-1.7508c-0.2189,-0.60437 -0.2331,-1.04397 -0.051,-1.53685c0.2054,-0.55542 0.1413,-0.95283 -0.3261,-2.03399"></path></g></g></svg>