<svg version="1.1" xmlns="http://www.w3.org/2000/svg" xmlns:xlink="http://www.w3.org/1999/xlink" width="52.22898" height="97.66219" viewBox="0,0,52.22898,97.66219"><g transform="translate(-224.81324,-128.73832)"><g fill="none" stroke-miterlimit="10"><g stroke="#ff0000" stroke-width="9"><path d="M248.86424,175.43006c1.92013,1.30566 2.017,1.42755 2.87117,3.60606c0.77231,1.96934 0.89023,2.62482 0.93167,5.18016c0.02688,1.60912 0.2222,4.37377 0.43465,6.14373c0.36723,3.05821 0.35569,3.37565 -0.23552,6.38333c-1.16104,5.90663 -4.13277,11.40471 -6.74177,12.4735c-2.29183,0.93887 -3.20939,2.82072 -3.50304,7.18218c-0.10751,1.60566 -0.48571,3.59228 -1.01353,5.50149"></path><path d="M248.86424,175.43006c-1.79223,-1.21868 -2.14198,-1.35246 -3.56217,-1.3558c-1.11355,-0.00334 -2.08811,0.22031 -3.32665,0.76199c-2.37526,1.03879 -6.69473,1.3315 -8.1764,0.55406c-2.23203,-1.17114 -4.47458,-6.06615 -4.48578,-9.78666c-0.0112,-4.06949 1.56925,-4.97635 4.87473,-2.79742c0.76312,0.50308 1.93737,0.98673 2.65402,1.09317c0.7069,0.10499 1.68337,0.35367 2.16976,0.55291c0.83738,0.34298 0.96896,0.30411 2.47818,-0.73032c2.55121,-1.74864 4.91124,-4.44334 6.22257,-7.10558c1.94051,-3.93944 3.22036,-8.00397 3.91114,-12.42224c0.19431,-1.24234 -0.2064,-1.81292 -2.73689,-3.89635c-3.01766,-2.48452 -3.16246,-2.80296 -3.20502,-7.0595"></path></g><path d="M272.04222,164.30823c0,-1.38071 1.11929,-2.5 2.5,-2.5c1.38071,0 2.5,1.11929 2.5,2.5c0,1.38071 -1.11929,2.5 -2.5,2.5c-1.38071,0 -2.5,-1.11929 -2.5,-2.5z" stroke="none" stroke-width="0.5"></path></g></g></svg>