<svg version="1.1" xmlns="http://www.w3.org/2000/svg" xmlns:xlink="http://www.w3.org/1999/xlink" width="101.79756" height="91.61971" viewBox="0,0,101.79756,91.61971"><g transform="translate(-196.80184,-140.50114)"><g fill="none" stroke="#ff0000" stroke-width="9.26042" stroke-miterlimit="10"><path d="M198.47101,227.80197c1.8931,-0.73165 2.39999,-2.4483 3.81232,-1.62029c0.4783,0.28041 2.46044,-3.06715 3.53638,-3.45496c0.40686,-0.14665 1.52407,-0.26615 2.48303,-0.26615c0.95896,0 2.22356,-0.21314 2.81008,-0.47325c1.13305,-0.50243 2.41789,-1.83324 2.41789,-2.50405c0,-0.22191 0.09487,-0.40336 0.21126,-0.40336c0.11609,0 0.40803,-0.78656 0.64853,-1.7475c0.39278,-1.5692 0.40667,-2.07856 0.14094,-5.003c-0.40002,-4.40374 -0.27512,-4.78519 1.63605,-5.00299c2.76109,-0.31467 5.03159,-2.17842 5.79602,-4.75717c0.87035,-2.93611 1.92232,-3.97197 3.60924,-3.55407c0.6724,0.16557 0.67269,0.18185 0.67269,2.69906c0,3.26729 0.44824,4.15117 2.10502,4.15117c0.97236,0 1.20865,-0.15108 2.16116,-1.38289c1.06938,-1.38289 1.06948,-1.38288 2.84041,-1.38288c1.73992,0 1.78599,0.02077 2.64988,1.18468c0.48364,0.65157 1.11985,1.34308 1.41365,1.53661c0.34798,0.2293 2.19343,0.35191 5.29625,0.35191c4.76234,0 4.76244,0.00012 5.3604,-0.89312c0.32891,-0.49128 1.08112,-1.20149 1.67185,-1.57852c0.59083,-0.37704 1.33658,-0.94356 1.65727,-1.25837c0.43425,-0.42622 0.99613,-0.57237 2.20057,-0.57359c3.27299,-0.00369 4.5189,-1.0727 3.96397,-3.40098c-0.48862,-2.04965 -2.51902,-5.73312 -3.41461,-6.19469c-0.35385,-0.18231 -1.0908,-0.5869 -1.63752,-0.89884c-1.21247,-0.69174 -2.30513,-0.71689 -3.97913,-0.09207c-1.39458,0.52052 -1.75077,0.41728 -1.75077,-0.50818c0,-1.96097 -1.79449,-4.0251 -4.30863,-4.95473c-2.12116,-0.78437 -3.75799,-2.3771 -6.69875,-6.51928c-0.95329,-1.34271 -2.08458,-2.74384 -2.51443,-3.11386c-0.42985,-0.37 -1.03965,-1.11578 -1.35497,-1.65729c-0.61958,-1.06425 -3.19211,-2.77426 -4.17425,-2.77466c-0.3251,-0.00014 -1.26792,0.46721 -2.09495,1.03859c-1.0019,0.69212 -2.00467,1.11187 -3.00461,1.25775c-1.37325,0.20032 -1.64261,0.1349 -3.16238,-0.76989c-0.91368,-0.54393 -2.0884,-1.17913 -2.61096,-1.4121c-0.56217,-0.25065 -1.56055,-1.20752 -2.44518,-2.34333c-0.82224,-1.05578 -1.91401,-2.33494 -2.42601,-2.84199c-1.19682,-1.18516 -3.74059,-2.58495 -4.7241,-2.59995c-1.03134,-0.01574 -1.22352,-0.41528 -1.41209,-2.93155c-0.15522,-2.0717 -0.1248,-2.24475 0.82077,-4.69873c0.54007,-1.40145 1.15251,-3.28627 1.36103,-4.188c0.20861,-0.90174 0.56794,-1.84853 0.79856,-2.10449c0.23062,-0.25597 1.51937,-1.17152 2.86417,-2.03398c1.34479,-0.86247 2.83013,-1.97598 3.30086,-2.47483c0.80756,-0.85586 0.91289,-0.88726 1.87255,-0.56025c0.74448,0.25376 1.98903,0.25942 4.64576,0.0209c3.6287,-0.3257 3.6286,-0.32576 4.80039,0.55391c0.64815,0.48662 1.82228,1.01086 2.62768,1.17388c0.80072,0.16209 1.75439,0.47546 2.11872,0.6962c0.65841,0.39896 1.68808,2.01932 2.40371,3.78212c0.42623,1.04974 2.2796,2.91884 2.894,2.91884c0.22524,0 0.88317,0.54888 1.46216,1.21963c0.579,0.67074 1.31878,1.34376 1.64457,1.49531c0.58291,0.27117 0.58007,0.27897 -0.19912,0.4942c-1.25618,0.34704 -1.84457,1.53959 -1.71782,3.48166c0.1867,2.86145 1.34802,3.82583 5.02279,4.17086c1.67615,0.15738 1.8256,0.11886 2.56743,-0.67015c0.43317,-0.46077 1.22753,-1.24034 1.76545,-1.73225c0.53792,-0.4919 1.83802,-1.93935 2.88892,-3.21676c3.03279,-3.68646 6.17815,-6.61193 9.21415,-8.5685c1.54647,-0.99666 3.19709,-1.96848 3.66782,-2.16038c0.47063,-0.19191 2.34786,-1.29737 4.17122,-2.4564c1.82335,-1.15904 3.7487,-2.20663 4.2788,-2.32808c0.53009,-0.12145 2.33896,-0.70853 4.02002,-1.30412c3.39388,-1.20244 6.9589,-1.93298 7.85215,-1.60901c1.9502,0.70729 4.49485,1.18942 6.08513,1.15229c1.98776,-0.04647 3.13832,0.476 4.88479,2.2201"></path></g></g></svg>