<svg version="1.1" xmlns="http://www.w3.org/2000/svg" xmlns:xlink="http://www.w3.org/1999/xlink" width="87.09656" height="31.86337" viewBox="0,0,87.09656,31.86337"><g transform="translate(-195.03945,-160.28957)"><g fill="none" stroke="#ff0000" stroke-width="9.26042" stroke-miterlimit="10"><path d="M269.92896,164.85336c-0.58108,-0.09949 -0.68338,-0.04033 -0.59157,0.34208c0.06103,0.25419 0.10413,0.82963 0.09552,1.27894c-0.01372,0.71756 -0.18283,0.9397 -1.3894,1.82819c-0.75554,0.55633 -1.39117,1.12649 -1.41252,1.26674c-0.02135,0.14025 0.12117,0.68824 0.31658,1.21785c0.32757,0.88781 0.31431,1.08946 -0.16508,2.58221c-0.28597,0.89048 -0.60096,1.7969 -0.70005,2.01427c-0.15841,0.34749 -0.02252,0.40445 1.12428,0.47412c1.46736,0.08915 2.2522,0.63458 2.5449,1.76742c0.2243,0.86808 0.71363,0.90469 2.78449,0.2098c1.9726,-0.66192 3.85006,-0.53019 4.96969,0.34892c0.85901,0.67447 0.8622,1.47465 0.01236,3.15122c-0.39336,0.77603 -0.73797,1.5598 -0.76568,1.74183c-0.08335,0.54749 -0.9244,0.9668 -1.9378,0.96586c-1.93096,-0.00179 -2.02489,0.03176 -2.5354,0.90331c-1.03988,1.7753 -2.46113,2.4262 -4.52445,2.07292c-1.15285,-0.19739 -1.26383,-0.2809 -2.09546,-1.57792c-0.48302,-0.75329 -1.05738,-1.478 -1.27657,-1.61044c-0.57163,-0.34552 -1.35887,0.01955 -1.45892,0.67672c-0.10076,0.66181 -1.08992,1.40418 -2.744,2.0595c-1.26853,0.50258 -2.21368,0.46078 -3.19858,-0.14198c-0.44843,-0.27442 -0.6459,-0.30163 -0.74399,-0.10277c-0.07339,0.1489 -0.51598,0.60554 -0.98322,1.01467c-0.79946,0.70001 -0.91036,0.72399 -1.88519,0.40953c-1.90814,-0.61557 -4.57132,-2.99151 -4.42566,-3.94823c0.07982,-0.52427 1.48558,-1.48056 2.43981,-1.65985c0.64092,-0.12042 0.65598,-0.15246 0.50248,-1.08285c-0.14776,-0.89556 -0.25642,-1.00486 -1.64802,-1.6573c-0.81932,-0.38414 -1.96493,-1.06528 -2.54601,-1.51372c-0.58107,-0.44845 -1.5521,-1.01972 -2.15767,-1.26979c-0.6252,-0.25819 -1.28336,-0.74101 -1.52295,-1.11713c-0.35928,-0.56403 -0.52171,-0.64088 -1.09453,-0.51719c-1.13892,0.24591 -3.13842,-0.52419 -4.02236,-1.54928c-0.42482,-0.49265 -0.88005,-1.17365 -1.01149,-1.51323c-0.3354,-0.8665 0.10866,-1.84783 0.86738,-1.91705c1.01299,-0.09244 0.73412,-0.48413 -0.49447,-0.69449c-1.0022,-0.1716 -1.30547,-0.10061 -2.19577,0.51077c-1.11304,0.76433 -2.115,0.7787 -3.30702,0.0483c-0.51293,-0.3143 -0.66402,-0.31165 -0.9131,0.01588c-0.16421,0.21592 -0.67217,0.71665 -1.12887,1.11221c-0.81896,0.70932 -0.86348,0.71518 -3.22667,0.45099c-2.53984,-0.28394 -2.92945,-0.48067 -3.17193,-1.60415c-0.10356,-0.47976 -0.1271,-0.46693 -0.23052,0.12332c-0.20765,1.18515 -1.21116,1.52003 -3.41875,1.14204c-1.516,-0.25957 -2.01726,-0.4433 -2.37871,-0.87159c-0.45365,-0.53751 -0.46726,-0.53502 -1.40587,0.26338c-0.61846,0.52607 -1.29613,0.83892 -1.95101,0.90025c-0.55189,0.05169 -1.57028,0.27734 -2.26294,0.50136c-0.75831,0.24526 -1.6751,0.3383 -2.30412,0.23363c-0.57461,-0.09535 -1.53476,-0.03158 -2.1336,0.14139c-1.42853,0.41262 -3.88089,0.02939 -4.36517,-0.68197c-0.35801,-0.52587 -1.07482,-2.97537 -1.00744,-3.44305c0.02252,-0.15422 -0.21817,-0.52616 -0.53364,-0.82631c-0.31548,-0.30014 -0.93086,-1.1139 -1.36787,-1.80824c-0.7903,-1.25564 -0.79842,-1.2606 -1.46581,-0.94455c-0.671,0.31775 -0.67095,0.31742 -0.08009,1.12585c0.58082,0.79475 0.58465,0.85118 0.21043,3.30921"></path></g></g></svg>