<svg version="1.1" xmlns="http://www.w3.org/2000/svg" xmlns:xlink="http://www.w3.org/1999/xlink" width="136.87893" height="55.93616" viewBox="0,0,136.87893,55.93616"><g transform="translate(-173.93968,-148.85544)"><g fill="none" stroke="#ff0000" stroke-width="8" stroke-miterlimit="10"><path d="M223.20337,200.1358c-0.61041,0.53595 -0.93179,0.6558 -1.76262,0.6558c-0.87841,0 -1.11263,-0.09951 -1.72737,-0.73376c-0.56577,-0.58374 -0.73258,-0.95586 -0.81568,-1.82075c-0.08894,-0.92569 -0.03127,-1.16487 0.38714,-1.61022c0.41502,-0.44175 0.68814,-0.52323 1.76041,-0.52323c2.88819,0 4.12301,2.30698 2.15812,4.03216z"></path><path d="M233.81911,187.64954c0.30307,-0.00477 0.53139,0.00844 0.61176,0.04006c0.46797,0.18425 1.46361,2.16949 1.60494,3.20063c0.15362,1.12073 -0.0808,1.48641 -1.31249,2.04669c-1.25236,0.56969 -2.58477,0.50602 -3.95685,-0.18894c-0.96708,-0.48984 -1.20245,-0.72521 -1.43404,-1.43449c-0.386,-1.18219 -0.19385,-1.68531 1.0055,-2.63334c0.88156,-0.69683 1.25268,-0.84485 2.42105,-0.96455c0.37945,-0.03886 0.75705,-0.06094 1.06013,-0.06605z"></path><path d="M222.2582,179.11308c1.33341,0.02155 2.31546,0.69468 2.66726,1.86259c0.22485,0.74644 0.45498,0.84574 1.97446,0.84915c1.51493,0.00341 2.67256,0.40187 3.01212,1.03634c0.38582,0.72092 0.26845,1.7365 -0.27571,2.38318c-0.27836,0.33082 -0.57265,0.96815 -0.65405,1.41598c-0.21349,1.17512 -1.09491,2.3357 -2.49505,3.28651c-1.00278,0.68097 -1.40636,0.82975 -2.24621,0.82889c-0.56308,-0.00072 -1.26308,-0.12665 -1.55605,-0.27968c-0.29297,-0.15303 -0.77916,-0.43966 -1.07994,-0.63686c-0.38892,-0.255 -1.32947,-0.41278 -3.25744,-0.54702c-3.8542,-0.26834 -4.17883,-0.66115 -2.80556,-3.3975c0.56563,-1.12706 0.91399,-1.55883 1.47061,-1.82295c0.40112,-0.19034 0.82002,-0.34617 0.93063,-0.34617c0.40422,0 0.90597,-0.79613 0.90597,-1.43713c0,-0.88798 0.72706,-2.52884 1.24247,-2.80468c0.22975,-0.12296 0.93792,-0.28465 1.5741,-0.35939c0.204,-0.02361 0.4019,-0.03469 0.59238,-0.03128z"></path><path d="M184.08503,175.96266c1.06361,1.21138 1.44807,3.35265 0.72011,4.01146c-0.84666,0.76623 -3.98539,1.23022 -5.16098,0.76282c-0.29297,-0.11648 -0.79643,-0.4639 -1.1187,-0.77208c-0.47787,-0.45697 -0.58578,-0.7467 -0.58578,-1.5697c0,-1.87567 1.68584,-3.17243 4.12421,-3.17243c1.29847,0 1.40602,0.03938 2.02114,0.73993z"></path><path d="M249.63108,169.31697c1.16346,0.55481 1.60364,1.46183 1.60449,3.30633c0.00085,1.78829 -0.21675,2.31574 -1.72781,4.18323c-0.56373,0.6967 -1.08578,1.54334 -1.1601,1.88152c-0.07432,0.33819 -0.42473,0.94459 -0.77869,1.34772c-0.62927,0.71671 -0.64028,0.76763 -0.49636,2.30346c0.13316,1.42102 0.09582,1.67201 -0.39155,2.63379c-0.55179,1.08892 -0.86345,1.32966 -1.72429,1.32966c-0.27059,0 -0.90998,0.18969 -1.42083,0.4215c-1.03985,0.47184 -3.21243,0.57114 -3.91192,0.17881c-0.23438,-0.13146 -0.8818,-0.70119 -1.43845,-1.2658c-0.96165,-0.97539 -1.01168,-1.08527 -1.01168,-2.2048c0,-1.17827 -0.00009,-1.17816 -0.69896,-1.17816c-0.9229,0 -2.07136,-1.16354 -2.07136,-2.09866c0,-1.61111 1.10999,-3.0152 2.38362,-3.0152c0.72454,0 0.8126,-0.05741 0.8126,-0.53248c0,-0.68946 0.70287,-1.38517 1.3997,-1.38517c0.30112,0 1.26206,0.29759 2.13521,0.66109c1.50325,0.6258 1.6152,0.6424 2.11231,0.31668c0.28874,-0.18919 0.58231,-0.60633 0.65228,-0.92711c0.2411,-1.10521 0.54805,-1.69888 1.01212,-1.95728c0.25595,-0.1425 0.85204,-1.0424 1.32438,-1.99956c0.78382,-1.58839 0.93642,-1.76727 1.74896,-2.05022c0.4003,-0.13938 0.64203,-0.20765 0.86853,-0.20083c0.2265,0.00695 0.43785,0.08936 0.7778,0.25148z"></path><path d="M268.19576,165.63672c0.74288,-0.0017 1.00336,0.13039 1.75556,0.89011c1.45161,1.46613 1.42332,2.95465 -0.07313,3.82471c-0.60906,0.35413 -2.53317,0.68667 -2.98085,0.5153c-0.11719,-0.04483 -0.46028,-0.13522 -0.76239,-0.20128c-0.3021,-0.06605 -0.80556,-0.35767 -1.1187,-0.64788c-0.44799,-0.41518 -0.56947,-0.72386 -0.56947,-1.44902c0,-0.50738 0.15653,-1.14492 0.34794,-1.41819c0.47678,-0.68071 2.34298,-1.51121 3.40102,-1.51377z"></path><path d="M296.49046,152.84999c0.37503,-0.01959 0.80641,0.11969 1.36401,0.40564c1.16043,0.5951 1.67592,1.25925 2.02555,2.61001c0.27494,1.06223 1.29729,2.73771 1.67056,2.73773c0.07458,0.00001 0.29486,0.33581 0.48976,0.74653c0.43286,0.91218 1.67471,1.59701 2.89585,1.59701c1.23748,0 1.64266,0.29011 2.24489,1.6067c0.82058,1.79397 0.85835,2.27216 0.23739,2.99318c-0.53457,0.62071 -0.53456,0.62057 -3.39133,0.62057c-2.76114,0 -2.8814,0.01901 -3.59702,0.56419c-1.02224,0.77883 -2.42007,1.16552 -3.17023,0.87735c-0.60419,-0.2321 -2.12491,-1.59526 -2.55363,-2.28893c-0.23607,-0.38197 -0.42942,-1.05542 -0.42942,-1.49615c0,-0.80132 0.00023,-0.8012 -1.08919,-0.65668c-0.59918,0.0796 -1.76209,0.07824 -2.58402,-0.00256c-1.24475,-0.12266 -1.61766,-0.25549 -2.23211,-0.79498c-0.61567,-0.54073 -0.71707,-0.74935 -0.61396,-1.26492c0.19792,-0.98959 0.7479,-1.99416 1.65867,-3.02886c0.9294,-1.05586 1.69465,-1.23635 2.73024,-0.64435c0.29297,0.16748 0.72785,0.30757 0.96675,0.31183c0.2389,0.00426 0.78668,0.18717 1.21692,0.40652c0.78225,0.39881 0.78187,0.3987 0.47082,-0.34574c-0.17107,-0.40945 -0.31095,-1.29064 -0.31095,-1.95816c0,-1.03962 0.09827,-1.34115 0.68487,-2.10439c0.44432,-0.57812 0.83339,-0.86622 1.31558,-0.89144z"></path></g></g></svg>