<svg version="1.1" xmlns="http://www.w3.org/2000/svg" xmlns:xlink="http://www.w3.org/1999/xlink" width="29.37501" height="29.37499" viewBox="0,0,29.37501,29.37499"><g transform="translate(-225.31249,-165.31251)"><g stroke-miterlimit="10"><path d="M226.37772,193.35055c0,0 -0.81522,-0.37122 -0.81522,-2.60556c0,-6.34888 0,-18.96463 0,-22.2c0,-1.4845 1.13406,-2.26147 1.13406,-2.26147c0,0 0.70823,-0.72101 2.44006,-0.72101c3.20749,0 14.20942,0 20.6,0c2.78987,0 3.45089,0.58333 3.45089,0.58333c0,0 1.25,0.57369 1.25,2.39915c0,5.81493 0,18.41259 0,22c0,1.86058 -0.97826,2.9686 -0.97826,2.9686c0,0 -0.61752,0.92391 -3.02262,0.92391c-6.28417,0 -18.09361,0 -21.4,0c-1.69078,0 -2.6589,-1.08696 -2.6589,-1.08696z" fill="#000033" stroke="#000000" stroke-width="0.5"></path><path d="M237.99458,170.53262h4.01087v18.93478h-4.01087z" fill="#ffffff" stroke="none" stroke-width="0"></path><path d="M230.53263,182.00543v-4.01087h18.93478v4.01087z" fill="#ffffff" stroke="none" stroke-width="0"></path></g></g></svg>