<svg version="1.1" xmlns="http://www.w3.org/2000/svg" xmlns:xlink="http://www.w3.org/1999/xlink" width="99.86476" height="64.77146" viewBox="0,0,99.86476,64.77146"><g transform="translate(-191.66447,-142.34465)"><g fill="none" stroke="#ff0000" stroke-width="9.26042" stroke-miterlimit="10"><path d="M229.2539,155.51369c0.83954,-0.01992 1.64577,0.17002 2.16215,0.5762c1.28374,1.0098 1.83698,3.69206 1.00614,4.87825c-0.32974,0.47077 -0.32974,0.63346 0,1.42265c0.20477,0.49008 0.37258,1.40657 0.37258,2.03657c0,1.16789 -0.56147,2.62051 -1.01285,2.62051c-0.1375,0 -0.07857,0.33176 0.13125,0.73743c0.82525,1.59587 0.26988,3.14425 -1.83658,5.12165c-0.79429,0.74563 -1.02128,1.39113 -0.48937,1.39113c0.16105,0 0.47074,-0.15869 0.68781,-0.35244c0.74419,-0.66421 2.84412,-1.64796 3.51813,-1.64796c1.10057,0 1.5012,0.68874 1.5012,2.57866c0,2.39276 -0.83111,3.66151 -3.63492,5.54643c-1.16928,0.78608 -2.23601,1.63455 -2.3704,1.88567c-0.1344,0.25113 -0.24442,1.11952 -0.24442,1.9296c0,1.85689 -0.57482,2.49426 -2.53525,2.81326c-0.73694,0.11992 -1.63157,0.29039 -1.98799,0.37879c-0.74725,0.18533 -1.47692,-0.38299 -1.47692,-1.15032c0,-0.58719 -0.87637,-0.64709 -2.07067,-0.14159c-1.25074,0.52938 -1.77313,1.25263 -1.58492,2.19366c0.23102,1.15509 -0.31227,1.79612 -2.06447,2.435c-0.83212,0.3034 -1.58098,0.66153 -1.66398,0.79582c-0.21049,0.34058 0.76588,1.84997 1.5136,2.3399c1.1254,0.73738 0.84464,1.54829 -1.33997,3.86902c-1.95931,2.08139 -1.96174,2.08267 -3.06286,1.97197c-0.60602,-0.0609 -1.28431,-0.19238 -1.5074,-0.29249c-0.33044,-0.14832 -0.38261,-0.06211 -0.28164,0.46612c0.0804,0.42046 -0.04025,0.82958 -0.34365,1.16479c-0.8495,0.93868 -1.89741,1.28828 -4.2292,1.41025c-2.26322,0.11838 -2.26365,0.11863 -3.04425,-0.66197c-0.42934,-0.42934 -0.85447,-1.11874 -0.94517,-1.53169c-0.0907,-0.41295 -0.21398,-0.75086 -0.27388,-0.75086c-0.0599,0 -0.70725,0.33784 -1.43816,0.75034c-1.57806,0.8906 -2.81986,0.96694 -3.75481,0.23151c-0.59995,-0.4719 -0.65835,-0.6748 -0.65835,-2.27428c0,-1.75621 0.00001,-1.75604 1.52342,-3.21014c1.52341,-1.45411 1.52343,-1.45408 0.98237,-2.18591c-0.74927,-1.01345 -1.0761,-2.62213 -0.76637,-3.77238c0.30717,-1.14077 1.86758,-2.71132 3.02308,-3.04271c2.00175,-0.5741 2.60309,-0.38114 4.40748,1.41438c1.66908,1.66089 1.66921,1.66104 2.312,0.31265c0.55171,-1.15732 0.79422,-1.40081 1.71101,-1.71773c0.92215,-0.31876 1.10427,-0.5034 1.33273,-1.35185c0.3148,-1.16907 1.38057,-2.31102 2.3797,-2.55024c1.02848,-0.24624 1.34462,-0.56761 1.34462,-1.36632c0,-1.32939 1.1472,-1.90757 3.28249,-1.65468c1.02845,0.12181 1.26698,0.07335 1.39165,-0.2806c0.0827,-0.23492 0.37973,-0.68202 0.66042,-0.99374c0.39177,-0.43513 0.49547,-0.84848 0.44597,-1.78077c-0.0563,-1.06096 0.02109,-1.28185 0.61133,-1.74615c0.37157,-0.29227 0.9977,-0.53123 1.39165,-0.53123c0.97163,0 1.71617,-0.79812 1.71617,-1.83968c0,-0.46189 0.33785,-1.47234 0.75035,-2.24534c0.4125,-0.77301 0.74982,-1.57657 0.74982,-1.78542c0,-0.20884 0.24279,-0.6221 0.5395,-0.91881c0.53951,-0.53949 0.53948,-0.53973 -0.0625,-0.34882c-0.33109,0.10499 -1.33466,0.2463 -2.23035,0.3142c-1.52063,0.11528 -1.67387,0.07843 -2.31252,-0.56018c-0.6134,-0.61338 -0.6842,-0.8623 -0.6842,-2.41225c0,-2.59526 0.74319,-3.70365 2.48357,-3.70365c0.70026,0 0.76636,-0.07108 0.76636,-0.82424c0,-0.89681 0.99007,-2.03599 2.84737,-3.27629c0.64968,-0.43386 1.5226,-0.66378 2.36213,-0.68368z"></path><path d="M290.90602,196.56253c-1.89986,0 -2.2738,-0.07654 -3.09129,-0.632c-1.09309,-0.74277 -1.31511,-1.38021 -1.30121,-3.74292c0.008,-1.40461 0.145,-2.00941 0.69195,-3.06287c0.68143,-1.3125 0.68143,-1.31206 -0.30644,-1.31206c-1.44462,0 -4.27318,0.63678 -7.33392,1.65106c-3.64512,1.20793 -5.4442,2.51704 -6.41977,4.67207c-0.89799,1.98366 -2.56761,4.06499 -3.74137,4.6638c-1.19046,0.60732 -3.65716,1.05747 -4.71031,0.85989c-1.02603,-0.19248 -1.31516,-0.70585 -1.31516,-2.33629c0,-2.12299 2.01436,-5.67728 3.93723,-6.94686c0.75048,-0.4955 0.71029,-0.69185 -0.22066,-1.07746c-1.368,-0.56665 -2.20489,-1.45177 -2.37402,-2.5094c-0.11514,-0.72004 -0.27586,-0.97721 -0.6103,-0.97721c-0.24963,0 -0.60115,-0.20821 -0.78083,-0.46302c-0.20213,-0.28667 -0.80318,-0.53386 -1.57664,-0.64802c-1.03638,-0.15296 -1.4209,-0.36841 -2.25,-1.26039c-1.2318,-1.32521 -2.59107,-3.5512 -3.11712,-5.10511c-0.21746,-0.64234 -0.72554,-1.69009 -1.12913,-2.32803c-0.62815,-0.99289 -0.9332,-1.22114 -2.11873,-1.58594c-0.7617,-0.23438 -1.58149,-0.59751 -1.82211,-0.80667c-0.68708,-0.59721 -0.5548,-2.02037 0.31574,-3.39308c0.84982,-1.34002 1.64402,-1.76127 3.80907,-2.0221c1.36274,-0.16418 1.43764,-0.20938 1.43764,-0.86661c0,-1.04102 -1.5164,0 0,0c0.71547,0 3.89321,-1.3631 4.35425,-1.17047c0.2213,0.0925 -0.68111,-0.27717 0,0c0.9166,0.37301 5.07489,6.12386 6.41916,6.56592c0,0 1.87581,0.50445 2.23241,1.56551c0.68412,2.03557 -1.58986,4.42228 -0.26798,3.57943c1.97456,-1.25901 -2.07232,-9.54271 -1.96484,-9.83167c0.99698,-2.68029 -4.52192,-2.96098 -5.4555,-3.59537c-0.63608,-0.43223 -1.2711,-0.63407 -1.99212,-0.63407c-0.58202,0 -1.53989,-0.15871 -2.12907,-0.35243c-0.58919,-0.19371 -1.44858,-0.43025 -1.90945,-0.52555c-0.46466,-0.0961 -1.46702,-0.71806 -2.24999,-1.3963c-0.77663,-0.67272 -1.60888,-1.39236 -1.8495,-1.59938c-0.53937,-0.464 -0.57525,-1.88473 -0.0724,-2.85719c0.39356,-0.76106 0.29769,-1.01906 -0.37827,-1.01906c-0.44362,0 -0.93589,0.86308 -1.49603,2.62465c-0.49004,1.54113 -2.02653,3.91992 -2.92179,4.52323c-0.44322,0.29869 -1.3431,0.61704 -1.99987,0.70694c-0.65677,0.0899 -1.73174,0.29379 -2.38849,0.4532c-1.10511,0.26822 -1.23524,0.2484 -1.74821,-0.26458c-0.49426,-0.49426 -0.56401,-0.86205 -0.64441,-3.39463c-0.0902,-2.84013 -0.09014,-2.83989 0.84853,-3.87883c0.7226,-0.79984 1.27505,-1.13237 2.40089,-1.44539c1.20683,-0.33553 1.46244,-0.50125 1.46244,-0.94723c0,-0.29724 -0.29244,-0.81336 -0.64957,-1.1467c-1.10252,-1.02908 -1.60042,-2.29669 -1.60042,-4.07365c0,-1.48559 0.05938,-1.66258 0.75137,-2.24483c1.08175,-0.91023 2.74649,-1.11048 3.84473,-0.4625"></path></g></g></svg>