<svg version="1.1" xmlns="http://www.w3.org/2000/svg" xmlns:xlink="http://www.w3.org/1999/xlink" width="111.45833" height="28.125" viewBox="0,0,111.45833,28.125"><g transform="translate(-184.27084,-165.9375)"><g stroke-miterlimit="10"><path d="M185.52085,192.5625c0,0 -1.25,-0.78285 -1.25,-3.94931c0,-5.77633 0,-14.49315 0,-17.65625c0,-2.28247 1.625,-3.76944 1.625,-3.76944c0,0 1.05862,-1.25 4.20672,-1.25c11.42774,0 80.20662,0 100.1875,0c3.44476,0 3.72036,0.78125 3.72036,0.78125c0,0 1.71875,1.08989 1.71875,3.76944c0,5.31213 0,13.80141 0,17.1875c0,2.76119 -1.1875,4.48056 -1.1875,4.48056c0,0 -0.74673,1.90625 -4.09536,1.90625c-19.73838,0 -88.61996,0 -100.1875,0c-3.22383,0 -4.73797,-1.5 -4.73797,-1.5z" fill-opacity="0.50196" fill="#000033" stroke="none" stroke-width="0"></path><text transform="translate(200.33588,183.26875) scale(0.28332,0.28332)" font-size="40" xml:space="preserve" fill="#000000" stroke="#000000" stroke-width="1" font-family="Sans Serif" font-weight="normal" text-anchor="start"><tspan x="0" dy="0">時間を進ませる</tspan></text></g></g></svg>