<svg version="1.1" xmlns="http://www.w3.org/2000/svg" xmlns:xlink="http://www.w3.org/1999/xlink" width="36.52816" height="33.51062" viewBox="0,0,36.52816,33.51062"><g transform="translate(-222.24468,-160.22918)"><g fill="none" stroke="#ff0000" stroke-width="9.26042" stroke-miterlimit="10"><path d="M238.72035,177.56146c2.67,0.31994 3.68091,1.31856 3.68091,3.6375c0,0.94651 -0.16654,1.3189 -1.10433,2.47014c-1.4694,1.80385 -2.11108,2.19004 -3.63698,2.19004c-1.15089,0 -1.25884,0.05026 -1.25884,0.58188c0,1.14671 -2.35542,2.66857 -4.12998,2.66857c-1.16202,0 -1.24611,-0.05314 -2.98742,-1.87534c-0.98545,-1.03125 -1.93055,-1.87482 -2.10013,-1.87482c-0.16958,0 -0.46947,-0.38599 -0.66662,-0.85783c-0.19715,-0.47185 -0.47279,-0.92862 -0.61237,-1.01492c-0.47825,-0.29557 -0.25354,-1.67063 0.44287,-2.71146c0.38304,-0.57248 0.81569,-1.26599 0.96118,-1.54099c0.75964,-1.43592 3.07039,-2.1058 6.97477,-2.0159c1.30145,0.02996 2.77978,0.14456 4.43694,0.34313z"></path><path d="M252.21875,166.32959c1.10431,0.87756 2.14091,1.9612 2.57193,2.68769c0.66154,1.11509 0.72264,1.42101 0.72864,3.65042c0.007,2.43356 0.00695,2.43402 -1.37821,3.81992c-1.12247,1.12346 -1.72539,1.50095 -3.18482,1.99471c-2.31691,0.78387 -3.92599,0.93833 -5.11752,0.49145c-1.5499,-0.5813 -2.30637,-1.03735 -3.7176,-2.24121c-1.98674,-1.69479 -2.4671,-2.62397 -2.4691,-4.77335c-0.001,-1.55502 0.08709,-1.89639 0.71004,-2.75642c1.86899,-2.58007 5.22826,-4.34341 8.27494,-4.34341c1.73099,0 1.73148,-0.0001 3.5817,1.4702z"></path></g></g></svg>