<svg version="1.1" xmlns="http://www.w3.org/2000/svg" xmlns:xlink="http://www.w3.org/1999/xlink" width="60.45027" height="86.22625" viewBox="0,0,60.45027,86.22625"><g transform="translate(-216.30304,-136.26041)"><g fill="none" stroke="#ff0000" stroke-width="9.26042" stroke-miterlimit="10"><path d="M220.74279,173.45229c-0.3039,-1.02656 0.36343,-7.22987 1.10657,-10.28653c0.34092,-1.40198 0.56817,-3.0623 0.56817,-4.20438c0.0093,-1.90593 0.27646,-2.90562 1.46852,-5.41298c0.29357,-0.61764 0.75086,-1.42868 1.01616,-1.80206c0.68584,-0.96542 1.63,-3.50783 1.81948,-4.89962c0.08837,-0.65155 0.43403,-1.79252 0.7677,-2.53578c0.33366,-0.74326 0.76705,-1.75721 0.96276,-2.25272c0.29153,-0.73841 0.52352,-0.91845 1.28592,-0.99942c0.17962,-0.01874 0.35506,-0.02595 0.5278,-0.02114v-0.00025c1.20936,0.03775 2.26756,0.68415 3.40186,2.05594c1.30489,1.57811 1.66572,1.74513 4.55847,2.11739c1.08713,0.1399 2.26849,0.39899 2.6256,0.57545c1.19029,0.58821 3.28688,2.65241 4.87233,4.79719c1.71418,2.31894 2.88931,3.25262 4.44015,3.52712c0.91867,0.16261 1.34443,-0.03178 4.70991,-2.14781c3.76333,-2.36628 5.20041,-2.89708 6.1202,-2.26141c0.63812,0.44102 1.41615,2.04879 1.41615,2.9312c0.00047,0.36532 -0.62966,2.62048 -1.40024,5.01136c-1.37159,4.25516 -1.4088,4.4443 -1.75548,8.9457c-0.19479,2.52924 -0.51422,6.08472 -0.70956,7.90159c-0.57059,5.30731 -0.63021,7.39891 -0.34083,11.93775c0.42845,6.7192 0.76202,8.6871 1.81465,10.70243c0.3092,0.59194 0.53245,1.47196 0.5331,2.1025c0.00056,0.59633 0.25981,1.89488 0.57589,2.88589c0.31618,0.99102 0.57524,2.13961 0.58454,2.55254c0.0093,0.41292 0.31571,1.33446 0.68984,2.04725c0.37404,0.7128 0.80723,2.02987 0.96276,2.92748c0.28288,1.63147 0.28315,1.63267 1.23448,1.63507c1.55772,0.0048 3.09507,1.16449 5.03818,3.79902c0.9689,1.31375 2.08747,2.56261 2.48523,2.77539"></path></g></g></svg>