<svg version="1.1" xmlns="http://www.w3.org/2000/svg" xmlns:xlink="http://www.w3.org/1999/xlink" width="73.26704" height="141.19729" viewBox="0,0,73.26704,141.19729"><g transform="translate(-205.49697,-108.91926)"><g fill="none" stroke="#ff0000" stroke-width="9.26042" stroke-miterlimit="10"><path d="M217.21464,232.21707c0.79413,0.7662 0.86269,0.93441 0.86269,2.11441c0,1.21935 0.05025,1.32888 1.02344,2.24472c1.15452,1.08643 1.41302,1.91187 1.19464,3.8103c-0.23395,2.03387 -0.50197,3.48603 -0.70385,3.81269c-0.36191,0.58558 -2.11044,1.16229 -3.94251,1.30022c-1.65173,0.12435 -1.93912,0.0817 -2.97853,-0.44371c-0.6327,-0.31983 -1.49022,-0.64886 -1.90563,-0.73095c-0.54924,-0.10848 -0.94549,-0.42604 -1.45337,-1.16421c-0.64674,-0.94 -0.68659,-1.11108 -0.53597,-2.31653c0.13319,-1.06608 0.31773,-1.46847 1.01963,-2.22094c0.85705,-0.91881 0.85701,-0.9186 0.38617,-1.96983c-0.31567,-0.70477 -0.50391,-1.7142 -0.57164,-3.06318c-0.10109,-2.01211 -0.10143,-2.0125 0.81989,-2.93382c0.81364,-0.81364 1.0478,-0.92119 2.00264,-0.92119c1.24627,0 3.33143,1.08216 4.78238,2.48202z"></path><path d="M274.13379,207.77205c0,1.90216 -0.00007,1.9018 -1.20796,2.80446c-1.6929,1.2651 -3.50115,2.33903 -3.87927,2.30369c-0.17581,-0.01647 -0.64702,-0.18664 -1.04721,-0.37808c-1.02797,-0.49176 -1.62528,-1.85354 -1.23079,-2.80589c0.36416,-0.87917 1.64507,-2.01596 2.89435,-2.56858c0.52751,-0.23334 1.0946,-0.58745 1.26027,-0.78707c0.42598,-0.51327 1.48094,-1.02296 2.11773,-1.02296c0.9066,0 1.09288,0.41825 1.09288,2.45444z"></path><path d="M259.07953,196.38771c0.70323,0.70323 0.7035,0.70531 0.58496,2.78449c-0.1356,2.37811 -0.4608,3.01523 -1.91705,3.75942c-0.49523,0.25308 -1.03622,0.64124 -1.20225,0.86269c-0.21013,0.28028 -0.61975,0.40281 -1.34873,0.40281c-0.94058,0 -1.14444,0.10309 -2.00027,1.0144c-0.52407,0.55807 -1.41896,1.24532 -1.98839,1.52707c-0.56943,0.28174 -1.32775,0.75672 -1.68544,1.05578c-0.3577,0.29906 -0.94493,0.54406 -1.30498,0.54406c-0.85325,0 -2.09223,1.41666 -2.46824,2.82253c-0.25186,0.94163 -1.15949,2.01875 -2.20952,2.62232c-0.22006,0.12649 -0.3687,0.71713 -0.43754,1.73538c-0.10461,1.54781 -0.42015,2.2528 -1.00822,2.2528c-0.17332,0 -1.17028,0.82758 -2.21523,1.83952c-1.87019,1.81112 -1.90001,1.85748 -1.90277,2.96997c-0.0046,1.62679 -0.43508,2.01012 -2.4863,2.21047c-1.86351,0.18202 -2.4573,0.55358 -2.4573,1.53848c0,0.39931 -0.2259,0.89075 -0.56499,1.22984c-0.60439,0.6044 -0.75217,0.61791 -3.9682,0.35525c-0.91149,-0.07445 -1.78636,-0.26509 -1.94415,-0.42326c-0.15778,-0.15818 -0.60278,-0.28773 -0.98873,-0.2882c-0.38595,-0.00048 -1.01239,-0.20625 -1.39201,-0.45703c-0.83898,-0.55424 -1.4955,-0.94209 -1.95556,-1.15517c-0.21522,-0.09969 -0.37106,-0.55396 -0.41422,-1.20748c-0.05964,-0.90286 0.0326,-1.16462 0.66818,-1.88851c0.79776,-0.90859 2.20542,-1.733 2.95807,-1.733c0.28991,0 0.47339,-0.15409 0.47891,-0.40281c0.00552,-0.22145 0.19519,-0.75136 0.4223,-1.17753c0.40801,-0.76567 0.40662,-0.78137 -0.1246,-1.31259c-0.5872,-0.5872 -0.72195,-1.73142 -0.24968,-2.11773c0.15817,-0.12938 1.23679,-0.27151 2.3969,-0.31578c1.16011,-0.04427 2.18137,-0.15238 2.26945,-0.24064c0.08807,-0.08826 -0.05873,-0.43892 -0.32624,-0.77899c-0.26751,-0.34008 -0.48651,-0.91417 -0.48651,-1.2755c0,-0.40119 -0.40306,-1.24558 -1.03532,-2.1691c-0.56943,-0.83174 -1.03533,-1.76287 -1.03533,-2.06923c0,-1.21009 3.21384,-3.5554 4.87227,-3.5554c0.76688,0 0.91197,-0.09097 1.18989,-0.7476c0.4335,-1.02433 0.92148,-1.38934 2.80067,-2.09586c1.30938,-0.49229 2.00861,-0.60731 3.69237,-0.60731c2.11799,0 2.62946,-0.18108 2.62946,-0.9307c0,-0.62665 0.73855,-1.08765 1.95556,-1.22033c2.60652,-0.28417 2.8921,-0.39646 4.1123,-1.61648c0.99001,-0.98987 1.42586,-1.24384 2.71269,-1.58176c1.7423,-0.45752 2.7856,-0.50863 3.42319,-0.1674c0.34263,0.18337 0.54286,0.13246 0.9055,-0.23017c0.3262,-0.3262 0.78286,-0.48768 1.26645,-0.49412c0.62176,-0.00788 1.28805,0.24179 1.77865,0.73239z"></path><path d="M247.11356,132.16114c0.13711,0.00368 0.24705,0.01426 0.31911,0.0323c0.72093,0.18094 1.25869,1.08472 1.48047,2.48773c0.21258,1.34474 -0.08257,1.88181 -1.16326,2.11917c-0.62464,0.13719 -0.62464,0.13702 -0.52265,2.08016c0.11965,2.27958 -0.05551,2.66626 -1.70446,3.75847c-1.26054,0.83494 -2.09184,0.90092 -3.47075,0.27488c-0.84962,-0.38574 -1.00633,-0.58086 -1.32305,-1.64739c-0.50506,-1.7007 -0.45191,-2.52104 0.22257,-3.43984c0.83923,-1.14324 1.49904,-1.58718 2.36932,-1.5927c0.76536,-0.00552 0.76539,-0.00542 0.05752,-0.60065c-1.51943,-1.27852 -0.50259,-2.92194 2.06352,-3.33521c0.60503,-0.09739 1.26032,-0.1481 1.67164,-0.13697z"></path><path d="M256.98838,122.66339c0.72134,0.89082 0.40316,2.71112 -0.69196,3.96012c-0.38361,0.43752 -2.49408,0.54889 -3.40655,0.17976c-0.59896,-0.24231 -1.58933,-1.4058 -2.17671,-2.55717c-0.4689,-0.91913 -0.37356,-1.68743 0.27346,-2.20477c0.37516,-0.29996 1.20082,-0.42602 2.1282,-0.4147c1.54563,0.01893 3.37442,0.42034 3.87356,1.03676z"></path><path d="M255.34907,113.54759c0.22154,0.00635 0.49195,0.0254 0.83035,0.05467c2.06155,0.17803 3.45184,0.77638 3.65147,1.57177c0.23227,0.92546 -0.03224,2.61431 -0.48842,3.11835c-0.5684,0.62808 -1.11204,0.56405 -2.0269,-0.23921c-0.43976,-0.38612 -1.04841,-0.69006 -1.38107,-0.69006c-0.85214,0 -2.22046,-1.42257 -2.22046,-2.30844c0,-0.37541 0.20354,-0.88599 0.45227,-1.13472c0.29412,-0.29415 0.51812,-0.39143 1.18275,-0.37238z"></path></g></g></svg>