<svg version="1.1" xmlns="http://www.w3.org/2000/svg" xmlns:xlink="http://www.w3.org/1999/xlink" width="60.27175" height="65.78975" viewBox="0,0,60.27175,65.78975"><g transform="translate(-209.86416,-144.34613)"><g stroke-miterlimit="10"><path d="M212.21948,206.42526c0,0 -1.35531,-1.33579 -1.35531,-7.18144c0,-12.7805 0,-34.16152 0,-40.65918c0,-3.70074 2.25885,-5.0099 2.25885,-5.0099c0,0 1.9844,-2.71061 5.83357,-2.71061c6.31562,0 26.09421,0 38.85211,0c6.60431,0 7.71308,2.25885 7.71308,2.25885c0,0 3.61414,2.30715 3.61414,6.36521c0,6.96514 0,29.37127 0,41.56272c0,4.85117 -1.80707,6.2779 -1.80707,6.2779c0,0 -1.85919,1.80707 -7.26132,1.80707c-12.83696,0 -35.47582,0 -42.01449,0c-3.48517,0 -5.83357,-2.71061 -5.83357,-2.71061z" fill="#ffa500" stroke="#cd8500" stroke-width="2"></path><text transform="translate(225.22525,195.43242) scale(1.1744,1.1744)" font-size="40" xml:space="preserve" fill="#000000" stroke="#000000" stroke-width="1" font-family="Sans Serif" font-weight="normal" text-anchor="start"><tspan x="0" dy="0">4</tspan></text></g></g></svg>