<svg version="1.1" xmlns="http://www.w3.org/2000/svg" xmlns:xlink="http://www.w3.org/1999/xlink" width="22.36937" height="68.3054" viewBox="0,0,22.36937,68.3054"><g transform="translate(-231.29411,-145.01359)"><g fill="none" stroke="#ff0000" stroke-width="9.26042" stroke-miterlimit="10"><path d="M243.83182,146.96593c0.407,1.18344 0.8661,2.38841 1.0211,2.67787c0.1549,0.28946 0.9004,2.30226 1.6563,4.47311c2.1273,6.10893 2.7039,10.05117 2.4784,16.94729c-0.1094,3.34544 -0.338,5.78456 -0.7731,8.24962c-0.3398,1.925 -0.7266,4.17522 -0.8599,5.00022c-0.2827,1.74988 -0.7075,9.77233 -0.5493,10.37714c0.059,0.22673 -0.0648,1.07819 -0.2754,1.89239c-0.2195,0.84716 -0.3651,2.34979 -0.3401,3.51297c0.039,1.83074 -0.0241,2.13449 -0.6341,3.05666c-0.8479,1.28129 -1.4287,1.66266 -3.253,2.13733c-0.9719,0.25289 -1.8049,0.69 -2.5275,1.32602c-1.2231,1.07658 -3.0734,2.07223 -3.8509,2.07223"></path></g></g></svg>