<svg version="1.1" xmlns="http://www.w3.org/2000/svg" xmlns:xlink="http://www.w3.org/1999/xlink" width="71.51027" height="32.07936" viewBox="0,0,71.51027,32.07936"><g transform="translate(-204.02155,-165.87655)"><g fill="none" stroke="#ff0000" stroke-width="9.26042" stroke-miterlimit="10"><path d="M243.61192,193.32571c0.61444,-2.22329 1.34267,-3.29616 3.36517,-4.95927c2.51854,-2.07099 3.50625,-3.80273 3.50625,-6.14554c0,-1.73713 0.00031,-1.73692 1.81281,-1.88496c2.91501,-0.23811 7.4438,-1.33404 8.00003,-1.93588c0.27236,-0.29469 0.87138,-0.96101 1.33118,-1.48064c0.45979,-0.51963 1.51663,-1.22119 2.3487,-1.5589c1.51287,-0.61404 1.51275,-0.61409 3.94756,0.4124c1.33915,0.56457 2.60468,1.02923 2.81223,1.03284c0.20755,0.00361 0.51679,0.27554 0.6873,0.60369"></path><path d="M208.57685,173.19788c0.12154,-0.66746 0.27971,-0.76818 1.29036,-0.82106c0.80642,-0.04218 1.5182,0.16351 2.37557,0.68567c2.3099,1.40678 5.09123,0.73957 6.30452,-1.5117c0.30852,-0.57247 0.66211,-1.04162 0.78549,-1.04402c0.12338,-0.0024 0.87427,0.28104 1.66863,0.62915c1.4443,0.63288 1.44423,0.6327 5.61309,-0.02416c4.52364,-0.71283 5.05654,-0.64976 6.36912,0.75771c0.95639,1.02554 2.47743,1.84392 4.17442,2.24518c1.13714,0.26887 1.91435,0.70249 2.98587,1.66573c0.89652,0.80593 1.83277,1.37465 2.4567,1.49244c0.55445,0.10468 1.30835,0.34282 1.67586,0.52915c0.66821,0.33879 0.66822,0.33853 -1.12499,1.76882c-1.91403,1.52668 -3.85726,3.54046 -8.35557,8.65839c-2.45974,2.79856 -2.81223,3.32246 -2.81223,4.1761"></path></g></g></svg>