<svg viewBox="0,0,39.18345,21.79364" height="21.79364" width="39.18345" xmlns:xlink="http://www.w3.org/1999/xlink" xmlns="http://www.w3.org/2000/svg" version="1.1"><g transform="translate(-220.55845,-169.04721)"><g stroke-miterlimit="10" stroke-width="9.26042" stroke="#ff0000" fill="none"><path d="M224.3793,181.87744c0.85608,0.5051 0.85603,0.50512 0.62994,-0.28319c-0.79801,-2.78251 0.16781,-4.27988 3.23752,-5.01933c2.76121,-0.66514 4.05313,-0.20979 4.76974,1.68155c0.42484,1.12129 0.31748,1.77583 -0.46922,2.86184c-0.65867,0.90927 -0.70952,1.11034 -0.48731,1.91513c0.29429,1.06584 0.97372,1.56593 2.51922,1.85467c0.62497,0.11675 1.53642,0.51769 2.02572,0.8909c0.75189,0.57349 1.03775,0.65148 1.8464,0.50539c1.49407,-0.26992 1.69417,-0.46366 2.19056,-2.1208c0.47522,-1.58646 1.65193,-3.23598 2.30839,-3.23598c0.20105,0 0.57755,-0.11327 0.83612,-0.25166c0.43395,-0.23224 0.44226,-0.31798 0.10852,-1.11673c-0.58148,-1.39168 -0.45268,-1.8254 0.94723,-3.18895c2.44649,-2.38296 3.03033,-2.69286 5.07463,-2.69286c1.78355,0 1.82046,0.01333 2.68562,0.971c0.56371,0.62396 0.93931,1.34081 1.05162,2.00556c0.13113,0.77619 0.34391,1.12211 0.85214,1.38493c0.37253,0.19265 0.89422,0.7525 1.15911,1.24437c0.26489,0.49188 0.54046,0.894 0.61236,0.89349c0.0719,-0.00052 0.48008,-0.21431 0.90744,-0.47491"></path></g></g></svg>