<svg version="1.1" xmlns="http://www.w3.org/2000/svg" xmlns:xlink="http://www.w3.org/1999/xlink" width="26.78642" height="34.45591" viewBox="0,0,26.78642,34.45591"><g transform="translate(-231.1856,-154.26782)"><g fill="none" stroke="#ff0000" stroke-width="9.26042" stroke-miterlimit="10"><path d="M238.18571,184.80085c0.8007,-0.50204 1.8286,-1.29795 2.2846,-1.76837c0.7403,-0.76357 0.8142,-0.96618 0.6904,-1.88929c-0.1783,-1.32885 -0.691,-1.87565 -2.0893,-2.22777c-1.0558,-0.26583 -2.8972,-1.24996 -3.1729,-1.69602c-0.068,-0.10946 -0.018,-0.77764 0.1105,-1.48467c0.2033,-1.11844 0.1647,-1.40289 -0.2976,-2.18643c-0.5314,-0.9006 -0.5314,-0.9002 0.1044,-0.9002c0.3496,0 0.9516,-0.27167 1.3374,-0.60358c0.5884,-0.50642 0.6974,-0.78818 0.6774,-1.75028c-0.019,-0.92465 0.059,-1.14618 0.4036,-1.14618c0.2353,0 0.7191,-0.22917 1.0749,-0.50902c0.3558,-0.27984 1.1522,-0.73236 1.7699,-1.00562c1.1274,-0.49868 2.1503,-1.51452 2.1503,-2.13527c0,-0.18287 0.224,-0.45251 0.4976,-0.59893c1.1598,-0.62069 1.584,-2.63524 0.8527,-4.04937c-0.3965,-0.76677 -0.3948,-0.77193 0.1876,-0.60926c2.4831,0.69349 5.4755,0.18268 6.5732,-1.1219c0.338,-0.40164 0.6773,-0.61126 0.7633,-0.4718c0.085,0.13802 0.6425,0.25114 1.2381,0.25114c0.8925,0 1.3552,0.20062 2.634,1.14205c1.5514,1.14201 1.5514,1.14163 -0.015,2.56212c-0.8783,0.79651 -2.097,1.62056 -2.7745,1.87586c-0.7345,0.27674 -1.4588,0.78409 -1.8474,1.29346c-0.3515,0.4609 -0.9417,0.95773 -1.3116,1.10381c-0.3699,0.14609 -0.8413,0.36605 -1.0475,0.48885c-0.2063,0.12281 -0.7976,0.40389 -1.3136,0.62477c-0.7065,0.30245 -1.0773,0.69469 -1.5022,1.58957c-0.3449,0.72655 -0.7572,1.22369 -1.0615,1.27899c-0.6278,0.11407 -1.5667,0.96561 -2.0159,1.82883c-0.1898,0.36485 -0.7425,0.90899 -1.2283,1.20923c-0.9752,0.60274 -2.1286,2.35637 -2.1286,3.23598c0,1.00452 0.8027,1.96276 2.4531,2.92798c1.4229,0.83214 1.5593,0.97548 1.1436,1.20406c-0.2595,0.14271 -1.0062,0.7778 -1.6593,1.41129c-1.378,1.33652 -1.4527,1.79775 -0.6067,3.75429"></path></g></g></svg>