<svg version="1.1" xmlns="http://www.w3.org/2000/svg" xmlns:xlink="http://www.w3.org/1999/xlink" width="70.17543" height="17.07897" viewBox="0,0,70.17543,17.07897"><g transform="translate(-207.96482,-170.39491)"><g fill="none" stroke="#ff0000" stroke-width="9.26042" stroke-miterlimit="10"><path d="M273.51004,174.933c-2.15863,0.43715 -3.94965,1.21915 -7.46466,3.2582c-1.72381,0.99999 -3.80015,1.37139 -6.78512,1.21387c-2.23279,-0.11783 -2.80767,-0.0513 -5.37538,0.62477c-3.28157,0.86396 -6.79873,1.18118 -15.79542,1.42369c-4.84381,0.13057 -5.75539,0.0974 -6.25336,-0.22893c-0.86273,-0.56528 -3.27839,-1.0965 -5.83117,-1.28209c-1.93426,-0.14062 -2.48526,-0.0867 -3.8747,0.3793c-1.6175,0.54254 -2.51477,4.50411 -4.42402,2.73265c-4.5598,-4.23073 -2.37691,-0.32453 -5.11118,-0.20648"></path></g></g></svg>