<svg version="1.1" xmlns="http://www.w3.org/2000/svg" xmlns:xlink="http://www.w3.org/1999/xlink" width="56.64765" height="43.44991" viewBox="0,0,56.64765,43.44991"><g transform="translate(-214.66525,-154.65309)"><g fill="none" stroke="#ff0000" stroke-width="9.26042" stroke-miterlimit="10"><path d="M217.44506,194.40009c1.04572,-0.78503 2.17014,-3.28374 2.02158,-4.49282c-0.0624,-0.50784 0.00567,-1.2004 0.1509,-1.53896c0.14558,-0.33856 0.23558,-1.21532 0.19998,-1.94867c-0.10472,-2.1563 1.0695,-3.21394 4.1889,-3.77393c1.34335,-0.24115 1.78635,-0.4923 2.87476,-1.62866c1.16652,-1.21791 1.45061,-1.36438 3.03702,-1.56251c1.44637,-0.18064 1.88023,-0.37043 2.50011,-1.09616c0.4125,-0.48294 1.06658,-1.02529 1.45365,-1.20496c0.89574,-0.4157 4.03091,-0.42353 5.17281,-0.01268c0.83167,0.29924 0.91922,0.2548 1.83555,-0.94348c0.7476,-0.97767 0.92288,-1.4083 0.786,-1.93022c-0.0969,-0.36947 -0.23312,-1.60703 -0.30282,-2.74965c-0.0697,-1.14264 -0.23216,-2.07718 -0.36071,-2.07718c-0.52929,0 -1.4593,-1.65877 -1.449,-2.58424c0.0167,-1.50575 0.58412,-4.12787 1.00562,-4.64679c0.5257,-0.64721 3.24254,-1.19372 4.64623,-0.93457c0.88527,0.16343 1.423,0.52494 2.32234,1.56059c1.17043,1.34781 1.1707,1.3481 2.38538,0.59102c0.87397,-0.54472 1.62055,-0.75708 2.66134,-0.75708c1.50689,0 1.60681,-0.05739 4.19354,-2.39274c0.88563,-0.79956 1.33873,-0.9931 2.32492,-0.9931c0.6737,0 1.53215,0.19594 1.9079,0.43516c0.63167,0.40214 0.72714,0.3788 1.264,-0.30791c0.73222,-0.93665 2.04535,-0.98338 3.35432,-0.11966c0.94405,0.62293 0.94421,0.62302 1.30896,-0.4517"></path></g></g></svg>