<svg version="1.1" xmlns="http://www.w3.org/2000/svg" xmlns:xlink="http://www.w3.org/1999/xlink" width="52.35773" height="64.82032" viewBox="0,0,52.35773,64.82032"><g transform="translate(-220.14489,-145.24578)"><g fill="none" stroke="#ff0000" stroke-width="9.26042" stroke-miterlimit="10"><path d="M225.16628,205.43589c-0.0289,-3.7397 -0.02881,-3.73944 -1.64381,-5.02652c-1.74301,-1.38922 -2.4838,-2.72577 -2.76442,-4.98682c-0.19587,-1.57785 0.28276,-2.48847 1.53595,-2.92319c1.31611,-0.45654 2.01067,-1.09139 2.4811,-2.26656c0.50744,-1.26735 5.55495,-7.90295 6.28279,-8.25942c0.30383,-0.14883 1.01992,-0.2706 1.59132,-0.2706c0.89351,0 1.18485,0.17333 2.0832,1.24004c1.04435,1.24022 1.04435,1.24005 1.93329,0.48223c0.54641,-0.46576 1.50471,-0.88124 2.48604,-1.07804c2.34256,-0.46981 3.54326,-1.53067 4.48142,-3.95965c0.45496,-1.17784 0.749,-2.41027 0.75832,-3.13979c0.00932,-0.66055 0.31735,-2.26318 0.69372,-3.56121c0.76923,-2.65226 1.0147,-5.816 0.51211,-6.59611c-0.16688,-0.25901 -0.6567,-0.62129 -1.08873,-0.80496c-1.0024,-0.42619 -2.20701,-2.17658 -2.20701,-3.20682c0,-0.43279 0.25246,-1.21381 0.56124,-1.73531c0.30877,-0.52149 0.71917,-1.43394 0.91196,-2.02823c0.54287,-1.67396 1.18214,-2.33421 2.26005,-2.33421c0.93695,0 0.93602,-0.0006 0.8922,-2.20885c-0.03636,-1.83236 0.04578,-2.39476 0.48274,-3.30612c0.28985,-0.60407 0.72029,-1.23215 0.95681,-1.39519c1.21067,-0.83467 3.7863,0.32363 5.58861,2.51295c0.57681,0.70074 1.44178,1.50136 1.92229,1.77937c0.87355,0.50548 0.87374,0.50586 1.45344,-0.67711c0.76541,-1.56192 1.18615,-1.80978 3.08,-1.80978c1.16629,0 1.80967,0.16074 2.40456,0.60078c0.44666,0.33038 1.38762,0.94547 2.0914,1.36663c2.1259,1.27229 2.33315,1.66005 2.33315,4.3699c0,1.64881 0.21219,3.36651 0.72653,5.87805"></path></g></g></svg>