<svg version="1.1" xmlns="http://www.w3.org/2000/svg" xmlns:xlink="http://www.w3.org/1999/xlink" width="66.31873" height="58.03864" viewBox="0,0,66.31873,58.03864"><g transform="translate(-211.48202,-143.32158)"><g fill="none" stroke="#ff0000" stroke-width="9.26042" stroke-miterlimit="10"><path d="M273.17811,179.16934c-0.20499,3.58052 -0.46181,4.52387 -1.67536,6.14588c-1.28554,1.71822 -4.95101,4.37247 -6.40491,4.63795c-1.03794,0.18953 -1.083,0.32445 -0.71921,2.15905c0.16379,0.82596 -0.57891,2.12131 -1.21625,2.12131c-0.20063,0 -0.3399,0.24703 -0.3399,0.60255c0,0.36618 -0.28807,0.85686 -0.73349,1.25005c-0.62986,0.55599 -0.95753,0.64689 -2.32364,0.64389c-2.08264,-0.005 -2.76034,-0.36528 -2.85319,-1.51722c-0.0713,-0.88432 -0.07101,-0.88431 -1.45518,-0.77928c-1.03388,0.0785 -1.65818,-0.02203 -2.466,-0.39687c-0.59485,-0.27603 -1.40877,-0.57753 -1.80886,-0.66973c-0.40009,-0.0922 -1.12264,-0.49732 -1.60591,-0.9002c-0.87865,-0.7325 -0.8788,-0.73207 -1.64926,-0.23255c-1.45525,0.9435 -4.05811,0.60565 -6.86993,-0.89142c-0.37107,-0.19756 -0.85366,-0.36862 -1.07242,-0.37982c-0.21875,-0.0112 -1.04163,-0.37667 -1.82807,-0.81235c-1.31651,-0.72935 -1.50033,-0.94018 -2.32315,-2.65979c-0.49179,-1.02718 -0.89409,-2.07538 -0.89409,-2.32905c0,-0.90732 -0.46177,-1.42834 -1.266,-1.42834c-1.54069,0 -2.54729,-1.42886 -2.54729,-3.61683c0,-1.54289 0.64592,-2.24258 1.86945,-2.0252c0.87134,0.15481 0.87152,0.15517 0.21576,-0.46457c-0.69432,-0.65618 -2.00748,-1.14005 -3.10245,-1.14205c-0.86675,-0.002 -2.77179,-1.06016 -3.64778,-2.02675c-0.38322,-0.42286 -1.01789,-0.94476 -1.41034,-1.15962c-0.39246,-0.21486 -1.26004,-0.82378 -1.92808,-1.35289c-0.66804,-0.52911 -1.37899,-0.9617 -1.5798,-0.9617c-0.2008,0 -0.83465,-0.21409 -1.40837,-0.47542c-0.57373,-0.26132 -1.52544,-0.55476 -2.11527,-0.65216c-1.18729,-0.19605 -1.90689,-0.71992 -1.90689,-1.38855c0,-0.24108 0.48258,-1.05994 1.07241,-1.81952c0.58983,-0.75958 1.07242,-1.45494 1.07242,-1.54564c0,-0.0907 -0.21421,-0.45087 -0.47635,-0.80047c-0.30727,-0.40979 -0.47685,-1.01435 -0.47685,-1.70119c0,-0.90658 0.12553,-1.18099 0.84237,-1.84123c0.46331,-0.42675 0.91909,-0.7778 1.0128,-0.7798c0.09371,-0.002 0.3285,-0.10853 0.52168,-0.23668c0.29643,-0.19666 0.26338,-0.33127 -0.21281,-0.86299c-0.38195,-0.42651 -0.59707,-1.01629 -0.66552,-1.82573c-0.0877,-1.03724 0.01087,-1.3804 0.74186,-2.58951c0.46354,-0.76674 1.19458,-1.59283 1.62512,-1.83606c0.73146,-0.41323 0.78141,-0.52549 0.76502,-1.71308c-0.01601,-1.15539 -0.10172,-1.34668 -0.94285,-2.10943c-0.5088,-0.46139 -1.19778,-0.90542 -1.53152,-0.98702c-0.33375,-0.0816 -1.00898,-0.55091 -1.50049,-1.04283c-0.82878,-0.82942 -0.89408,-0.99795 -0.89408,-2.3213"></path></g></g></svg>