<svg version="1.1" xmlns="http://www.w3.org/2000/svg" xmlns:xlink="http://www.w3.org/1999/xlink" width="31.09595" height="22.9012" viewBox="0,0,31.09595,22.9012"><g transform="translate(-221.64681,-163.47958)"><g fill="none" stroke="#ff0000" stroke-width="9.26042" stroke-miterlimit="10"><path d="M250.52929,181.84669c-1.36298,0.74183 -2.41876,0.8035 -4.62711,0.27027c-0.825,-0.1992 -1.92084,-0.36439 -2.43499,-0.36639c-0.51415,-0.002 -1.52664,-0.22891 -2.24999,-0.50384c-1.61366,-0.6133 -3.00263,-0.62726 -4.30258,-0.0434c-0.94757,0.42514 -1.00525,0.42515 -1.43712,-0.007c-0.25672,-0.25672 -0.81532,-0.4501 -1.29967,-0.4501c-1.20859,0 -2.26466,-1.26068 -2.65772,-3.17242c-0.46463,-2.25988 -1.07088,-3.24507 -3.23546,-5.25601c-1.10402,-1.02566 -2.00763,-2.03057 -2.00763,-2.23294c0,-0.20237 0.52187,-0.83959 1.15962,-1.41593c1.57833,-1.42635 1.84072,-2.16524 1.84072,-5.18935"></path></g></g></svg>