<svg version="1.1" xmlns="http://www.w3.org/2000/svg" xmlns:xlink="http://www.w3.org/1999/xlink" width="53.05518" height="126.95594" viewBox="0,0,53.05518,126.95594"><g transform="translate(-212.43956,-127.24858)"><g fill="none" stroke-miterlimit="10"><path d="M261.65963,130.07628c-0.23658,0.34973 -0.54022,1.16071 -0.67459,1.80252c-0.19765,0.9442 -0.74058,1.61857 -2.84558,3.53313c-1.43082,1.30137 -3.4648,2.95227 -4.51918,3.66835c-1.69963,1.15431 -2.39806,2.07223 -1.53017,2.01049c0.1665,-0.01184 0.7911,0.24772 1.38806,0.57645c1.73047,0.95292 1.67785,2.10154 -0.20467,4.4952c-0.8333,1.05955 -1.95936,2.20468 -2.50288,2.54473c-0.65495,0.40974 -1.08399,0.987 -1.27126,1.71133c-0.15555,0.60168 -0.62187,1.31106 -1.03778,1.57832c-1.84207,1.18369 -2.47511,1.98098 -2.36155,2.97384c0.06118,0.53492 -0.14871,1.51551 -0.46618,2.17891c-0.42586,0.88987 -0.5512,1.92852 -0.47758,3.9612c0.10625,2.93307 -0.39918,4.46098 -2.41371,7.29707c-1.40368,1.97612 -1.91462,3.23202 -3.51578,8.63587c-1.52466,5.14568 -1.53916,5.23978 -1.12754,7.46639c0.22925,1.24027 0.66367,3.00083 0.9654,3.91243c0.44877,1.3559 0.47902,1.83114 0.16624,2.61243c-0.3783,0.94496 -0.36974,0.96286 0.81828,1.70603c1.72747,1.08066 1.68294,1.78864 -0.31711,5.04152c-0.60804,0.98891 -1.331,2.50183 -1.60723,3.36205c-0.78533,2.44561 -1.09987,2.87001 -2.94529,3.97563c-1.72802,1.03534 -1.72801,1.03544 -1.40923,3.88036c0.175,1.56473 0.20939,3.31941 0.07496,3.89926c-0.27877,1.20245 -2.17678,3.15847 -3.13075,3.22633c-0.34977,0.02488 -1.17621,0.4324 -1.83626,0.9055c-0.77047,0.55226 -1.59641,0.89128 -2.30787,0.94607c-1.34119,0.10375 -3.2106,-0.58808 -4.03845,-1.49581c-0.33429,-0.36655 -1.14874,-0.90535 -1.80962,-1.19741c-0.66088,-0.29206 -1.53786,-0.84034 -1.94866,-1.21823c-0.52832,-0.48599 -1.0272,-0.66733 -1.70386,-0.6192c-0.52614,0.03743 -1.61461,-0.02193 -2.41953,-0.1318" stroke="#ff0000" stroke-width="9.26042"></path><path d="M235.37133,251.70453c0,-1.38071 1.11929,-2.5 2.5,-2.5c1.38071,0 2.5,1.11929 2.5,2.5c0,1.38071 -1.11929,2.5 -2.5,2.5c-1.38071,0 -2.5,-1.11929 -2.5,-2.5z" stroke="none" stroke-width="0.5"></path></g></g></svg>