<svg version="1.1" xmlns="http://www.w3.org/2000/svg" xmlns:xlink="http://www.w3.org/1999/xlink" width="40.34751" height="14.18898" viewBox="0,0,40.34751,14.18898"><g transform="translate(-219.76527,-172.90551)"><g stroke="none" stroke-width="0" stroke-miterlimit="10"><path d="M226.87751,187.08334v-14.16667h26.24499v14.16667z" fill="#b3b3b3"></path><path d="M219.76527,180c0,-3.91817 3.17631,-7.09449 7.09449,-7.09449c3.91817,0 7.09449,3.17632 7.09449,7.09449c0,3.91817 -3.17631,7.09449 -7.09449,7.09449c-3.91817,0 -7.09449,-3.17632 -7.09449,-7.09449z" fill="#b3b3b3"></path><path d="M245.92381,180c0,-3.91817 3.17631,-7.09449 7.09449,-7.09449c3.91817,0 7.09449,3.17632 7.09449,7.09449c0,3.91817 -3.17631,7.09449 -7.09449,7.09449c-3.91817,0 -7.09449,-3.17632 -7.09449,-7.09449z" fill="#b3b3b3"></path><path d="M221.21951,180c0,-3.03083 2.45697,-5.4878 5.4878,-5.4878c3.03083,0 5.4878,2.45697 5.4878,5.4878c0,3.03083 -2.45697,5.4878 -5.4878,5.4878c-3.03083,0 -5.4878,-2.45697 -5.4878,-5.4878z" fill="#000000"></path></g></g></svg>