<svg version="1.1" xmlns="http://www.w3.org/2000/svg" xmlns:xlink="http://www.w3.org/1999/xlink" width="111.63378" height="111.63378" viewBox="0,0,111.63378,111.63378"><defs><radialGradient cx="240" cy="180" r="55.81689" gradientUnits="userSpaceOnUse" id="color-1"><stop offset="0" stop-color="#c71686" stop-opacity="0.10196"></stop><stop offset="1" stop-color="#c71686" stop-opacity="0"></stop></radialGradient></defs><g transform="translate(-184.18311,-124.18311)"><g stroke-miterlimit="10"><path d="M184.18311,180c0,-30.82682 24.99007,-55.81689 55.81689,-55.81689c30.82682,0 55.81689,24.99007 55.81689,55.81689c0,30.82682 -24.99007,55.81689 -55.81689,55.81689c-30.82682,0 -55.81689,-24.99007 -55.81689,-55.81689z" fill="url(#color-1)" stroke="none" stroke-width="0"></path><path d="M225.5684,180.00002c0,-7.97036 6.46125,-14.43161 14.43161,-14.43161c7.97036,0 14.43161,6.46125 14.43161,14.43161c0,7.97036 -6.46125,14.43161 -14.43161,14.43161c-7.97036,0 -14.43161,-6.46125 -14.43161,-14.43161z" fill="#c71585" stroke="#800000" stroke-width="2"></path><text transform="translate(231.25243,186.30763) scale(0.5,0.5)" font-size="40" xml:space="preserve" fill="#ffffff" stroke="#ffffff" stroke-width="1" font-family="Sans Serif" font-weight="normal" text-anchor="start"><tspan x="0" dy="0">6</tspan></text><path d="M241.40681,177.52068v-2.13859h7.89633v2.13859z" fill="#ffffff" stroke="none" stroke-width="0"></path></g></g></svg>