<svg version="1.1" xmlns="http://www.w3.org/2000/svg" xmlns:xlink="http://www.w3.org/1999/xlink" width="58.59338" height="148.66517" viewBox="0,0,58.59338,148.66517"><g transform="translate(-217.96944,-106.3028)"><g fill="none" stroke="#ff0000" stroke-miterlimit="10"><path d="M227.38621,193.11963c0.26193,0.35285 0.33159,0.73716 0.44662,2.46545c0.16304,2.44957 0.03313,3.35086 -0.73289,5.08328c-0.47748,1.07992 -0.55134,1.4238 -0.49328,2.2961c0.0978,1.46943 -0.26158,3.99255 -0.65605,4.60623c-0.18141,0.28217 -0.48355,0.52341 -0.6714,0.53591c-0.18791,0.01251 -0.5609,0.20321 -0.82887,0.42358c-0.59107,0.4862 -0.95359,0.51502 -1.54397,0.12407c-0.62619,-0.41469 -1.08506,-1.21422 -1.50998,-2.63114c-0.30065,-1.00275 -0.37503,-1.58354 -0.42831,-3.35066c-0.05401,-1.79368 -0.10798,-2.20889 -0.33717,-2.58082c-0.19661,-0.31935 -0.28311,-0.77607 -0.3081,-1.63329c-0.03441,-1.17063 -0.02309,-1.2018 0.70232,-1.94312c0.40533,-0.41438 1.15,-1.2327 1.65484,-1.81876c0.87578,-1.01665 0.98023,-1.07399 2.27866,-1.2427c0.74852,-0.09725 1.53111,-0.30608 1.73909,-0.46437c0.116,-0.08825 0.20615,-0.1403 0.28685,-0.15254c0.13455,-0.02049 0.24298,0.06911 0.40164,0.28281z" stroke-width="6"></path><path d="M269.99727,249.90097c-1.86991,0.80219 -4.52056,1.14722 -5.80475,0.36921l-0.00052,0.00003c-2.94444,-1.78383 -2.90493,-1.77271 -4.4075,-1.2159c-0.75705,0.28053 -1.56467,0.52255 -1.79531,0.53894c-0.67646,0.04704 -1.8175,-1.31093 -2.35141,-2.7987c-0.3096,-0.86262 -0.8086,-1.61264 -1.33202,-2.0015c-0.97565,-0.7249 -2.54797,-3.76599 -2.62832,-5.08353c-0.03048,-0.50009 -0.28375,-1.53161 -0.56262,-2.29204c-0.75742,-2.06556 -0.57126,-3.29998 0.95254,-6.31314c1.30882,-2.58797 1.9353,-4.68091 1.84374,-6.18795c-0.14826,-2.44023 1.67872,-5.74616 3.45453,-6.26556c0.96632,-0.28265 1.07081,-0.77902 0.85839,-4.27534c-0.20066,-3.30278 -0.53277,-4.39482 -1.74685,-5.6683c-0.52376,-0.54938 -1.19296,-1.38788 -1.48708,-1.86312c-1.1695,-1.89015 -2.01657,-2.78356 -3.47758,-3.66801c-1.21914,-0.73809 -1.79878,-0.90828 -2.87506,-0.84289c-2.10742,0.12803 -3.03256,-0.52828 -5.10166,-3.62155c-1.43282,-2.14201 -2.43678,-2.7881 -4.29084,-2.75948c-1.43505,0.02219 -2.46739,-0.85247 -2.78378,-2.35912c-0.12183,-0.57921 -0.64752,-2.43676 -1.16833,-4.12826c-1.56529,-5.08348 -1.40616,-6.19421 1.25948,-8.80846c1.20432,-1.18107 1.21652,-1.21381 1.2918,-3.32156c0.10879,-3.04569 -0.0872,-4.74768 -0.86826,-7.54248c-1.10368,-3.94896 -0.53027,-6.42053 1.85473,-7.99655c0.67679,-0.44724 1.85628,-1.51772 2.6215,-2.37864c1.59227,-1.79148 2.9723,-2.31206 4.902,-1.85028c1.34744,0.32248 4.52368,-0.28909 5.41546,-1.04261c0.31215,-0.26376 0.8207,-1.00943 1.13018,-1.65735c0.74535,-1.56052 1.72118,-2.51124 2.63554,-2.56679c0.723,-0.04392 0.74217,-0.08922 0.65257,-1.56385c-0.08178,-1.34602 0.00174,-1.6345 0.73914,-2.52896c0.93041,-1.12974 1.99142,-1.55627 3.11698,-1.25546c0.70463,0.18834 2.94198,1.33278 4.8055,2.45801c1.33984,0.80898 1.90143,0.61005 2.00563,-0.70894c0.13514,-1.70984 1.38023,-4.81606 2.26242,-5.64473c0.42964,-0.40367 1.89376,-1.7515 3.25346,-2.99491c2.455,-2.24495 3.92247,-4.24346 4.1429,-5.64232c0.09254,-0.58671 -0.09827,-0.92517 -0.97555,-1.72839c-3.11111,-2.85036 -4.51569,-4.20973 -5.80678,-5.61998c-0.78206,-0.8543 -2.04475,-2.03091 -2.80632,-2.61507c-1.65156,-1.26672 -2.01444,-1.94949 -2.14082,-4.02987c-0.10686,-1.75885 0.1628,-3.20643 0.83226,-4.46658c0.32477,-0.61109 0.38718,-1.09568 0.22309,-1.73489c-0.15766,-0.61413 -0.08913,-1.29536 0.22848,-2.21483c0.79541,-2.31564 1.90279,-2.81918 4.3762,-1.98967c1.29984,0.43592 1.29981,0.43552 2.34454,-1.03413" stroke-width="9.26042"></path></g></g></svg>