<svg version="1.1" xmlns="http://www.w3.org/2000/svg" xmlns:xlink="http://www.w3.org/1999/xlink" width="61.58005" height="64.00122" viewBox="0,0,61.58005,64.00122"><g transform="translate(-208.39985,-145.15399)"><g fill="none" stroke="#ff0000" stroke-width="9.26042" stroke-miterlimit="10"><path d="M260.43366,148.71267c0.71605,0.59603 1.76904,1.31404 2.34011,1.59552c1.88884,0.93101 2.4831,1.69761 2.57592,3.32291c0.04974,0.87094 -0.06292,1.7034 -0.28705,2.11584c-0.42269,0.7778 -1.6677,1.53192 -2.68361,1.62559c-0.33026,0.03052 -0.50345,0.04731 -0.51525,0.07742l-0.00049,0.00061c-0.00001,0.00113 0.00016,0.002 0.00013,0.00226l0.00003,0.00059c0.00006,0.00113 0.00009,0.002 0.00013,0.00226l0.00003,0.00059c0.00964,0.0331 0.19143,0.08331 0.54923,0.18215c1.07837,0.29786 1.6496,0.93725 2.19025,2.45169c0.48746,1.36544 0.51701,3.14749 0.07101,4.27087c-0.32848,0.8274 -1.56688,1.46447 -3.32775,1.71211c-1.84247,0.25911 -2.76572,-0.04303 -3.23069,-1.05681c-0.33428,-0.72882 -0.39924,-0.73542 -1.29705,-0.13476c-1.67787,1.12254 -4.49938,0.44541 -5.01236,-1.20308c-0.3518,-1.13052 -0.84783,-0.99002 -2.33083,0.66074c-1.45233,1.61664 -2.79459,2.3648 -4.78112,2.66495c-3.5958,0.54329 -4.19873,0.74272 -4.244,1.40233c-0.10535,1.53707 -1.9139,2.18166 -7.25305,2.58616c-2.70775,0.20511 -2.70755,0.20507 -3.49795,1.3691c-0.43472,0.64022 -0.8271,1.49063 -0.87193,1.8895c-0.04483,0.39887 -0.19027,1.24087 -0.32328,1.87105c-0.22787,1.07969 -0.30314,1.15396 -1.30451,1.29356c-1.06268,0.14808 -1.06277,0.148 -0.11593,1.2602c0.87732,1.03053 0.95415,1.24819 1.04722,2.96563c0.07618,1.40419 -0.00838,2.03133 -0.34764,2.58669c-0.2463,0.40318 -0.43743,0.9616 -0.42448,1.24097c0.04424,0.95887 -0.6454,2.22009 -1.65533,3.02696c-0.55603,0.44423 -1.45103,1.26214 -1.98889,1.81757c-1.06258,1.09729 -4.10679,2.91548 -5.94786,3.55228c-0.91426,0.31624 -1.32247,0.67662 -1.96666,1.73558c-0.44713,0.73502 -0.80749,1.43165 -0.80082,1.54851c0.00667,0.11686 -0.43603,1.20304 -0.98382,2.41359c-0.94918,2.09759 -0.99574,2.3306 -0.98534,4.9612"></path></g></g></svg>