<svg version="1.1" xmlns="http://www.w3.org/2000/svg" xmlns:xlink="http://www.w3.org/1999/xlink" width="93.13344" height="73.88252" viewBox="0,0,93.13344,73.88252"><g transform="translate(-187.14105,-135.36605)"><g fill="none" stroke="#ff0000" stroke-width="9.26042" stroke-miterlimit="10"><path d="M193.78198,205.15447c-0.29319,0.46637 -1.33454,0.67437 -1.77362,0.35394c-0.64873,-0.47344 -0.76352,-2.21445 -0.2371,-3.59755c1.10175,-2.8947 5.05196,-6.61381 8.14601,-7.6695c2.81677,-0.9611 8.5338,-4.66755 11.1651,-7.23839c0.82059,-0.80174 1.62113,-1.30247 2.76262,-1.7282c1.46096,-0.54487 1.65401,-0.69675 2.12103,-1.67221c0.78758,-1.645 1.91788,-2.53 4.24821,-3.32533c3.31719,-1.13212 3.32704,-1.14128 4.17874,-3.8892c0.70753,-2.28261 0.7305,-2.51748 0.4131,-4.25643c-0.18477,-1.01226 -0.36827,-2.41505 -0.40807,-3.11714c-0.07226,-1.27651 -0.07266,-1.27643 -1.46237,-0.94027c-1.15855,0.28021 -1.60451,0.25883 -2.68256,-0.12979c-1.27819,-0.46077 -1.29687,-0.48133 -1.6207,-1.78797c-0.36652,-1.47879 -0.11449,-2.44742 1.26244,-4.85006c1.42126,-2.47999 3.61443,-3.52136 5.04798,-2.39703c0.3998,0.31356 0.87177,0.7746 1.04864,1.02453c0.56553,0.79913 1.5049,3.39861 1.47717,4.0876c-0.01981,0.49239 0.06384,0.64871 0.32062,0.5994c0.48285,-0.09273 0.72469,-0.924 1.08741,-3.74043c0.17217,-1.33679 0.47176,-2.65701 0.6656,-2.9339c0.40053,-0.57214 2.49841,-1.61632 3.73786,-1.86055c0.9471,-0.18602 1.41169,-0.83676 1.85851,-2.60125c0.15802,-0.62398 0.38365,-1.22898 0.50121,-1.34405c0.11755,-0.11507 0.38667,-0.69527 0.59834,-1.28909c0.21168,-0.59382 0.60728,-1.18931 0.87936,-1.32332c0.33915,-0.16702 0.58872,-0.71524 0.79366,-1.74376c0.35286,-1.77091 0.98775,-3.1051 1.52651,-3.20808c0.32283,-0.0617 0.32969,-0.29625 0.04039,-1.44013c-0.4704,-1.85994 -0.40248,-2.54151 0.31402,-3.14005c1.41423,-1.18146 3.16805,-0.96623 5.65546,0.69355c0.92287,0.6158 1.81758,1.09291 1.98797,1.06019c0.51574,-0.09905 1.53213,0.85527 1.6688,1.56694c0.07609,0.39619 0.25647,0.64427 0.44278,0.60849c0.17289,-0.0332 0.64344,0.16104 1.04578,0.43186c1.43603,0.96661 1.41687,3.95642 -0.03308,5.16772c-0.34166,0.28543 -0.83521,0.55997 -1.09693,0.61023c-0.36897,0.07086 -0.4453,0.25155 -0.3391,0.80452c0.18115,0.94322 -0.32871,1.96004 -1.37347,2.73802c-0.72656,0.54102 -0.8032,0.69385 -0.52811,1.05367c0.51216,0.66989 1.19414,3.38404 1.1252,4.47794c-0.05724,0.90812 0.02323,1.10106 0.86883,2.08334c1.28482,1.49251 1.91896,1.47216 4.49013,-0.14321c1.41159,-0.88686 2.28317,-1.64854 3.0652,-2.67882c1.27667,-1.68189 2.02113,-2.12308 4.33802,-2.5701c1.37508,-0.26511 2.0263,-0.24569 3.38972,0.10174c0.92821,0.23652 2.01656,0.4505 2.41856,0.4755c0.402,0.025 1.18324,0.187 1.73609,0.3601c0.75248,0.23563 1.31415,0.22656 2.23416,-0.03643c1.11139,-0.31769 1.30147,-0.47778 1.98432,-1.67156c0.46962,-0.82101 1.08406,-1.50241 1.62526,-1.80265c0.85439,-0.47399 0.87578,-0.52913 1.18063,-3.02961"></path></g></g></svg>