<svg version="1.1" xmlns="http://www.w3.org/2000/svg" xmlns:xlink="http://www.w3.org/1999/xlink" width="45.30907" height="40.59598" viewBox="0,0,45.30907,40.59598"><g transform="translate(-222.23972,-166.03981)"><g fill="none" stroke-miterlimit="10"><path d="M265.62002,170.24916c-1.22616,0.56184 -3.02371,1.13893 -4.24987,1.36478c-9.10731,1.67748 -11.28871,2.4885 -12.27677,4.56354c-0.3078,0.64641 -0.76526,1.44356 -1.01648,1.77147c-0.32151,0.41968 -0.45682,1.02617 -0.45682,2.04846c0,2.42663 -0.88138,2.94626 -6.1252,3.61114c-0.6875,0.0872 -1.86408,0.32873 -2.61483,0.53641c-2.25761,0.62453 -5.54173,-0.058 -7.26726,-1.50999c-0.89724,-0.75497 -2.65536,-1.57099 -3.87831,-1.80041c-0.47535,-0.0892 -0.86455,-0.27257 -0.86455,-0.40721c0,-0.13464 0.49187,-0.82536 1.09296,-1.53479c1.34586,-1.58842 1.761,-2.39339 2.15955,-4.18992" stroke="#ff0000" stroke-width="9.26042"></path><path d="M242.7483,204.13579c0,-1.38071 1.11929,-2.5 2.5,-2.5c1.38071,0 2.5,1.11929 2.5,2.5c0,1.38071 -1.11929,2.5 -2.5,2.5c-1.38071,0 -2.5,-1.11929 -2.5,-2.5z" stroke="none" stroke-width="0.5"></path></g></g></svg>