<svg version="1.1" xmlns="http://www.w3.org/2000/svg" xmlns:xlink="http://www.w3.org/1999/xlink" width="48.72226" height="37.33229" viewBox="0,0,48.72226,37.33229"><g transform="translate(-218.30704,-156.08834)"><g fill="none" stroke="#ff0000" stroke-width="9.26042" stroke-miterlimit="10"><path d="M240.60041,189.81362c-0.68089,-0.56265 -1.36566,-1.0232 -1.52187,-1.0232c-0.15621,0 -1.21387,-0.61834 -2.35025,-1.37459c-1.13638,-0.75625 -2.16851,-1.37511 -2.2934,-1.37511c-0.12489,0 -1.76379,-0.75483 -3.64215,-1.67742c-3.32244,-1.63188 -3.75891,-1.95347 -6.12366,-4.51031c-0.34647,-0.37461 -0.80865,-0.56224 -1.38441,-0.56224c-0.78459,0 -0.84754,-0.0523 -0.68006,-0.56276c0.1015,-0.30938 0.23794,-1.03583 0.30334,-1.61437c0.10179,-0.90027 0.0231,-1.1405 -0.54622,-1.66812c-0.66519,-0.61648 -0.66539,-0.61645 1.40508,-1.69808c1.69935,-0.88775 2.23265,-1.31767 2.97346,-2.39676c0.86506,-1.26007 0.91463,-1.45044 1.19321,-4.58266c0.19402,-2.18149 0.20834,-3.42241 0.0429,-3.73156c-0.37741,-0.70522 -0.33106,-0.74569 0.85421,-0.74569c1.01654,0 1.18875,-0.0999 2.20814,-1.28313c1.0715,-1.24368 1.12416,-1.27176 1.70997,-0.9033c0.33243,0.2091 1.0264,0.45427 1.54203,0.54467c0.75752,0.13283 0.93741,0.27266 0.93741,0.72812c0,0.31002 0.12974,0.69353 0.28835,0.85215c0.21787,0.21786 0.18027,0.57257 -0.15503,1.45055c-0.74315,1.94591 -0.0674,4.5575 1.65675,6.40323c0.59385,0.63568 0.71332,0.93655 0.57464,1.44281c-0.0964,0.35181 -0.22552,1.42766 -0.28732,2.39055c-0.10566,1.64623 -0.0664,1.81429 0.66249,2.8205c0.89249,1.23204 2.00872,1.98692 3.26027,2.20451c0.48125,0.0837 1.29444,0.42163 1.80712,0.75086c1.17143,0.75227 2.8599,0.80771 3.73104,0.12248c0.36509,-0.28718 0.73297,-0.97483 0.92708,-1.7322c0.38334,-1.49572 0.28783,-1.73102 -1.50327,-3.70882c-1.24714,-1.37713 -1.25113,-1.38742 -1.07797,-2.67012c0.217,-1.60747 0.57703,-2.38042 0.88056,-1.88929c0.11597,0.18764 0.28219,0.76355 0.36949,1.28003c0.17176,1.01665 1.32088,2.44636 1.96629,2.44636c0.27528,0 0.39946,0.22802 0.39946,0.73225c0,1.29462 0.54987,1.56954 2.84789,1.42472c8.34053,-0.52561 9.23143,-0.70813 10.82311,-2.21795c0.89153,-0.84567 1.42689,-0.79763 1.86707,0.16847c0.43993,0.96553 -0.19323,1.69354 -1.9451,2.23759c-0.80737,0.25072 -2.01739,0.79074 -2.68925,1.19941c-0.67186,0.40867 -1.82011,0.84011 -2.55126,0.95911c-0.73114,0.119 -1.55853,0.33894 -1.83865,0.48886c-0.38812,0.20771 -0.68522,0.18148 -1.24902,-0.11007c-1.21232,-0.62692 -2.78751,-0.49387 -3.91449,0.33073c-1.34612,0.98494 -1.76441,1.51994 -1.98024,2.53318c-0.10209,0.47924 -0.35188,1.12581 -0.55552,1.4366c-0.51658,0.78841 -0.2209,2.09625 0.69557,3.07733"></path></g></g></svg>