<svg version="1.1" xmlns="http://www.w3.org/2000/svg" xmlns:xlink="http://www.w3.org/1999/xlink" width="39.89597" height="35.20883" viewBox="0,0,39.89597,35.20883"><g transform="translate(-224.88543,-158.76506)"><g fill="none" stroke="#ff0000" stroke-width="8" stroke-miterlimit="10"><path d="M232.45032,171.00866c0.13225,0.45971 0.69771,1.38596 1.25722,2.058c0.96538,1.15936 1.10467,1.2216 2.71585,1.2216c1.62961,0 1.74373,-0.05307 2.82838,-1.32232c1.35639,-1.58721 2.75597,-2.2996 4.5208,-2.2996c1.13785,0 1.38759,-0.12366 1.90847,-0.94666c0.54931,-0.86793 0.64877,-0.91016 1.19798,-0.50566c0.32988,0.24294 1.3553,0.44667 2.28115,0.45326c1.79336,0.01185 3.10012,-0.61904 3.991,-1.9287c0.32404,-0.4762 0.76983,-0.6935 1.42365,-0.6935c1.12547,0 1.70916,-0.66238 2.46343,-2.79573c0.28877,-0.81662 0.59617,-1.48448 0.68335,-1.48429c0.08718,0.00018 0.47095,0.73914 0.85245,1.64218c0.3815,0.90304 1.07772,2.03216 1.54748,2.50855c0.77656,0.78738 1.14389,1.77558 0.65987,1.77558c-0.10709,0 -0.55327,0.61951 -0.99104,1.37676c-0.61113,1.05704 -0.79558,1.70419 -0.79558,2.78688c0,1.80849 -0.50027,3.76201 -2.00774,7.84206c-0.6667,1.80441 -1.21225,3.60786 -1.21225,4.00781c0,1.59056 -1.9477,3.54332 -2.30374,2.30982c-0.07034,-0.24357 -0.76151,-1.16239 -1.53629,-2.04235c-1.03443,-1.17481 -1.92759,-1.82915 -3.36075,-2.46158c-1.57334,-0.69421 -2.06123,-1.07436 -2.51465,-1.96001c-1.0476,-2.04644 -1.73699,-2.47957 -3.89877,-2.44797c-2.54655,0.03714 -3.25971,0.46291 -4.06371,2.42687c-0.52445,1.28082 -0.64867,2.02613 -0.64867,3.88531c0,2.28514 -0.00991,2.30904 -1.05246,3.58721c-1.36322,1.66661 -2.41816,2.25253 -3.32856,1.84908c-0.55694,-0.24679 -0.85403,-0.81285 -1.52708,-2.91347c-0.45956,-1.43414 -1.08812,-4.08894 -1.3971,-5.89976c-0.30898,-1.81082 -0.90941,-5.04332 -1.3341,-7.18328"></path></g></g></svg>