<svg version="1.1" xmlns="http://www.w3.org/2000/svg" xmlns:xlink="http://www.w3.org/1999/xlink" width="37.8153" height="50.87973" viewBox="0,0,37.8153,50.87973"><g transform="translate(-222.94361,-155.65023)"><g fill="none" stroke="#ff0000" stroke-width="9.26042" stroke-miterlimit="10"><path d="M256.13223,156.08444c-0.01867,0.47797 -0.24932,1.33022 -0.5127,1.89368c-0.26337,0.56345 -0.52628,1.59955 -0.58405,2.30232c-0.05777,0.70278 -0.21731,1.38197 -0.35447,1.50927c-0.13716,0.1273 -0.34174,0.6771 -0.45432,1.22206c-0.11258,0.54494 -0.5734,1.73558 -1.02387,2.64592c-0.45049,0.91033 -1.15155,2.66212 -1.55858,3.89249c-0.40703,1.23037 -1.32067,3.17227 -2.03022,4.31583c-0.70954,1.14357 -1.5632,2.6821 -1.8971,3.41893c-0.3339,0.73682 -0.8639,1.52571 -1.1772,1.75238c-0.58581,0.42386 -2.0518,2.22085 -4.83502,5.92788c-0.87487,1.16525 -2.25424,2.84317 -3.06551,3.72835c-0.81127,0.88517 -1.95278,2.2523 -2.53718,3.03817c-0.5844,0.78587 -1.46555,1.86838 -1.95791,2.40588c-0.49235,0.53749 -1.72384,2.18649 -2.73659,3.66472c-1.01275,1.47823 -2.18196,2.95128 -2.59829,3.27314c-0.41633,0.32186 -1.47262,1.42197 -2.34737,2.44438"></path></g></g></svg>