<svg version="1.1" xmlns="http://www.w3.org/2000/svg" xmlns:xlink="http://www.w3.org/1999/xlink" width="29.70385" height="21.10016" viewBox="0,0,29.70385,21.10016"><g transform="translate(-228.20061,-169.44992)"><g fill="none" stroke="#ff0000" stroke-width="9.26042" stroke-miterlimit="10"><path d="M251.40253,170.90942c-0.40243,1.21161 -0.4027,1.21171 0.73433,3.59668c0.96477,2.02364 1.13739,2.61637 1.13739,3.91139c0,1.82005 -0.34208,2.22917 -3.10937,3.72535c-0.97125,0.52512 -2.49725,1.36455 -3.391,1.865c-2.10119,1.17655 -4.46003,1.91203 -6.13348,1.91203c-1.1319,0 -1.54836,-0.14615 -2.78588,-0.97565c-1.6932,-1.13494 -3.24634,-2.69246 -3.3693,-3.37912c-0.0472,-0.26388 -0.42362,-0.66627 -0.83612,-0.894c-0.64913,-0.35836 -0.76066,-0.57641 -0.82786,-1.61954c-0.0427,-0.66287 0.05513,-1.52474 0.21704,-1.91565c0.35831,-0.86505 2.08,-2.46651 2.65203,-2.46651c0.22819,0 0.95307,-0.34484 1.61076,-0.76688c1.37176,-0.88026 2.47323,-2.55419 2.47323,-3.75895"></path></g></g></svg>