<svg version="1.1" xmlns="http://www.w3.org/2000/svg" xmlns:xlink="http://www.w3.org/1999/xlink" width="100.49013" height="80.38097" viewBox="0,0,100.49013,80.38097"><g transform="translate(-200.83626,-131.62733)"><g fill="none" stroke="#ff0000" stroke-width="8" stroke-miterlimit="10"><path d="M235.14119,192.0589c0.17485,0.41848 0.56398,0.81552 1.03658,1.05789c1.05707,0.54208 1.57235,1.18194 1.83971,2.2845c0.37514,1.54707 0.29132,2.23991 -0.38297,3.17074c-0.64521,0.89069 -0.91632,1.04583 -2.47118,1.41247c-1.53212,0.36127 -2.11492,0.29558 -2.49248,-0.28066c-0.24221,-0.37006 -0.30792,-0.80551 -0.24139,-1.60791c0.06627,-0.79916 0.01751,-1.12873 -0.17876,-1.20406c-0.14863,-0.05705 -0.37484,-0.33383 -0.50284,-0.61477c-0.14463,-0.31742 -0.39847,-0.51077 -0.67032,-0.51077c-0.83584,0 -1.72027,-1.33545 -1.72027,-2.59774c0,-1.51546 1.4151,-2.65536 3.29645,-2.65536c1.27351,0 2.04087,0.4768 2.48747,1.5457z"></path><path d="M206.61918,184.45532c2.73675,0.81892 4.23069,2.21977 4.1121,3.85567c-0.05496,0.75851 -0.17652,0.9578 -0.93761,1.53692c-0.96413,0.73361 -1.89091,0.85314 -2.96902,0.38339c-0.33572,-0.14629 -0.86299,-0.59734 -1.1719,-1.00235c-0.30891,-0.405 -0.67624,-0.73629 -0.81649,-0.73629c-0.4953,0 -1.37154,-1.15527 -1.4772,-1.94746c-0.16704,-1.25236 0.91468,-2.20043 2.28075,-2.22645c0.31524,-0.006 0.64571,0.03672 0.97937,0.13657z"></path><path d="M231.38659,175.42129c0.69062,1.13266 0.37956,3.30556 -0.52289,3.65187c-0.44245,0.16979 -2.21677,0.1203 -3.29604,-0.09188c-1.28748,-0.25311 -1.44334,-0.4563 -1.44253,-1.87856c0.00054,-0.88513 0.11735,-1.42839 0.40887,-1.90653c0.51332,-0.84195 1.45489,-1.2314 2.40395,-1.18736c0.94905,0.04404 1.90537,0.52148 2.44864,1.41247z"></path><path d="M280.1684,162.58007c1.19412,1.28106 1.40827,2.09701 1.48764,5.66615c0.05051,2.27444 -0.00247,3.47468 -0.17206,3.88365c-0.13486,0.32556 -0.93995,1.25356 -1.78918,2.06231c-1.62374,1.54632 -2.64386,2.06583 -4.60827,2.34589c-0.9242,0.13177 -0.98144,0.17617 -1.0771,0.83696c-0.12216,0.8439 -1.0083,1.51784 -2.2774,1.73154c-0.4697,0.07913 -1.07101,0.314 -1.33604,0.52204c-0.38849,0.30499 -0.82908,0.37797 -2.27323,0.37797c-1.79117,0 -1.79084,0.00024 -1.79084,1.29887c0,1.16229 -0.05606,1.34256 -0.53249,1.71735c-0.2928,0.23032 -0.73334,0.4189 -0.97894,0.4189c-0.66336,0 -1.11511,0.62433 -1.11511,1.54109c0,1.03368 -0.27592,1.28725 -1.40453,1.28968c-0.91931,0.00242 -2.84362,-1.92217 -2.16256,-1.38573c0.92045,0.72524 3.1628,3.51279 3.1628,5.28566c0,1.82114 -0.26616,2.15921 -1.69897,2.15921c-0.8736,0 -3.28486,-0.7733 -3.88615,-1.24624c-0.16176,-0.12724 -0.30391,0.12346 -0.47528,0.83779c-0.13448,0.56058 -0.46235,1.34062 -0.72879,1.73321c-0.26642,0.39259 -0.48446,0.74537 -0.48446,0.78392c0,0.03855 0.22994,0.12775 0.51119,0.19837c0.71851,0.18033 1.30558,1.23718 1.30638,2.35258c0.00081,1.02464 -0.48929,1.64962 -1.81758,2.31707c-0.38894,0.19543 -1.24448,0.71899 -1.90111,1.16356c-1.48315,1.00417 -4.12195,2.16422 -4.92358,2.16422c-0.33083,0 -0.69089,-0.11377 -0.8002,-0.25267c-0.10932,-0.13891 -0.25158,-0.59633 -0.31615,-1.01654c-0.06457,-0.4202 -0.36003,-1.27687 -0.65652,-1.90362c-0.2965,-0.62675 -0.58552,-1.65218 -0.64234,-2.27865c-0.09729,-1.07294 -0.06847,-1.16832 0.49866,-1.64551c0.60058,-0.50536 0.60105,-0.5078 0.21718,-0.98188c-0.28953,-0.35754 -0.37002,-0.72931 -0.32493,-1.50184c0.05989,-1.02678 0.05998,-1.02704 1.57534,-1.76663c0.83344,-0.40677 1.84429,-0.7988 2.2465,-0.87162c1.32847,-0.24054 1.53355,-1.51111 0.5822,-3.60926c-0.43986,-0.97009 -0.60642,-1.64407 -0.60642,-2.45698c0,-1.02725 0.06778,-1.19353 0.81356,-2.00259c0.8725,-0.94655 1.29368,-1.16224 3.02539,-1.54861c1.4885,-0.33212 1.97169,-0.68382 2.25944,-1.64425c0.35275,-1.17737 1.75495,-2.54195 2.78025,-2.70591c0.45092,-0.07209 2.42357,0.3377 2.42357,0.25769c0,-0.08002 -1.96956,-0.84509 -2.41648,-1.04661c-0.44691,-0.20152 -1.17416,-0.75868 -1.61627,-1.2383c-0.71092,-0.77126 -0.80396,-0.98734 -0.80396,-1.87021c0,-1.30052 0.12594,-1.5877 0.86285,-1.96876c0.94541,-0.4889 4.33077,-0.61406 5.76178,-0.21299c0.63496,0.17796 1.39734,0.37331 1.69438,0.43393c0.29704,0.06061 0.82149,0.34683 1.16523,0.63607c0.62498,0.52589 0.62468,0.52606 1.48012,0.13031c0.47048,-0.21766 1.09067,-0.45253 1.37821,-0.52164c1.07944,-0.25951 1.5379,-0.85045 1.89151,-2.43986c0.47944,-2.15497 1.05581,-2.83322 4.1334,-4.86219c1.83536,-1.21001 2.74448,-1.72311 3.37747,-1.71276c0.3798,0.0062 0.66008,0.20066 0.98187,0.54587z"></path><path d="M288.9535,154.13075c0.11531,0.21546 0.20966,0.79437 0.20966,1.28675c0,2.17884 -2.42693,3.22957 -4.71267,2.04017c-1.55399,-0.80863 -2.00274,-2.41478 -1.04159,-3.72829c0.73258,-1.00116 1.07542,-1.20114 2.06065,-1.20114c1.0126,0 3.15337,0.98479 3.48396,1.6025z"></path><path d="M298.49786,135.76788c0.53056,0.5306 0.59873,0.71761 0.49532,1.35483c-0.21616,1.33205 -0.98336,2.52676 -2.06106,3.20916c-0.55019,0.34837 -1.32993,0.91679 -1.73238,1.26295c-0.40245,0.34616 -0.80539,0.62938 -0.89584,0.62938c-0.09045,0 -0.35236,0.17397 -0.58178,0.38674c-0.22942,0.21277 -0.82636,0.4457 -1.32643,0.51787c-0.73379,0.10589 -1.08161,0.03952 -1.80255,-0.34414c-1.48686,-0.79133 -2.02098,-1.87558 -2.03141,-4.12337c-0.00404,-0.95523 0.05852,-1.0947 0.79812,-1.76287c0.90299,-0.8158 1.06865,-0.86627 3.36702,-1.02906c0.90431,-0.06409 2.08623,-0.25038 2.62654,-0.41431c0.59784,-0.18137 1.08905,-0.28337 1.50726,-0.30195c0.69705,-0.03097 1.19125,0.16886 1.63715,0.61476z"></path></g></g></svg>