<svg version="1.1" xmlns="http://www.w3.org/2000/svg" xmlns:xlink="http://www.w3.org/1999/xlink" width="47.4143" height="52.75957" viewBox="0,0,47.4143,52.75957"><g transform="translate(-217.61435,-153.02051)"><g fill="none" stroke="#ff0000" stroke-width="9.26042" stroke-miterlimit="10"><path d="M262.07099,156.58296c-0.90076,0.74784 -2.20506,1.66204 -2.89853,2.0315c-1.45159,0.77339 -2.08876,1.64188 -2.08876,2.84756c0,0.86192 -0.48803,1.52599 -2.83859,3.86357c-0.53001,0.52709 -1.57066,1.56128 -2.31252,2.29826c-1.31914,1.31044 -1.34876,1.37274 -1.34876,2.81061c0,1.47025 -0.00017,1.46985 -1.48621,2.30261c-2.01922,1.13154 -2.25069,1.46235 -2.42931,3.47348c-0.16594,1.86837 -0.16122,1.87736 1.75286,3.55333c0.65281,0.5716 0.67729,0.67615 0.51367,2.19666c-0.17179,1.59649 -0.17211,1.59633 1.48776,3.24147c1.12139,1.11144 1.71108,1.91233 1.81695,2.46887c0.15638,0.82219 0.15413,0.82439 -0.93741,0.82965c-1.4873,0.00736 -2.92754,0.74941 -4.44624,2.28849c-1.43054,1.44973 -1.59811,2.22685 -0.83975,3.89889c0.41678,0.91896 0.41495,0.96747 -0.0496,1.32462c-0.38423,0.29538 -1.10724,0.33554 -3.55843,0.19777c-2.75621,-0.15491 -3.12758,-0.12361 -3.57498,0.30209c-0.74391,0.70785 -0.69096,2.59805 0.0946,3.36317c0.59431,0.57882 0.59428,0.57902 -1.18753,0.53518c-0.97999,-0.02408 -2.09804,-0.17213 -2.48512,-0.32872c-0.96216,-0.38915 -1.81309,-0.35727 -2.6541,0.09999c-0.70685,0.38432 -1.86473,1.66028 -2.08721,2.29989c-0.0942,0.27059 -0.18386,0.2723 -0.44907,0.00946c-0.54373,-0.53931 -2.31839,-0.37523 -4.42505,0.40857c-1.98029,0.73679 -1.98028,0.73664 -2.33061,-0.32871c-0.51427,-1.56389 -2.35713,-2.48626 -5.38003,-2.69217"></path></g></g></svg>