<svg version="1.1" xmlns="http://www.w3.org/2000/svg" xmlns:xlink="http://www.w3.org/1999/xlink" width="59.80562" height="60.85426" viewBox="0,0,59.80562,60.85426"><g transform="translate(-218.48097,-143.89112)"><g fill="none" stroke="#ff0000" stroke-width="9.26042" stroke-miterlimit="10"><path d="M219.92002,200.11518c2.9275,-0.95726 3.84904,-2.3986 4.60649,-7.2042c0.07467,-0.47414 0.29703,-0.95806 0.49371,-1.07555c0.19668,-0.11749 0.92066,-0.51227 1.60864,-0.87717c0.68798,-0.36491 1.58386,-1.06557 1.9911,-1.55687c0.40734,-0.49132 1.25222,-1.10873 1.87751,-1.37182c0.62529,-0.26308 1.37554,-0.77533 1.66698,-1.13828c0.46428,-0.57815 0.74814,-0.67738 2.2925,-0.80749c2.51451,-0.21106 6.23638,-1.44334 9.19883,-3.0451c1.39368,-0.75352 4.31102,-3.46685 4.54609,-4.22847c0.37192,-1.20486 0.75565,-4.21863 0.76769,-6.02457c0.01323,-1.98161 -0.00861,-2.0612 -1.00413,-3.65593c-1.51452,-2.42599 -1.45517,-3.44291 0.44154,-7.57335c1.15001,-2.5045 2.75195,-4.74506 4.27095,-5.97404c0.56497,-0.45708 2.89013,-1.97972 5.16685,-3.38366c4.13948,-2.55262 4.13947,-2.55273 7.76398,-2.69978c4.10674,-0.16661 6.33514,-0.60919 8.04763,-1.59811"></path></g></g></svg>