<svg viewBox="0,0,21.08165,33.26407" height="33.26407" width="21.08165" xmlns:xlink="http://www.w3.org/1999/xlink" xmlns="http://www.w3.org/2000/svg" version="1.1"><g transform="translate(-229.45915,-163.95189)"><g stroke-miterlimit="10" stroke-width="9.26042" stroke="#ff0000" fill="none"><path d="M233.08141,168.58206c0.24983,-0.001 1.05609,-0.28288 1.79162,-0.62528c1.61807,-0.75325 2.13456,-0.77587 2.78795,-0.12248c0.39743,0.39744 0.49971,0.83327 0.49971,2.12494c0,1.625 -0.00009,1.62522 1.72082,1.62522c1.69494,0 1.73475,0.01496 2.6386,1.01544c0.79561,0.88066 0.90781,1.15544 0.84181,2.06293c-0.0701,0.96438 -0.16446,1.09035 -1.20096,1.60455c-0.61875,0.30695 -1.82658,0.6536 -2.68407,0.7705c-1.83903,0.25073 -2.80946,0.91021 -2.21485,1.50481c0.32223,0.32222 0.54474,0.31649 1.83658,-0.046c0.80851,-0.22685 1.93825,-0.41238 2.51044,-0.41238c0.8621,0 1.11513,0.11758 1.47794,0.6873c0.24079,0.37812 0.97479,1.19945 1.63091,1.82521c1.08925,1.03884 1.19269,1.23882 1.19269,2.29857c0,1.0443 -0.09823,1.24331 -0.9834,1.98644c-0.54107,0.45426 -1.46962,0.94471 -2.06292,1.08986c-1.07874,0.26392 -1.07844,0.26407 -0.99684,1.87585c0.0783,1.54589 0.04777,1.6439 -0.74983,2.40451c-1.15147,1.09804 -3.63647,2.3317 -4.69997,2.3337c-1.38608,0.002 -2.67087,0.45536 -3.0856,1.08831"></path></g></g></svg>