<svg version="1.1" xmlns="http://www.w3.org/2000/svg" xmlns:xlink="http://www.w3.org/1999/xlink" width="64.30294" height="32.37891" viewBox="0,0,64.30294,32.37891"><g transform="translate(-206.78999,-154.90731)"><g fill="none" stroke="#ff0000" stroke-width="9.26042" stroke-miterlimit="10"><path d="M214.32684,185.07187c1.11941,-3.58165 1.11078,-3.45703 0.26756,-3.9672c-2.40301,-1.45383 -3.1742,-2.50208 -3.1742,-4.31498c0,-1.86425 0.33207,-2.05217 3.4338,-1.94045c2.14605,0.0773 2.84664,0.20891 4.21869,0.7922c0.96298,0.40939 1.85883,0.64037 2.15971,0.55707c0.28274,-0.0783 1.06653,-0.94429 1.74221,-1.92443c1.34306,-1.94826 3.01644,-3.22991 4.22197,-3.23391c0.41157,-0.001 0.87126,-0.209 1.11195,-0.5023c0.31741,-0.38679 0.69858,-0.50022 1.68222,-0.50022c1.69957,0 5.21685,-1.42191 4.58419,-1.85312c-0.14248,-0.0971 -0.25866,-0.65902 -0.25866,-1.24902c0,-1.16476 0.76726,-2.59739 1.93292,-3.60857c0.74466,-0.64597 2.26069,-0.72405 2.99802,-0.15451c0.45076,0.3482 0.5681,0.3446 1.23847,-0.0377c0.4074,-0.23233 1.405,-0.47315 2.21642,-0.53485c1.31027,-0.0996 1.57146,-0.03899 2.33778,0.54002c0.86285,0.65191 0.8631,0.6516 1.5871,0.0491c0.95493,-0.7946 2.20116,-1.1478 4.05046,-1.1498c1.25871,-0.001 1.61997,-0.10103 2.15315,-0.59377c1.6875,-1.55953 2.36732,-1.90789 3.72246,-1.90789v-0.00002c2.3738,0 3.06448,0.71931 3.28761,3.42408c0.16496,1.99957 -0.33932,5.08917 -0.98685,6.04563c-0.86449,1.27693 -1.56771,1.64189 -3.35696,1.74149c-1.11666,0.0622 -1.80565,-0.01026 -2.02617,-0.21187c-0.27311,-0.24996 -0.48077,-0.1638 -1.13772,0.47232c-0.4421,0.42808 -1.03023,0.78413 -1.30642,0.79013c-0.41028,0.01 -0.18673,0.34155 1.22067,1.81281c1.40977,1.47375 1.74751,1.97581 1.85982,2.76469c0.2243,1.57548 0.65027,2.06693 1.93713,2.23501c0.62291,0.0814 1.65954,0.44211 2.30357,0.80202c1.2912,0.72158 3.17139,2.64377 3.17139,3.24218c0,0.56494 6.56227,-1.44914 6.80628,-1.63106"></path></g></g></svg>