<svg version="1.1" xmlns="http://www.w3.org/2000/svg" xmlns:xlink="http://www.w3.org/1999/xlink" width="33.47771" height="63.91172" viewBox="0,0,33.47771,63.91172"><g transform="translate(-221.67457,-145.48586)"><g fill="none" stroke="#ff0000" stroke-width="9.26042" stroke-miterlimit="10"><g><path d="M227.33211,182.86601c1.61622,0 2.23947,-0.0948 2.4722,-0.37517c0.17117,-0.20625 0.5721,-0.37465 0.8909,-0.37465c0.31879,0 0.64911,-0.11255 0.73381,-0.2496c0.0847,-0.13705 0.70466,-0.48562 1.37769,-0.77515c1.66081,-0.71446 3.51744,-2.72464 4.25555,-4.60695c0.41711,-1.0637 0.61555,-2.16384 0.68885,-3.82251c0.1485,-3.35907 -0.004,-3.88072 -1.62781,-5.58363c-1.32045,-1.38431 -1.45816,-1.46245 -2.5895,-1.46245c-0.70897,0 -2.02236,0.30483 -3.22926,0.74983c-1.96239,0.72355 -3.99976,0.99076 -3.99976,0.52451c0,-0.12405 0.32139,-0.33728 0.71469,-0.47439c3.54238,-1.23488 5.16119,-5.26429 3.26491,-8.12715c-0.42366,-0.63961 -1.20741,-1.50867 -1.74149,-1.93166c-0.97103,-0.76908 -0.97114,-0.76958 -0.2465,-1.76992c0.39855,-0.55018 0.80059,-1.35943 0.89349,-1.79834c0.21637,-1.02249 1.1264,-2.67271 1.47381,-2.67271c0.147,0 0.80918,0.38507 1.47123,0.85577c0.66205,0.47071 2.0042,1.09906 2.98276,1.39629c1.89551,0.57575 2.29148,0.89581 4.49947,3.63751c1.1875,1.47454 1.18752,1.47441 1.18752,3.53105c0,1.54426 0.14906,2.46788 0.59893,3.70726c0.7297,2.01032 1.18649,2.5449 2.4691,2.89027c0.54391,0.14646 1.34189,0.63194 1.77302,1.07848c0.91038,0.94293 2.51909,2.15336 2.86184,2.15336c0.41037,0 0.92325,1.57996 0.89245,2.7497c-0.0364,1.38495 -0.85056,3.29401 -1.77663,4.16564c-0.38156,0.35912 -1.93122,1.57394 -3.44372,2.7001c-1.5125,1.12617 -2.5767,1.19466 -3.09232,1.76888c-2.72944,5.98337 4.51274,3.16545 6.9019,2.85254c1.19649,-0.14306 2.26178,-0.49021 3.63854,-1.18546c0.0153,-0.008 0.0253,-0.0101 0.03,-0.007l0.00052,0.00051c0.0002,0.00023 0.00087,0.001 0.001,0.002c0.0144,0.0301 -0.14563,0.23274 -0.40669,0.50695c-0.31524,0.33113 -0.92898,0.74546 -1.36426,0.92087c-0.99502,0.40099 -3.88263,10.02188 -5.84333,10.38651c-3.77797,0.70259 -3.9646,8.92652 -6.47902,9.35363c-1.55991,0.26497 -2.89667,1.57338 -3.93446,2.74171"></path><path d="M230.23561,189.66533c0.343,-0.039 1.02897,-0.11692 1.58245,-0.37418c0.55349,-0.25726 0.97441,-0.69378 1.6916,-1.1849c0.7172,-0.49113 1.73058,-1.03679 2.46334,-1.19268c0.73276,-0.1559 1.18487,0.0779 1.63701,0.43654c0.45213,0.35859 0.90426,0.84189 1.57468,0.98221c0.67041,0.14032 1.55906,-0.0624 2.1827,-0.0935c0.62363,-0.0312 0.9822,0.10913 1.14591,0.70159c0.16371,0.59246 0.13255,1.63701 -0.38975,2.67381c-0.52229,1.0368 -1.53567,2.06577 -2.10473,2.86089c-0.56906,0.79512 -0.69378,1.35638 -1.04458,1.60583c-0.3508,0.24945 -0.92764,0.18709 -1.1771,0.48332c-0.24946,0.29623 -0.1715,0.95104 -0.32742,1.66822c-0.15591,0.71718 -0.54566,1.49669 -1.18489,1.79292c-0.63922,0.29623 -1.52788,0.10915 -2.12813,-0.46772c-0.60025,-0.57688 -0.91205,-1.54348 -0.95882,-2.23727c-0.0468,-0.69379 0.1715,-1.11474 -0.23387,-1.31742c-0.40537,-0.20268 -1.43434,-0.18708 -2.20609,-0.40535c-0.77175,-0.21827 -1.28623,-0.67039 -1.58245,-1.44994c-0.29622,-0.77954 -0.37417,-1.88645 -0.29622,-2.58024c0.0779,-0.6938 0.3118,-0.97442 0.50669,-1.21608c0.19489,-0.24167 0.35079,-0.44433 0.42875,-0.54567c0.078,-0.10134 0.0779,-0.10136 0.42092,-0.14034z"></path></g></g></g></svg>