<svg version="1.1" xmlns="http://www.w3.org/2000/svg" xmlns:xlink="http://www.w3.org/1999/xlink" width="33.89801" height="42.49273" viewBox="0,0,33.89801,42.49273"><g transform="translate(-226.35358,-156.25799)"><g fill="none" stroke="#ff0000" stroke-width="9.26042" stroke-miterlimit="10"><path d="M249.12958,160.88495c0.83885,0.0315 1.53412,0.30594 1.9439,0.82941c0.46692,0.59636 0.5502,1.04524 0.53334,2.87476c-0.02868,3.13951 -0.70286,5.69622 -1.93293,7.33133c-0.55326,0.73534 -1.09387,1.61841 -1.2013,1.96216c-0.10743,0.34375 -0.36171,0.87501 -0.56496,1.1808c-0.36445,0.54842 -0.35696,0.54786 0.57044,-0.0491c1.1859,-0.76341 3.40074,-1.38183 4.94888,-1.38183c0.98528,0 1.29196,0.11912 1.76784,0.6873c0.51394,0.61404 0.56106,0.89687 0.43803,2.64377c-0.11702,1.66096 -0.31015,2.28254 -1.28142,4.12429c-0.92815,1.76011 -1.61529,2.61865 -3.64732,4.55631c-3.72702,3.55392 -6.36187,5.44807 -9.85252,7.08278c-2.74358,1.28484 -3.22665,1.43176 -4.58005,1.39526c-0.83215,-0.0225 -1.92785,0.03266 -2.4352,0.12196c-0.64499,0.11356 -1.20022,0.02692 -1.84521,-0.28733c-0.84384,-0.41115 -0.92929,-0.55565 -1.00731,-1.69912c-0.11458,-1.67832 0.28042,-2.81344 1.41808,-4.07417c0.70781,-0.78438 1.14126,-1.05109 1.709,-1.05109c0.84303,0 0.9838,-0.18414 1.71718,-2.25c0.26848,-0.75625 0.66033,-1.57167 0.87056,-1.81229c0.62489,-0.71519 0.0387,-0.49908 -1.14787,0.42323c-1.48105,1.15118 -2.30242,1.33156 -3.00941,0.66094c-0.30247,-0.28691 -0.55025,-0.79588 -0.55025,-1.13068c0,-0.33479 -0.12517,-0.92155 -0.27838,-1.30379c-0.31971,-0.79764 0.06066,-4.36279 0.6957,-6.5195c0.47717,-1.6206 3.68019,-6.23729 5.51054,-7.94267c1.28008,-1.19268 4.68556,-3.58031 7.56331,-5.30252c1.25273,-0.7497 2.56894,-1.11072 3.64731,-1.07022z"></path></g></g></svg>