<svg version="1.1" xmlns="http://www.w3.org/2000/svg" xmlns:xlink="http://www.w3.org/1999/xlink" width="37.7161" height="22.36106" viewBox="0,0,37.7161,22.36106"><g transform="translate(-223.08031,-168.64125)"><g fill="none" stroke="#ff0000" stroke-width="9.26042" stroke-miterlimit="10"><path d="M223.8338,180.15802c0.756,0.12469 1.0411,0.0156 1.91667,-0.73269c0.75829,-0.64809 1.35481,-0.91823 2.27118,-1.02925c1.59243,-0.19293 2.63924,-0.66847 4.67414,-2.12299c0.4125,-0.29485 1.84346,-1.13745 3.17965,-1.87242c2.89281,-1.59119 4.11582,-1.79891 7.1484,-1.21322c2.42286,0.46794 3.3874,0.99803 5.37848,2.95559c1.84948,1.81835 2.16835,2.45679 2.16835,4.34061c0,1.63244 0.08838,1.49549 -1.98128,3.07401c-0.50036,0.38162 -0.62594,0.74233 -0.71934,2.06272c-0.11207,1.58496 -0.10762,1.59845 0.47646,1.40881c0.32432,-0.10529 0.87316,-0.40094 1.21957,-0.65709c0.34641,-0.25615 1.47198,-0.77304 2.50165,-1.14872c1.6751,-0.61112 2.10683,-0.66803 4.09846,-0.53604"></path></g></g></svg>