<svg version="1.1" xmlns="http://www.w3.org/2000/svg" xmlns:xlink="http://www.w3.org/1999/xlink" width="60.27175" height="66.93134" viewBox="0,0,60.27175,66.93134"><g transform="translate(-289.86412,-143.20454)"><g stroke-miterlimit="10"><path d="M292.21943,206.42526c0,0 -1.35531,-1.33579 -1.35531,-7.18144c0,-12.7805 0,-34.16152 0,-40.65918c0,-3.70074 2.25885,-5.0099 2.25885,-5.0099c0,0 1.9844,-2.71061 5.83357,-2.71061c6.31562,0 26.09421,0 38.85211,0c6.60431,0 7.71308,2.25885 7.71308,2.25885c0,0 3.61414,2.30715 3.61414,6.36521c0,6.96514 0,29.37127 0,41.56272c0,4.85117 -1.80707,6.2779 -1.80707,6.2779c0,0 -1.85919,1.80707 -7.26132,1.80707c-12.83696,0 -35.47582,0 -42.01449,0c-3.48517,0 -5.83357,-2.71061 -5.83357,-2.71061z" fill="#800080" stroke="#4b0082" stroke-width="2"></path><g fill="#ffffff" stroke="#ffffff"><text transform="translate(299.56373,194.01732) scale(1.16811,1.16811)" font-size="40" xml:space="preserve" fill="#ffffff" stroke-width="1" font-family="Sans Serif" font-weight="normal" text-anchor="start"><tspan x="0" dy="0">6</tspan></text><path d="M321.98871,171.75852v-4.99622h18.44756v4.99622z" stroke-width="0"></path><path d="M328.81355,160.13578h4.99622v18.44756h-4.99622z" stroke-width="0"></path></g></g></g></svg>