<svg version="1.1" xmlns="http://www.w3.org/2000/svg" xmlns:xlink="http://www.w3.org/1999/xlink" width="52.66046" height="87.11582" viewBox="0,0,52.66046,87.11582"><g transform="translate(-197.32564,-136.83192)"><g fill="none" stroke="#ff0000" stroke-width="9.26042" stroke-miterlimit="10"><path d="M245.68189,141.46213c-0.192,0 -0.326,0.39483 -0.326,0.95959c0,1.06791 -1.3416,3.57829 -2.2893,4.28351c-0.874,0.65045 -2.2998,0.55804 -3.0138,-0.19553c-0.6209,-0.65529 -0.6213,-0.65586 -0.5064,0.94781c0.1105,1.54403 0.075,1.6491 -0.9446,2.82055c-1.0594,1.21669 -1.0593,1.21654 -0.4026,2.26378c0.8097,1.29105 0.8238,2.34539 0.061,4.54422c-0.69,1.98806 -1.6826,3.16028 -2.6763,3.16028c-0.7049,0 -0.7049,-0.00008 -0.059,0.86668c0.6077,0.81533 0.6361,0.99858 0.4765,3.08818c-0.093,1.22176 -0.3045,2.441 -0.4697,2.70961c-0.2364,0.38479 -0.2273,0.52189 0.043,0.64412c0.9345,0.42162 1.281,1.39706 1.281,3.60403c0,2.45064 -0.4543,4.26395 -1.2314,4.91515c-0.6545,0.54842 -0.6615,1.15313 -0.018,1.61482c0.6032,0.43316 0.6684,2.18895 0.1173,3.16652c-0.2018,0.35812 -0.3669,0.86946 -0.3669,1.1364c0,0.26696 1.1246,1.96071 2.4996,3.76349c2.1385,2.80382 2.5001,3.43323 2.5001,4.35285c0,0.81041 -0.2267,1.35381 -0.9209,2.20693c-1.0724,1.31796 -1.993,1.61972 -3.6416,1.19533c-0.7185,-0.18501 -1.1876,-0.1843 -1.1876,0.00134c0,0.16906 -0.2759,0.67802 -0.6134,1.13085c-0.5139,0.68944 -0.8491,0.82052 -2.0624,0.80845c-1.988,-0.02013 -3.9249,-0.9312 -4.0271,-1.89493c-0.048,-0.45633 -0.2062,-0.67047 -0.415,-0.563c-0.479,0.24659 -1.7424,-0.70526 -2.3802,-1.79301c-0.4285,-0.73091 -0.5179,-1.24221 -0.4289,-2.43851c0.062,-0.83255 0.1964,-1.8506 0.2982,-2.2624c0.2177,-0.88034 -0.2687,-1.21438 -2.5616,-1.75903c-0.7888,-0.18736 -1.9971,-0.54911 -2.6846,-0.80429c-1.4461,-0.53674 -1.6954,-0.41967 -3.2861,1.54756c-0.8808,1.08934 -1.0889,1.56775 -1.0889,2.50369c0,0.84311 -0.2071,1.43512 -0.7637,2.18197c-0.7017,0.94132 -0.864,1.00965 -1.9906,0.83063c-0.6747,-0.1072 -1.5349,-0.41193 -1.9115,-0.67671c-0.6669,-0.46882 -0.7129,-0.43938 -1.7549,1.11559c-0.7803,1.1645 -1.3634,1.6958 -2.1539,1.96287c-0.8151,0.27537 -1.4333,0.85731 -2.4919,2.34629c-0.7742,1.08913 -1.4853,2.41511 -1.5813,2.94604c-0.095,0.53092 -0.4412,1.68405 -0.7684,2.56262c-1.3762,3.69462 -1.4423,12.93749 -0.1292,18.06106"></path></g></g></svg>