<svg version="1.1" xmlns="http://www.w3.org/2000/svg" xmlns:xlink="http://www.w3.org/1999/xlink" width="38.51132" height="37.4946" viewBox="0,0,38.51132,37.4946"><g transform="translate(-225.4563,-149.49514)"><g fill="none" stroke-miterlimit="10"><path d="M227.21641,181.60918c0.6904,0 1.2076,-0.16833 1.5782,-0.51366c0.5047,-0.47021 0.5457,-0.71518 0.4847,-2.90008c-0.067,-2.38667 -0.067,-2.38659 0.8072,-3.11816c0.4806,-0.40236 1.3241,-0.84669 1.8748,-0.98702c0.5506,-0.14034 1.5715,-0.47915 2.2686,-0.75344c2.7417,-1.07883 3.9289,-1.27439 8.5442,-1.40715c4.5614,-0.13121 4.561,-0.13135 6.427,1.75287c1.978,1.99735 2.0451,2.13802 2.2179,4.67671c0.2074,3.0456 1.2082,4.00028 4.1951,4.00028c2.7785,0 3.7233,-0.71743 3.7233,-2.82619c0,-1.08017 0.038,-1.13172 1.4563,-2.02106" stroke="#ff0000" stroke-width="9.26042"></path><path d="M231.27226,151.99514c0,-1.38071 1.11929,-2.5 2.5,-2.5c1.38071,0 2.5,1.11929 2.5,2.5c0,1.38071 -1.11929,2.5 -2.5,2.5c-1.38071,0 -2.5,-1.11929 -2.5,-2.5z" stroke="none" stroke-width="0.5"></path></g></g></svg>