<svg version="1.1" xmlns="http://www.w3.org/2000/svg" xmlns:xlink="http://www.w3.org/1999/xlink" width="26.73639" height="28.65265" viewBox="0,0,26.73639,28.65265"><g transform="translate(-227.68456,-160.38044)"><g fill="none" stroke="#ff0000" stroke-width="9.26042" stroke-miterlimit="10"><path d="M250.21927,163.50954c0.33799,0.36864 0.32076,0.62564 -0.11889,1.76663c-0.28298,0.73438 -0.46643,1.59956 -0.40835,1.92294c0.05808,0.32337 0.06126,1.22569 0.00589,2.00519c-0.08872,1.24912 -0.28917,1.6723 -1.68657,3.56606c-1.32951,1.80177 -2.1045,2.53793 -4.80014,4.55958c-2.03907,1.52925 -3.66095,2.96583 -4.43489,3.92875c-1.85051,2.30239 -2.47121,2.89413 -3.17038,3.02614c-1.08318,0.2034 -2.34281,0.93132 -3.00127,1.73323c-0.5646,0.68756 -0.6022,0.90842 -0.3679,2.16876"></path></g></g></svg>