<svg version="1.1" xmlns="http://www.w3.org/2000/svg" xmlns:xlink="http://www.w3.org/1999/xlink" width="68.05112" height="47.47718" viewBox="0,0,68.05112,47.47718"><g transform="translate(-207.75509,-150.15633)"><g fill="none" stroke="#ff0000" stroke-width="9.26042" stroke-miterlimit="10"><path d="M235.63455,176.80358c1.78335,-0.05669 4.52422,0.93772 6.35517,2.37814c3.39108,2.66782 3.68313,2.99044 4.17132,4.60282c0.43073,1.42276 0.43484,1.58784 0.0599,2.37402c-0.22159,0.46467 -1.31993,1.97424 -2.44119,3.35483c-2.29501,2.82582 -2.89311,3.16688 -5.20588,2.97037c-0.82204,-0.0698 -1.8781,0.02123 -2.53422,0.21859c-1.17408,0.35318 -3.41533,0.40215 -5.12527,0.11162c-0.55,-0.0934 -1.23755,-0.30032 -1.52807,-0.45941c-1.01096,-0.55361 -2.08359,-2.06068 -2.48873,-3.49694c-0.22285,-0.79002 -0.67584,-2.34231 -1.00666,-3.4494c-0.33081,-1.1071 -0.59346,-2.23169 -0.58446,-2.49959c0.009,-0.26791 0.37813,-0.99356 0.82062,-1.61231c1.06442,-1.48838 3.01019,-2.5001 4.80849,-2.5001c1.12749,0 1.4504,-0.11988 2.35593,-0.87643c0.57712,-0.48217 1.31637,-0.94388 1.64279,-1.02578c0.21026,-0.0527 0.44546,-0.0824 0.70022,-0.0904z"></path><path d="M217.00206,175.04816c0.57063,0.41336 1.03766,0.8633 1.03766,0.99994c0,0.13664 0.49769,0.24804 1.10587,0.24804c2.05947,0 3.32228,2.06485 2.65255,4.33669c-0.49741,1.6873 -1.10561,2.16369 -2.76313,2.16369c-1.29336,0 -1.56768,-0.10696 -3.14348,-1.22008c-2.08982,-1.47621 -2.70529,-2.11816 -3.22719,-3.36724c-0.51801,-1.23978 -0.28648,-3.02132 0.46043,-3.54448c0.34576,-0.24218 0.81171,-0.36888 1.32137,-0.38758c0.84943,-0.03124 1.81979,0.23777 2.55592,0.77102z"></path><path d="M224.41866,155.83331c1.2038,1.05695 1.62109,1.94305 1.62109,3.44217c0,1.03199 -0.13046,1.40205 -0.73794,2.09393c-0.70504,0.803 -2.10856,1.42678 -3.20963,1.42678c-0.28287,0 -0.8329,-0.25287 -1.22266,-0.56224c-0.38976,-0.30938 -0.93274,-0.68952 -1.20665,-0.84439c-0.75756,-0.42832 -0.69279,-3.39228 0.10232,-4.67879c0.70614,-1.14255 1.75606,-1.71894 2.81379,-1.66604c0.63463,0.03172 1.27186,0.29003 1.83968,0.78858z"></path><path d="M266.31893,154.79845c1.60998,0.004 4.49302,2.12963 4.85707,3.58014c0.13759,0.54819 -0.14985,1.97309 -1.09296,5.41724c-0.72328,2.64137 -1.30056,5.48905 -1.29656,6.39754c0.005,1.14448 -1.303,3.55295 -2.86804,5.28237c-1.54932,1.71205 -1.69419,2.38882 -1.00046,4.67568c0.33621,1.10817 0.33265,1.376 -0.0382,2.69751c-0.48398,1.72489 -1.09753,2.2998 -2.85564,2.67684c-0.68488,0.14688 -1.80153,0.54944 -2.4815,0.894c-1.54129,0.78134 -2.04709,0.77982 -3.68556,-0.009c-0.71921,-0.3462 -1.43264,-0.86216 -1.58492,-1.1467c-0.28539,-0.53325 -0.19356,-3.91895 0.19896,-7.3427c0.25463,-2.22099 1.36164,-4.0149 3.25613,-5.2772c0.72187,-0.48099 1.33457,-1.00905 1.36167,-1.17357c0.0271,-0.16453 0.0555,-1.76164 0.0625,-3.54914c0.0149,-3.67859 0.17237,-4.15768 2.01952,-6.14846c1.19658,-1.28962 1.60895,-2.01374 2.2319,-3.91966c0.58268,-1.78274 1.79968,-3.05759 2.9161,-3.05459z"></path></g></g></svg>