<svg version="1.1" xmlns="http://www.w3.org/2000/svg" xmlns:xlink="http://www.w3.org/1999/xlink" width="66.73315" height="29.82778" viewBox="0,0,66.73315,29.82778"><g transform="translate(-204.85244,-158.51618)"><g fill="none" stroke="#ff0000" stroke-width="9.26042" stroke-miterlimit="10"><path d="M267.45824,161.60954c-0.45498,0.89485 -1.36381,1.53685 -2.17548,1.53685c-0.34004,0 -0.8428,0.18279 -1.11732,0.40618c-0.74988,0.61023 -3.4034,1.33445 -4.90651,1.33945c-1.23364,0.004 -1.37289,-0.0542 -1.93663,-0.80822c-0.55878,-0.74745 -0.71035,-0.81235 -1.89437,-0.81235c-0.99862,0 -1.30212,0.08791 -1.35351,0.39274c-0.03796,0.22506 0.16761,0.51685 0.48083,0.68265c1.01003,0.53467 1.40468,1.68138 1.40554,4.08295c0.00081,2.15841 0.00067,2.15826 -0.86067,3.06235c-1.02249,1.07323 -1.80176,1.16451 -3.04149,0.35501c-0.84152,-0.5495 -0.84146,-0.54989 -1.51941,0.40566c-0.79197,1.11627 -1.74585,1.64383 -2.97344,1.64383c-1.17688,0 -2.01576,-0.54622 -2.44191,-1.58957c-0.39121,-0.9578 -0.46687,-2.9438 -0.13922,-3.65507c0.19405,-0.42126 0.10052,-0.46902 -1.07595,-0.54622c-1.28889,-0.0846 -1.28895,-0.08434 -1.28857,0.83096c0.00049,1.13323 -0.78024,3.6333 -1.38108,4.4235c-0.24633,0.32397 -0.65302,0.6816 -0.90382,0.79427c-0.25081,0.11267 -0.50814,0.46637 -0.572,0.78599c-0.2688,1.34576 -1.30239,3.87207 -1.7974,4.39353c-0.60191,0.63408 -2.13322,0.77498 -2.94409,0.27079c-0.29749,-0.18499 -1.36236,-0.26959 -2.90894,-0.23099c-2.31551,0.0578 -2.48347,0.02743 -3.29147,-0.59377c-0.81247,-0.62467 -0.90887,-0.64148 -2.10565,-0.36793c-1.46685,0.33528 -1.86316,0.16908 -2.72258,-1.13999c-0.53183,-0.81009 -0.59933,-0.84284 -1.0248,-0.49661c-0.25054,0.20388 -0.62762,0.37104 -0.83799,0.37104c-0.50293,0 -0.48271,0.37751 0.07652,1.42885c0.40566,0.76258 0.4298,0.9761 0.20816,1.83555c-0.36484,1.41481 -2.41423,3.03458 -4.27712,3.38067c-1.01744,0.18902 -1.60956,-0.12826 -2.12211,-1.13636c-0.20627,-0.40568 -0.65094,-0.87065 -0.98833,-1.03301c-0.80464,-0.38723 -1.88681,-1.9304 -1.88681,-2.69079c0,-0.33057 0.18989,-0.95822 0.42211,-1.39475c0.42221,-0.7937 0.42209,-0.79389 -0.2691,-1.2516c-0.38016,-0.25175 -1.05426,-0.85853 -1.49807,-1.34876c-0.7256,-0.80158 -0.80685,-1.01922 -0.80685,-2.16007c0,-1.73077 0.65933,-2.86831 1.66753,-2.87631c0.28544,-0.002 0.48438,-0.1577 0.48438,-0.37879c0,-0.27122 -0.23964,-0.37466 -0.86601,-0.37466c-0.7409,0 -0.89763,0.09653 -1.08485,0.6687c-0.12037,0.36783 -0.5537,1.09942 -0.96297,1.62574c-0.40928,0.52632 -0.74414,1.06044 -0.74414,1.187c0,0.12655 -0.25093,0.57638 -0.55733,0.99943c-0.39547,0.54604 -0.74524,0.76894 -1.20627,0.76894"></path></g></g></svg>