<svg version="1.1" xmlns="http://www.w3.org/2000/svg" xmlns:xlink="http://www.w3.org/1999/xlink" width="26.25573" height="116.62328" viewBox="0,0,26.25573,116.62328"><g transform="translate(-215.9932,-119.90838)"><g fill="none" stroke="#ff0000" stroke-width="9.26042" stroke-miterlimit="10"><path d="M218.2934,123.92683c0.35443,0.20288 1.56289,1.76704 2.68584,3.47601"></path><path d="M220.97923,127.40284c2.01527,3.06689 3.40148,5.96786 4.28229,8.96317c0.24827,0.84408 0.69858,1.94088 1.0008,2.43728c0.54353,0.89269 0.95837,3.13579 0.69079,3.73406c-0.07375,0.16458 0.18397,0.4814 0.5751,0.70727c0.88594,0.51162 1.01638,0.8047 1.22686,2.75808c0.09331,0.86615 0.22316,2.06438 0.2878,2.6628c0.08801,0.80986 0.02411,1.23219 -0.25142,1.65247c-0.35799,0.54682 -0.3478,0.59634 0.32849,1.56074c0.38409,0.54773 0.81526,0.99552 0.95795,0.99552c0.4121,0 2.67283,2.72847 3.15611,3.80922c0.49721,1.1119 0.54825,2.06503 0.19739,3.68375c-0.23609,1.08907 -0.22258,1.14519 0.54809,2.23606c0.79048,1.11886 0.79064,1.11863 0.67794,3.39196c-0.09397,1.895 -0.0498,2.40607 0.26551,3.07059c0.20808,0.43845 0.44285,1.45261 0.5224,2.25322c0.07955,0.8006 0.2723,1.7094 0.42909,2.02003c0.32824,0.65054 0.37216,2.45464 0.09248,3.80212c-0.17063,0.82248 -0.12364,1.02161 0.41459,1.76553c0.33371,0.4612 0.60891,1.13866 0.60891,1.5051c0.00829,1.36518 0.60958,3.41233 1.2175,4.11936c1.143,1.32911 1.10844,4.07151 -0.0779,6.21929c-0.45213,0.81762 -0.63054,1.37041 -0.50185,1.54831c0.36238,0.50086 0.4426,3.03392 0.13441,4.24129c-0.41782,1.63636 -2.05065,3.35054 -3.07639,3.22979c-0.74846,-0.08808 -0.74863,-0.08794 -0.36271,1.1565c0.62756,2.02341 0.52306,2.96338 -0.46721,4.19986c-0.82951,1.03581 -0.8552,1.12239 -0.91901,3.11142c-0.0779,2.4121 -0.45544,3.79678 -1.4521,5.32144c-0.43183,0.66076 -0.64082,1.18998 -0.51304,1.29913c0.1185,0.10125 0.21537,0.95247 0.21537,1.89159c0,1.60287 -0.05188,1.78596 -0.8547,2.9895c-0.63145,0.94676 -1.01099,1.28197 -1.45044,1.28197c-0.5364,0 -0.59524,0.09387 -0.59524,0.95704c0,0.82111 -0.18272,1.17102 -1.28686,2.46155c-1.28702,1.5043 -1.28702,1.50396 -2.90038,1.40271c-1.61336,-0.10125 -1.61319,-0.10128 -1.61319,0.84281c0,1.66635 -1.64932,5.21609 -2.42339,5.21609"></path></g></g></svg>