<svg version="1.1" xmlns="http://www.w3.org/2000/svg" xmlns:xlink="http://www.w3.org/1999/xlink" width="74.20832" height="18.72546" viewBox="0,0,74.20832,18.72546"><g transform="translate(-202.89585,-170.63727)"><g stroke-miterlimit="10"><path d="M203.72809,188.36404c0,0 -0.83224,-0.52122 -0.83224,-2.62943c0,-3.84585 0,-9.64946 0,-11.75543c0,-1.51966 1.08192,-2.50967 1.08192,-2.50967c0,0 0.70482,-0.83224 2.80081,-0.83224c7.60853,0 53.40112,0 66.70427,0c2.2935,0 2.47699,0.52015 2.47699,0.52015c0,0 1.14433,0.72564 1.14433,2.50967c0,3.53679 0,9.1889 0,11.44334c0,1.83838 -0.79063,2.98313 -0.79063,2.98313c0,0 -0.49717,1.26917 -2.72667,1.26917c-13.1417,0 -59.00267,0 -66.70427,0c-2.14641,0 -3.15451,-0.99869 -3.15451,-0.99869z" fill-opacity="0.50196" fill="#000033" stroke="none" stroke-width="0"></path><text transform="translate(217.3344,183.39984) scale(0.28332,0.28332)" font-size="40" xml:space="preserve" fill="#000000" stroke="#000000" stroke-width="1" font-family="Sans Serif" font-weight="normal" text-anchor="start"><tspan x="0" dy="0">震源決定</tspan></text></g></g></svg>