<svg version="1.1" xmlns="http://www.w3.org/2000/svg" xmlns:xlink="http://www.w3.org/1999/xlink" width="36.78174" height="42.04703" viewBox="0,0,36.78174,42.04703"><g transform="translate(-220.97039,-156.10214)"><g fill="none" stroke="#ff0000" stroke-width="9.26042" stroke-miterlimit="10"><path d="M223.94179,166.12117c0.88222,-0.48016 1.31614,-0.92185 1.65881,-1.68775c0.70298,-1.57119 2.04813,-2.91172 3.71399,-3.70107c2.14102,-1.01447 4.7008,-0.99785 8.34729,0.0543c3.85595,1.1126 4.71608,1.74437 6.02806,4.4266c1.49152,3.04928 1.74976,4.0475 1.74976,6.76238c0,2.37516 -0.00008,2.37537 -1.31258,3.82303c-0.72188,0.79621 -1.5936,1.79301 -1.93735,2.21485c-0.6163,0.75629 -2.82264,1.75751 -3.87211,1.75751c-0.34324,0 -0.69675,0.36395 -1.10898,1.14102c-0.76737,1.44651 -1.47214,1.80178 -3.98994,2.01176c-2.05796,0.17162 -3.09144,0.66263 -2.11976,1.00666c0.25611,0.0907 0.84529,0.31686 1.30896,0.50281c0.46367,0.18595 1.13832,0.33866 1.49965,0.33951c0.36133,0.00085 0.97919,0.16978 1.37304,0.37518c0.39384,0.2054 0.97748,0.3731 1.29656,0.3731c0.31908,0 0.89658,0.12346 1.28365,0.27388c0.38708,0.15043 2.16626,0.37403 3.95376,0.49713c1.7875,0.12311 3.7343,0.29339 4.32583,0.37879c0.94826,0.13682 1.25626,0.04401 2.60346,-0.78755c1.63767,-1.01083 3.4664,-1.38603 4.37803,-0.89814c0.76766,0.41084 1.60725,2.40656 1.51825,3.60909c-0.0703,0.95082 -0.17365,1.08006 -1.47277,1.83761c-1.60489,0.93584 -3.56472,3.09115 -2.80707,3.08715"></path></g></g></svg>