<svg version="1.1" xmlns="http://www.w3.org/2000/svg" xmlns:xlink="http://www.w3.org/1999/xlink" width="108.66794" height="41.01042" viewBox="0,0,108.66794,41.01042"><g transform="translate(-188.53169,-154.81743)"><g fill="none" stroke="#ff0000" stroke-width="9.26042" stroke-miterlimit="10"><path d="M290.96794,159.44764c-1.00805,0 -1.01714,0.00809 -1.41665,1.31259c-0.40208,1.3125 -0.40208,1.3124 0.29044,2.0624c0.91104,0.98662 1.24564,1.68031 1.24564,2.58176c0,0.43648 0.15658,0.80081 0.38182,0.88831c0.51341,0.19943 1.10023,1.68235 1.10023,2.78071c0,1.42995 -2.48497,6.13306 -4.08053,7.72253c-0.9307,0.92722 -1.36291,1.57552 -1.48353,2.22622c-0.2369,1.2785 -1.77635,3.3832 -2.95639,4.04161c-0.92823,0.51788 -0.99551,0.6332 -1.11396,1.90531c-0.1553,1.66711 -0.2447,1.81125 -1.62806,2.63188c-0.88763,0.52689 -1.32813,0.63429 -2.19057,0.53589c-1.01428,-0.11572 -1.14359,-0.05677 -2.14058,0.97152c-1.32102,1.36255 -3.13283,2.08927 -5.20624,2.08927c-1.49086,0 -1.53621,-0.02062 -2.61746,-1.18752c-0.60519,-0.65313 -1.25345,-1.55301 -1.44066,-1.99988c-0.18721,-0.44688 -0.4407,-0.81235 -0.5636,-0.81235c-0.12289,0 -0.46431,-0.39363 -0.75812,-0.87488c-0.2938,-0.48125 -0.72798,-0.8754 -0.96488,-0.8754c-0.2369,0 -0.68531,-0.27401 -0.9965,-0.60927c-0.50561,-0.54514 -0.555,-0.80042 -0.4651,-2.41277c0.09583,-1.71722 0.14453,-1.84057 1.01695,-2.60398c0.95905,-0.83913 1.09795,-1.31162 0.64125,-2.17557c-0.15095,-0.28552 -0.36967,-1.37497 -0.48605,-2.42104c-0.11628,-1.04606 -0.28313,-2.32507 -0.37007,-2.84169c-0.10798,-0.63903 -0.04228,-1.11888 0.20519,-1.5012c0.26634,-0.41152 0.30003,-0.72874 0.12665,-1.18546c-0.31257,-0.82297 -0.02983,-4.6019 0.4084,-5.45961c0.18968,-0.37127 0.89563,-1.0364 1.56879,-1.47795c2.58939,-1.69845 2.34409,-2.05272 -1.42534,-2.05672c-2.38815,-0.003 -2.71031,0.05676 -4.07489,0.74569c-0.91272,0.46079 -1.86763,0.74821 -2.48576,0.74879c-0.7918,0.00074 -1.15308,0.15901 -1.71322,0.75086c-0.39042,0.4125 -0.96676,0.75034 -1.28091,0.75034c-0.69864,0 -0.70971,0.10942 -0.07706,0.74983c0.32127,0.32516 0.49365,0.83324 0.49365,1.45314c0,1.16806 -0.9312,2.18368 -2.36928,2.58382c-0.5306,0.14764 -1.4211,0.69319 -1.97867,1.21233c-0.67701,0.63024 -1.49726,1.08149 -2.46936,1.35805c-2.24176,0.63777 -2.80585,0.91207 -3.59455,1.74615c-1.03004,1.0893 -1.47921,2.03783 -1.30232,2.75125c0.22482,0.90673 -0.05011,1.51165 -1.39421,3.06648c-0.66876,0.77358 -1.21604,1.53216 -1.21604,1.68569c0,0.64652 -1.52348,2.12829 -2.34938,2.28513c-0.85723,0.16278 -2.83692,2.01431 -2.83692,2.65307c0,0.1684 0.31827,0.6491 0.70756,1.06815c1.27363,1.37097 1.64932,3.50071 0.77394,4.38681c-0.41509,0.42021 -0.823,0.49971 -2.55613,0.49971c-2.18983,0 -2.51904,-0.07812 -5.90101,-1.40353c-1.18766,-0.46546 -2.42452,-0.84646 -2.7486,-0.84646c-0.32408,0 -1.24152,-0.30794 -2.03899,-0.68471c-1.38276,-0.65324 -1.62169,-0.68444 -5.15463,-0.67334c-3.12198,0.01 -3.94609,0.09568 -5.23837,0.54622c-1.81,0.63108 -4.34198,0.55655 -6.36966,-0.18759c-2.55121,-0.93622 -3.60209,-1.03959 -8.92834,-0.87592c-2.83199,0.087 -5.70477,0.26903 -6.38396,0.40411c-0.67918,0.13508 -2.67966,0.30011 -4.44554,0.36691"></path></g></g></svg>