<svg version="1.1" xmlns="http://www.w3.org/2000/svg" xmlns:xlink="http://www.w3.org/1999/xlink" width="103.45511" height="109.36709" viewBox="0,0,103.45511,109.36709"><g transform="translate(-193.35126,-123.67132)"><g fill="none" stroke="#ff0000" stroke-width="9.26042" stroke-miterlimit="10"><path d="M281.80405,132.48572c0.33857,2.5643 -0.58678,3.69426 -3.47881,4.24776c-1.37528,0.26319 -1.93807,0.27662 -2.17453,0.05255c-0.17537,-0.16627 -0.47385,-0.87222 -0.66268,-1.56904c-0.30107,-1.10986 -0.27836,-1.43594 0.18035,-2.62953c0.75367,-1.95965 1.52321,-2.71354 2.96301,-2.90364c1.84261,-0.24329 2.89309,0.68451 3.17266,2.8019z"></path><path d="M292.57603,125.92713c-0.25809,0.58004 -0.41332,0.97892 -0.40205,1.06427c0.01308,0.09904 -0.23468,0.68865 -0.55054,1.31013c-0.88338,1.73817 -2.00793,5.16393 -2.34298,7.13824c-0.25821,1.5188 -0.2237,2.33635 0.23443,5.56935c0.5304,3.74976 0.53058,3.81224 -0.0136,5.9529c-0.5168,2.03322 -2.21395,5.47988 -3.34991,6.8031c-0.6611,0.76997 -2.7136,2.33123 -5.22982,3.97855c-1.17743,0.77085 -2.56869,1.91535 -3.09199,2.54329c-1.15992,1.3916 -3.08103,2.63245 -4.94506,3.19401c-2.4456,0.73675 -4.36317,1.82561 -5.80368,3.29538c-1.60157,1.63421 -5.49264,4.86275 -6.31204,5.23743c-1.03914,0.47516 -3.32716,2.29786 -3.94858,3.14531c-0.55851,0.76166 -0.60281,1.0648 -0.49319,3.39851c0.08694,1.85173 -0.00129,2.95899 -0.31882,3.99264c-0.24171,0.78666 -0.403,1.70489 -0.35867,2.04062c0.11581,0.87714 -1.85686,3.88483 -5.48492,8.36362c-2.23107,2.75423 -3.38547,4.43371 -4.16009,6.0521c-1.09757,2.29319 -1.27985,2.47649 -3.18087,3.19563c-2.42153,0.91602 -3.63852,1.75496 -4.83548,3.3333c-1.36748,1.80318 -3.81561,4.52552 -6.03768,6.71492c-1.06974,1.054 -2.25382,1.89434 -3.8042,2.69935c-2.18587,1.13497 -2.32343,1.17363 -4.75408,1.32826c-3.14629,0.20015 -4.15481,0.59921 -5.26612,2.08495c-0.8591,1.14853 -3.00904,2.52499 -3.68925,2.36204c-0.44031,-0.10548 -4.352,1.37694 -5.20932,1.97425c-0.33736,0.23505 -1.14265,0.63079 -1.78963,0.87899c-0.64697,0.24821 -1.53262,0.75975 -1.96822,1.13713c-0.4356,0.37737 -1.8533,1.24245 -3.15046,1.92238c-1.29716,0.67993 -3.24915,1.79606 -4.33774,2.47998"></path></g></g></svg>