<svg version="1.1" xmlns="http://www.w3.org/2000/svg" xmlns:xlink="http://www.w3.org/1999/xlink" width="21.07832" height="45.35856" viewBox="0,0,21.07832,45.35856"><g transform="translate(-229.20646,-160.11889)"><g fill="none" stroke="#ff0000" stroke-width="9.26042" stroke-miterlimit="10"><path d="M234.89247,192.42702c0.3112,0.0075 0.7021,0.03 1.204,0.0625c2.5779,0.16701 3.5482,0.59339 5.3925,2.36937c1.7138,1.65022 1.9097,2.60334 0.9286,4.52168c-0.5592,1.09358 -0.9497,1.50732 -1.8676,1.97973c-0.6384,0.32849 -1.6222,0.65924 -2.1859,0.73484c-0.9446,0.1267 -1.0937,0.06245 -1.9012,-0.81907c-0.4819,-0.52614 -0.8764,-1.10037 -0.8764,-1.27641c0,-0.17605 -0.3937,-0.6788 -0.8749,-1.11673c-0.4813,-0.43792 -0.8749,-0.92289 -0.8749,-1.07797c0,-0.15508 -0.2252,-0.72306 -0.5002,-1.26246c-0.6767,-1.3271 -0.6611,-2.96444 0.035,-3.66024c0.3676,-0.36767 0.587,-0.47797 1.5209,-0.45527z"></path><path d="M240.94897,164.745c0.7163,-0.03043 1.1897,0.03876 1.5637,0.21653c0.9395,0.44651 2.3017,3.04996 2.4923,4.76353c0.09,0.80474 0.3422,1.53311 0.6496,1.87172c0.7942,0.87502 0.8636,2.74378 0.1411,3.80184c-0.8498,1.24444 -2.4689,2.01848 -4.222,2.01848c-1.2454,0 -1.5648,-0.10654 -2.4345,-0.81236c-0.981,-0.79618 -1.8029,-2.08561 -1.8029,-2.82876c0,-0.20592 0.2271,-1.04866 0.5048,-1.87276c0.5047,-1.49837 0.5047,-1.49839 -0.125,-2.42517c-0.896,-1.31907 -0.8695,-2.85953 0.066,-3.79512c0.5655,-0.56546 1.0088,-0.72917 2.3647,-0.87437c0.2979,-0.0319 0.5638,-0.0535 0.8026,-0.0636z"></path></g></g></svg>