<svg version="1.1" xmlns="http://www.w3.org/2000/svg" xmlns:xlink="http://www.w3.org/1999/xlink" width="34.37647" height="44.13631" viewBox="0,0,34.37647,44.13631"><g transform="translate(-223.94709,-147.53247)"><g fill="none" stroke="#ff0000" stroke-width="9.26042" stroke-miterlimit="10"><path d="M227.1273,157.47603c0.21984,-0.20775 1.23483,-0.31542 3.02738,-0.32142c2.39044,-0.008 2.87603,-0.0895 4.28042,-0.71159c0.87125,-0.38596 2.49536,-0.91603 3.60936,-1.17822c1.114,-0.2622 3.46561,-1.10461 5.22578,-1.87172c2.69617,-1.17506 3.31424,-1.35801 3.92468,-1.16324c0.64789,0.20678 0.71589,0.33433 0.6388,1.20768c-0.04737,0.53702 -0.37489,1.39573 -0.72733,1.90841c-0.4865,0.70768 -0.6342,1.24948 -0.61422,2.24999c0.03765,1.88356 0.28196,2.50107 1.21477,3.06803c0.45245,0.275 1.02305,0.81476 1.26779,1.19993c0.43232,0.68037 2.45554,1.71853 4.69135,2.40709c0.93356,0.28751 1.44674,0.67412 1.20221,0.90537c-0.06059,0.0573 -1.03206,-0.23163 -2.15851,-0.64182c-2.67175,-0.97287 -4.22205,-0.99468 -5.23835,-0.0739c-0.65317,0.59176 -0.74155,0.85246 -0.74155,2.19108c0,2.09944 0.56974,3.00374 2.59404,4.11654c2.07429,1.14028 2.12414,1.72706 0.18197,2.14406c-1.78818,0.38393 -2.38358,0.72528 -3.16727,1.81591c-1.06256,1.47872 -0.79563,2.81068 0.56339,2.81068c0.32727,0 1.16616,0.11583 1.86397,0.25735c1.26875,0.25729 1.26888,0.25725 1.26888,3.31246c0,2.8911 0.03923,3.11861 0.73499,4.23798c0.85443,1.37455 1.3677,1.69189 2.73557,1.69189c0.70956,0 1.19937,-0.18549 1.70932,-0.64751"></path></g></g></svg>