<svg version="1.1" xmlns="http://www.w3.org/2000/svg" xmlns:xlink="http://www.w3.org/1999/xlink" width="52.52525" height="48.91544" viewBox="0,0,52.52525,48.91544"><g transform="translate(-216.83309,-151.12525)"><g fill="none" stroke="#ff0000" stroke-width="9.26042" stroke-miterlimit="10"><path d="M223.09834,198.25563c0.37764,-0.90383 0.50754,-3.38849 0.17725,-3.39049c-0.10313,-0.00063 -0.55306,-0.34391 -0.99993,-0.76274c-0.80636,-0.75561 -0.81236,-0.77992 -0.81236,-3.13625c0,-1.62117 0.11883,-2.60432 0.37466,-3.09903c0.40807,-0.78913 1.68259,-1.84657 2.53938,-2.10633c0.58564,-0.17754 0.9321,-0.78663 0.67954,-1.19528c-0.0869,-0.14067 -0.63517,-0.46668 -1.21801,-0.7245c-0.58284,-0.25782 -1.17762,-0.61114 -1.32189,-0.78497c-0.14427,-0.17384 -0.34366,-1.91425 -0.44286,-3.86798c-0.18031,-3.55225 -0.18025,-3.55234 0.70435,-4.43694c0.71031,-0.71031 1.07657,-0.8847 1.85931,-0.8847c0.97007,0 0.97471,-0.00402 0.87127,-0.89038c-0.0791,-0.67755 0.03292,-1.03625 0.4687,-1.50017c0.315,-0.3353 0.69552,-0.60926 0.84595,-0.60926c0.15043,0 0.83056,-0.46049 1.51153,-1.0232c1.12928,-0.93318 1.32711,-1.00911 2.24586,-0.86248c0.55402,0.0884 1.23189,0.30614 1.50689,0.48369c0.6425,0.41482 1.46796,0.61397 4.31963,1.04283c1.27571,0.19186 2.5639,0.47976 2.86287,0.63976c0.41811,0.22376 0.56733,0.22087 0.64493,-0.0119c0.0555,-0.16645 0.34933,-0.59138 0.65319,-0.94464c0.52796,-0.61378 0.62819,-0.6344 2.26704,-0.45889c1.37934,0.14771 1.84461,0.31328 2.3766,0.84646c0.6355,0.63694 0.73921,0.65736 2.64428,0.51418c2.42343,-0.18213 3.35903,-0.63693 4.18011,-2.03037c1.05297,-1.78698 3.3914,-4.17008 4.77077,-4.86223c1.72865,-0.86741 3.24377,-2.13302 4.17649,-3.48868c0.42511,-0.61787 1.2186,-1.44636 1.76371,-1.84123c0.54511,-0.39488 1.23871,-1.08294 1.54099,-1.5291c0.41633,-0.6145 1.18982,-1.09538 3.19051,-1.98386"></path></g></g></svg>