<svg version="1.1" xmlns="http://www.w3.org/2000/svg" xmlns:xlink="http://www.w3.org/1999/xlink" width="120.99448" height="77.28802" viewBox="0,0,120.99448,77.28802"><g transform="translate(-185.17361,-143.17234)"><g fill="none" stroke="#ff0000" stroke-width="9.26042" stroke-miterlimit="10"><path d="M301.53788,147.80255c-3.29119,3.77407 -9.11797,9.77528 -11.51825,11.86286c-0.37244,0.32395 -2.51641,3.09719 -4.76411,6.16307c-2.24772,3.06588 -4.80086,6.50711 -5.67345,7.64703c-1.26493,1.65245 -1.87525,2.81429 -3.0107,5.72953c-0.78324,2.01105 -1.97937,4.58649 -2.65844,5.72363c-1.17879,1.97424 -1.24032,2.17155 -1.36159,4.36925c-0.10539,1.91164 -0.03699,2.62725 0.40184,4.22503c0.32818,1.19442 0.54122,2.70581 0.5617,3.98611c0.02846,1.77933 -0.05801,2.23302 -0.6248,3.30969c-0.36164,0.68626 -1.08475,2.32476 -1.60715,3.64119c-0.52242,1.31642 -1.42144,3.04982 -1.99801,3.8519c-0.92218,1.28222 -1.02847,1.57514 -0.88505,2.42444c0.79848,4.73047 0.59401,5.33375 -1.73126,5.11434c-2.25811,-0.21309 -3.11538,-0.72649 -3.73047,-2.23273c-0.32324,-0.7917 -1.47909,-2.29273 -3.15469,-4.09699c-2.08344,-2.24326 -2.95382,-2.97477 -4.10315,-3.44995c-0.80232,-0.33176 -1.67705,-0.59848 -1.94341,-0.59206c-1.0509,0.02534 -2.33536,-0.64572 -3.17851,-1.6605c-1.4342,-1.72611 -3.55,-2.88673 -8.59394,-4.71473c-1.10248,-0.39954 -2.20292,-0.85919 -2.44577,-1.02151c-0.24275,-0.16232 -1.50114,-0.53491 -2.79597,-0.82795c-1.96841,-0.44548 -3.02661,-0.941 -6.45803,-3.0222c-3.84055,-2.32941 -8.81605,-4.60619 -10.98052,-5.02481c-0.5202,-0.10067 -1.93623,-0.645 -3.14698,-1.21033c-1.67195,-0.78074 -2.38013,-1.29254 -2.94583,-2.12694c-0.88377,-1.30378 -2.54105,-2.69308 -5.94424,-4.98405c-2.25408,-1.51747 -2.73383,-1.71842 -4.84348,-2.02832c-2.52218,-0.37045 -4.68879,-1.4939 -7.98396,-4.14091c-0.85372,-0.68575 -2.35686,-1.81191 -3.3402,-2.50235c-0.98343,-0.69044 -2.16733,-1.63514 -2.63111,-2.09911"></path></g></g></svg>