<svg version="1.1" xmlns="http://www.w3.org/2000/svg" xmlns:xlink="http://www.w3.org/1999/xlink" width="45.21205" height="94.12866" viewBox="0,0,45.21205,94.12866"><g transform="translate(-219.4699,-143.08361)"><g fill="none" stroke-miterlimit="10"><path d="M252.61756,200.44698c2.64608,0 6.47299,1.45545 7.43418,2.82774c0.48727,0.6957 0.4755,1.99991 -0.0269,2.97139c-0.37718,0.72938 -0.37039,0.82834 0.12454,1.70894c0.83566,1.48687 0.70277,2.38025 -0.53898,3.622c-1.27967,1.27968 -2.9001,1.84522 -5.87251,2.04897c-2.06226,0.14137 -2.06248,0.14158 -2.92024,-0.76791c-0.47176,-0.50021 -0.89341,-1.163 -0.93741,-1.47278c-0.0654,-0.46028 -0.26283,-0.5782 -1.08003,-0.6444c-1.3836,-0.11202 -1.87534,-0.62781 -1.87534,-1.96784c0,-1.41273 0.81492,-3.00183 1.81229,-3.53415c0.42965,-0.22932 1.051,-0.6742 1.38028,-0.98857c0.50793,-0.48492 0.57326,-0.72041 0.43253,-1.5534c-0.22325,-1.32138 0.62999,-2.24999 2.06757,-2.24999z" stroke="#ff0000" stroke-width="9.26042"></path><path d="M241.53548,147.71385c1.0627,0 1.2298,0.10119 2.8546,1.72599c2.00951,2.00952 2.16684,2.76382 0.76016,3.64577c-0.90001,0.56428 -1.01236,1.10503 -0.41858,2.01125c0.30411,0.4634 0.37671,1.03253 0.29611,2.30373c-0.0902,1.42275 -0.28161,2.00102 -1.21801,3.6773c-0.75144,1.34517 -1.47479,2.26495 -2.23398,2.84065c-1.48167,1.12353 -1.86606,1.84639 -1.51567,2.85151c0.37337,1.07106 0.33399,2.64522 -0.10232,4.09174c-0.2528,0.83825 -0.3221,1.74384 -0.2191,2.85771c0.1508,1.63074 0.15078,1.63087 -0.88057,2.56263c-0.82823,0.74826 -1.2284,0.93173 -2.03088,0.93173c-0.99928,0 -0.99891,0.00001 -0.99891,1.09347c0,0.97211 -0.15282,1.26495 -1.37666,2.63653c-1.71601,1.92317 -2.02794,2.41904 -2.22312,3.53622c-0.17358,0.99354 -1.36269,2.29786 -2.47892,2.7187c-1.018,0.38377 -4.19972,0.32242 -4.74545,-0.0915c-0.24707,-0.18737 -0.80342,-1.22412 -1.2361,-2.30425c-0.749,-1.86979 -0.7873,-2.13193 -0.7953,-5.46427c-0.009,-3.5 -0.00904,-3.49998 1.27486,-5.62498c0.70598,-1.16875 1.50457,-2.36739 1.77457,-2.66392c0.27,-0.29652 5.74887,1.60534 5.92832,1.17667c0.68214,-1.62944 -4.34671,-4.05972 -3.69331,-4.97437c1.138,-1.59303 1.19543,-1.75578 1.36477,-3.86488c0.12497,-1.55636 0.32609,-2.43555 0.68626,-2.99982c1.10347,-1.72877 1.12616,-1.83467 0.55191,-2.5647c-0.76232,-0.96913 -0.68333,-2.09958 0.22634,-3.24425c1.01866,-1.28183 1.57776,-1.64472 3.49178,-2.26704c1.48685,-0.48344 1.71017,-0.65211 2.62516,-1.98334c1.19362,-1.73663 2.64763,-2.61431 4.33204,-2.61431z" stroke="#ff0000" stroke-width="9.26042"></path><path d="M246.28271,234.71227c0,-1.38071 1.11929,-2.5 2.5,-2.5c1.38071,0 2.5,1.11929 2.5,2.5c0,1.38071 -1.11929,2.5 -2.5,2.5c-1.38071,0 -2.5,-1.11929 -2.5,-2.5z" stroke="none" stroke-width="0.5"></path></g></g></svg>