<svg viewBox="0,0,14.76035,20.88772" height="20.88772" width="14.76035" xmlns:xlink="http://www.w3.org/1999/xlink" xmlns="http://www.w3.org/2000/svg" version="1.1"><g transform="translate(-232.70706,-169.55614)"><g stroke-miterlimit="10" stroke-width="9.26042" stroke="#ff0000" fill="none"><path d="M241.93286,179.81402c0.78483,0.86872 0.90434,1.16581 0.90434,2.25102c0,1.15419 -0.09242,1.34575 -1.20406,2.49907c-1.09667,1.13777 -1.30505,1.24954 -2.3363,1.24954c-0.77937,0 -1.26135,-0.14263 -1.54615,-0.45734c-0.22757,-0.25145 -0.41342,-0.52771 -0.41342,-0.61391c0,-0.0862 -0.28153,-0.57143 -0.62528,-1.07797c-1.5702,-2.31383 0.03174,-4.85087 3.06286,-4.85087c1.14579,0 1.33186,0.08604 2.15801,1.00046z"></path><path d="M242.40415,174.36261c0.31684,0.01184 0.5223,0.1697 0.85731,0.55914c0.70552,0.82022 0.76276,2.14481 0.11834,2.728c-0.65356,0.59148 -2.82935,0.5635 -3.37861,-0.0434c-0.97541,-1.07781 0.02525,-2.77043 1.87896,-3.17758c0.21284,-0.0467 0.37998,-0.0711 0.524,-0.0661z"></path></g></g></svg>