<svg version="1.1" xmlns="http://www.w3.org/2000/svg" xmlns:xlink="http://www.w3.org/1999/xlink" width="60.49627" height="24.11578" viewBox="0,0,60.49627,24.11578"><g transform="translate(-209.06762,-166.83659)"><g fill="none" stroke="#ff0000" stroke-width="9.26042" stroke-miterlimit="10"><path d="M265.04072,168.31911c-0.57924,2.64683 -1.12493,3.13315 -3.22202,2.87114c-0.9593,-0.11986 -1.64689,-0.37766 -2.16163,-0.8108c-0.61704,-0.5192 -0.79422,-0.57018 -0.97255,-0.28112c-0.11997,0.19445 -0.58814,0.95481 -1.04024,1.68982c-2.13908,3.47768 -4.45386,5.03809 -7.47448,5.03845c-1.545,0.00019 -1.71309,0.05706 -2.58021,0.87488c-0.51011,0.48109 -1.42538,1.16646 -2.0345,1.52343c-0.86783,0.50859 -1.10798,0.79298 -1.10898,1.31309c-0.002,1.06079 -0.49058,2.53077 -1.01492,3.05511c-0.39305,0.393 -0.8474,0.485 -2.42156,0.493c-1.90188,0.009 -1.94629,0.02457 -2.43758,0.80563c-0.70633,1.123 -1.47733,1.42741 -3.62458,1.43041c-2.1784,0.003 -3.20892,-0.47351 -4.0287,-1.86294c-0.44145,-0.74818 -0.6049,-0.84319 -1.23196,-0.71778c-2.04641,0.40926 -4.23954,-0.65467 -4.23954,-2.05673c0,-0.63755 -0.04862,-0.61395 -1.18752,0.58498c-1.38294,1.45589 -2.8309,2.25244 -4.49895,2.47427c-0.65357,0.0869 -1.2786,0.31007 -1.38855,0.49558c-0.29037,0.48993 -3.6404,0.45846 -4.35322,-0.0408c-0.50558,-0.35412 -0.56686,-0.33259 -0.9648,0.34107"></path></g></g></svg>