<svg version="1.1" xmlns="http://www.w3.org/2000/svg" xmlns:xlink="http://www.w3.org/1999/xlink" width="276.15691" height="207.56509" viewBox="0,0,276.15691,207.56509"><g transform="translate(-141.29923,9.36257)"><g fill="none" stroke="#ff0000" stroke-miterlimit="10"><path d="M274.07552,138.14034c0.86608,1.86034 0.59571,2.85365 -0.996,3.65785c-0.89089,0.45011 -3.18455,0.40394 -4.10643,-0.08284c-0.96424,-0.50916 -1.16866,-0.96785 -1.0563,-2.36796c0.1748,-2.1778 0.96256,-2.96887 2.94937,-2.96124c1.70399,0.00611 2.6319,0.51373 3.20936,1.75418z" stroke-width="6"></path><path d="M302.4345,120.78969c1.6413,0.03652 2.8196,0.38588 3.7377,1.08521c1.0577,0.80552 1.0577,0.80521 1.1307,2.7466c0.082,2.16755 -0.2616,3.00666 -1.772,4.33049c-0.7426,0.65092 -3.3397,1.64047 -6.1531,2.34456c-0.7596,0.1901 -1.3416,0.55924 -1.8748,1.18907c-1.2762,1.50761 -2.4441,2.57599 -3.0804,2.81792c-0.9434,0.35868 -4.0908,0.2532 -5.0679,-0.17002c-1.0252,-0.44406 -2.25,-1.55033 -2.25,-2.03192c0,-0.1851 -0.4077,-0.74411 -0.9059,-1.2423c-0.8949,-0.89492 -0.9042,-0.92599 -0.786,-2.57917c0.1471,-2.05568 1.1067,-3.98933 2.2986,-4.63124c0.803,-0.43245 2.3227,-0.42324 4.579,0.0274c0.7307,0.14591 0.9567,0.0278 2.2733,-1.19114c1.7144,-1.58723 3.6427,-2.42299 6.0678,-2.6293c0.6575,-0.0559 1.2559,-0.0783 1.803,-0.0661z" stroke-width="9.26042"></path><path d="M261.39566,76.3332c0.63789,-0.06608 1.33562,0.10812 2.1432,0.53521c0.65856,0.3483 2.03589,0.93631 3.06006,1.30691c1.02427,0.3706 2.2436,1.02639 2.71002,1.45736c0.46642,0.43097 1.42794,1.13759 2.13682,1.56986c1.28876,0.78594 1.28875,0.78579 3.69963,0.35923c1.54069,-0.2726 2.7178,-0.35991 3.26056,-0.2417c0.71285,0.15524 1.13357,0.05385 2.6187,-0.63119c3.08728,-1.42405 5.41464,-1.27512 5.56944,0.35671c0.07945,0.85475 -1.74953,5.15493 -2.48128,5.82828c-0.5299,0.48756 -1.05001,0.64619 -2.87287,0.8781c-2.4576,0.31266 -2.34593,0.25181 -5.95978,3.24856c-3.45352,2.86374 -3.37258,2.83213 -8.55603,3.37494c-2.49536,0.26131 -4.80391,0.60984 -5.13032,0.77469c-0.4326,0.21844 -0.82734,0.9588 -1.45489,2.72901c-0.97325,2.74545 -1.62389,3.37244 -3.76845,3.63271c-0.64377,0.07807 -1.70925,0.39698 -2.36785,0.70884c-1.33368,0.63151 -1.43081,0.85619 -1.4312,3.30275c-0.00023,1.34685 -0.0942,1.60261 -0.93412,2.5508c-0.51333,0.57957 -1.4172,1.29145 -2.00885,1.58209c-2.62024,1.28864 -2.62979,1.29345 -2.54773,2.07705c0.09187,0.87726 -0.97999,2.75983 -2.1105,3.70694c-0.60463,0.50653 -1.12574,0.68632 -2.36596,0.81619c-1.70537,0.17859 -1.82652,0.26993 -3.06432,2.31924c-0.6587,1.09052 -1.84298,1.71331 -3.60932,1.89828c-1.78792,0.18723 -2.05863,0.52489 -1.69992,2.12024c0.14495,0.64482 0.53817,2.59089 0.87325,4.32455c0.58673,3.03641 0.59318,3.19592 0.18009,4.33999c-0.62118,1.72059 -1.92509,2.80733 -3.57546,2.98016c-1.28527,0.13459 -1.314,0.1214 -2.47606,-1.12334c-0.64656,-0.69268 -1.32635,-1.24374 -1.51034,-1.22447c-0.18389,0.01926 -0.4913,-0.11839 -0.68305,-0.30569c-0.22345,-0.21832 -0.78792,-0.29419 -1.57263,-0.21201c-1.28845,0.13493 -1.43093,0.06103 -3.21294,-1.65981c-1.014,-0.97925 -1.2253,-1.62973 -1.02437,-3.15316c0.15237,-1.15561 0.11494,-1.31622 -0.44631,-1.92978c-0.92049,-1.00612 -0.84249,-2.17001 0.20646,-3.0846c0.45772,-0.39913 1.59268,-1.44004 2.52248,-2.31342c0.9297,-0.87337 2.1617,-1.95061 2.73749,-2.39361c0.57569,-0.443 1.47742,-1.23489 2.00372,-1.75977c1.11194,-1.10909 5.44901,-3.90899 7.36845,-4.75687c1.45786,-0.644 2.86839,-2.23056 3.03069,-3.40946c0.18656,-1.35438 1.0877,-2.87681 2.29579,-3.87806c1.37796,-1.14191 1.92451,-1.82479 2.68093,-3.35049c0.84514,-1.70484 4.71476,-6.38769 6.31084,-7.63688c1.98472,-1.55324 2.52502,-2.70195 2.85542,-6.07114c0.03777,-0.38823 0.43505,-1.0342 0.90784,-1.4777c0.46198,-0.43331 2.16875,-2.42574 3.79329,-4.42769c2.75499,-3.39501 3.01733,-3.64651 3.89941,-3.73788z" stroke-width="9.26042"></path><path d="M220.16829,92.54794c0.80637,1.86163 1.49671,5.19699 1.35987,7.67134c-0.21548,3.8954 -0.91424,5.48232 -4.37087,9.9253c-2.65536,3.41298 -3.6401,4.9852 -4.90866,7.83463c-0.30838,0.69261 -1.34892,2.5899 -2.31195,4.21658c-2.28504,3.85955 -2.91573,5.34839 -3.35707,7.92273c-0.348,2.03094 -0.34661,2.16896 0.0346,3.15137c0.26366,0.67899 0.77722,1.31097 1.51405,1.8633c0.61321,0.45969 1.68342,1.58416 2.37855,2.49881c1.57624,2.07406 3.70965,3.86064 5.26487,4.40929c0.65413,0.23077 1.40843,0.53466 1.67633,0.67472c0.73544,0.38449 1.35039,1.87295 1.35039,3.27413c0.00069,1.13085 -0.08892,1.32607 -1.21268,2.64546c-1.21345,1.42458 -1.21354,1.4244 -0.4877,3.09054c0.39921,0.91639 0.98673,1.8625 1.30567,2.10204c0.80577,0.60524 1.40263,1.94732 1.65401,3.71922c0.1173,0.82697 0.32957,1.55303 0.47161,1.6132c0.14195,0.06017 0.57792,0.46584 0.96865,0.90209c0.39073,0.43625 0.85758,0.79353 1.03794,0.79353c0.18027,0 0.75145,0.30751 1.26907,0.68381c0.51763,0.37629 1.15403,0.6856 1.41388,0.6878c0.25985,0.0022 1.33006,-0.82965 2.37855,-1.84739c2.01308,-1.95409 6.32141,-4.91207 7.4866,-5.14028c4.90598,-0.96082 7.43028,-1.04963 8.82851,-0.31149c0.31314,0.16533 0.32533,0.05975 0.11176,-0.9578c-0.232,-1.10516 -0.21652,-1.16961 0.46261,-1.94117c0.69383,-0.78817 0.73475,-0.79808 3.33613,-0.79808c2.56367,0 2.65,0.01972 3.24037,0.73896c0.33364,0.40642 0.60655,0.96761 0.60655,1.24712c0,0.41724 0.07534,0.45709 0.41841,0.22338c0.23001,-0.15657 0.81148,-0.28477 1.29234,-0.28477c0.69747,0 0.94729,-0.14116 1.23421,-0.69804c0.3134,-0.60818 0.32793,-0.94243 0.11306,-2.59657c-0.36608,-2.81925 -0.32006,-3.5117 0.28433,-4.28026c0.71745,-0.91259 2.29395,-0.90946 4.33463,0.0077c0.83258,0.37427 1.98116,0.68279 2.55199,0.68609c2.79601,0.01562 3.64529,2.52682 2.1828,6.45449c-0.68034,1.8273 -1.32582,2.35102 -2.89661,2.35102c-1.45808,0 -2.21074,0.53665 -2.70397,1.92754c-0.52516,1.48096 -1.87537,2.3735 -4.36733,2.88647c-1.01311,0.20853 -1.85521,0.4172 -1.87251,0.46383c-0.54246,1.50152 -0.73449,1.73907 -1.46846,1.81782c-0.6447,0.06919 -0.87116,-0.06209 -1.34459,-0.7776c-0.31322,-0.47327 -0.56953,-1.09836 -0.56953,-1.38925c0,-0.42788 -0.15493,-0.52864 -0.81174,-0.52864c-0.68406,0 -0.99919,-0.22728 -2.00175,-1.4438c-1.18932,-1.44371 -1.18932,-1.44378 -1.11666,-0.47748c0.11418,1.51027 -1.32219,3.5796 -3.32307,4.78729c-2.1482,1.29663 -2.94099,1.52971 -5.19429,1.53191c-2.17916,0.0022 -2.20736,0.01846 -3.46346,2.06396c-0.46443,0.75623 -1.45281,2.27506 -2.19621,3.37475c-0.74349,1.09969 -1.5573,2.52251 -1.80859,3.16216c-0.68025,1.73128 -1.16562,2.11306 -2.69999,2.11966c-1.10991,0.0055 -1.47054,-0.12545 -2.31636,-0.83786c-1.28378,-1.08135 -1.84925,-1.08405 -5.01505,-0.02387c-1.42512,0.47722 -2.98736,0.86799 -3.47151,0.86799c-0.48407,0 -1.70228,0.3066 -2.70709,0.68154c-1.89345,0.70649 -3.75576,0.89956 -3.99182,0.41381c-0.28563,-0.5877 -0.48147,0.04605 -0.37732,1.22098c0.05969,0.674 0.04844,1.53224 -0.02595,1.90708c-0.2025,1.02603 -2.86651,3.38582 -4.08429,3.61803c-0.87843,0.16751 -1.69441,-2.40151 -1.98514,-1.46029c-0.4198,1.35894 -0.33814,4.5229 -2.12251,4.88393c-1.54259,0.3121 -5.08884,0.14201 -6.5112,-0.31206c-1.63697,-0.52258 0.77817,-4.09189 1.49485,-5.85422c0.37983,-0.93389 -2.88044,0.98092 -3.82824,1.60978c-0.31565,0.20938 -0.92358,0.5276 -1.35134,0.70713c-0.42784,0.17954 -0.7742,0.40983 -0.7742,0.51158c0,0.10175 0.29229,0.80353 0.64505,1.55976c0.70638,1.51435 0.87142,3.40987 0.34506,3.96535c-0.58277,0.61502 -3.26139,1.3972 -4.78617,1.3972c-0.83769,0 -2.10322,-0.19905 -2.8121,-0.44223c-2.68555,-0.92128 -3.05042,-1.00499 -4.21673,-0.96462c-0.65871,0.02277 -1.9008,-0.12747 -2.76072,-0.33424c-1.27513,-0.30658 -1.75651,-0.31263 -2.60969,-0.03124c-0.84219,0.27748 -1.33257,0.27648 -2.51843,-0.0066c-1.31639,-0.31456 -1.57054,-0.48553 -2.39239,-1.60751c-1.46959,-2.00638 -3.10898,-2.23467 -5.3807,-0.74918c-0.47118,0.30812 -1.18967,0.56047 -1.59675,0.56047c-0.40708,0 -1.092,0.11647 -1.52209,0.25864c-0.43009,0.14217 -1.3939,0.45938 -2.14206,0.70484c-0.74807,0.24547 -2.06187,0.9177 -2.91945,1.49441c-0.85758,0.5767 -2.77603,1.63867 -4.26274,2.35954c-1.4868,0.72086 -3.21347,1.56282 -3.83715,1.87125c-0.62359,0.30843 -1.6938,1.15612 -2.37855,1.88377" stroke-width="7.5"></path><path d="M399.33935,-4.77242c0.42784,-0.05665 1.10448,-0.0459 1.72564,0.03792c1.21592,0.16407 1.65127,0.12449 2.26111,-0.20494c1.80052,-0.97266 3.97252,-0.86775 5.66797,0.27326c0.57912,0.3897 1.00808,0.47758 1.62934,0.33401c1.33599,-0.30874 1.94994,0.29639 2.26156,2.22899c0.40612,2.51871 -0.53628,5.04553 -1.96837,5.27644c-0.66975,0.10799 -0.51223,0.40143 0.39906,0.74175c2.00615,0.74924 1.62933,4.23952 -0.58182,5.38683c-0.47465,0.2463 -1.16569,0.70909 -1.53543,1.02802c-0.36975,0.31892 -1.41197,0.93877 -2.31607,1.3774c-1.36743,0.66341 -1.93979,0.81066 -3.40381,0.87755c-2.56003,0.11694 -6.82975,0.87151 -7.81009,1.3802c-0.50185,0.26038 -1.13182,0.92981 -1.54622,1.64271c-0.38475,0.66182 -1.04345,1.40499 -1.4632,1.65131c-0.41974,0.24632 -1.91695,1.24004 -3.32739,2.20836c-2.60411,1.78784 -4.24866,2.4645 -9.44019,3.88284c-1.16897,0.31936 -1.88451,0.74893 -3.63536,2.18422c-1.19895,0.9828 -2.93519,2.58151 -3.85862,3.55237c-0.92353,0.97087 -2.24512,2.27036 -2.93719,2.88821c-0.69197,0.61783 -1.3121,1.25343 -1.37771,1.41192c-0.06561,0.15848 -0.86195,1.09834 -1.76911,2.08849c-1.45298,1.58587 -4.99119,4.30919 -5.75907,4.433c-0.15273,0.02463 -0.92875,0.50377 -1.72428,1.06422c-3.4427,2.42546 -9.84755,2.53992 -12.38134,0.22137c-1.24027,-1.13491 -1.97634,-1.02234 -2.08728,0.31933c-0.06399,0.77413 0.0451,1.03103 0.75297,1.77763c1.56448,1.64991 1.07946,3.82763 -1.36571,6.13507c-2.09959,1.98123 -5.03557,4.34495 -5.77134,4.64593c-1.56571,0.64048 -3.63631,2.19719 -6.91963,5.20221c-3.09426,2.83197 -3.58055,3.38983 -4.50474,5.17452c-1.11449,2.15235 -3.00516,4.70752 -4.6718,6.31325c-1.03672,0.99885 -1.03651,0.99887 -4.12167,1.49632c-3.72844,0.60118 -4.02155,0.81618 -5.31373,3.89377c-0.72269,1.72139 -1.16711,2.34744 -2.84024,4.00531c-1.77173,1.75558 -2.10447,1.98303 -3.11988,2.13146c-0.62508,0.09167 -1.68712,0.10928 -2.36006,0.03978c-2.21785,-0.22913 -3.76823,-1.81289 -4.3996,-4.4936c-0.39128,-1.66156 -0.3914,-1.66167 0.46176,-2.95022c0.52947,-0.79959 1.33392,-1.58486 2.11967,-2.06965c1.08082,-0.66688 1.23037,-0.85134 1.02185,-1.25875c-0.1345,-0.26249 -0.41177,-1.15604 -0.61749,-1.98581c-0.37172,-1.5019 -0.37021,-1.512 0.3748,-2.14895c1.1748,-1.00436 2.68977,-1.13216 4.38425,-0.37034c1.62556,0.73081 1.92594,0.54709 1.52237,-0.93065c-0.41183,-1.50823 -0.02258,-2.06803 1.6191,-2.32969c0.72381,-0.11569 1.84562,-0.19987 2.49278,-0.18785c1.16905,0.02163 1.18306,0.01304 2.18514,-1.3678c1.00854,-1.38974 1.00878,-1.39008 -0.72902,-1.17429c-2.42011,0.30058 -2.76537,0.24244 -3.2531,-0.54852c-0.59773,-0.96939 -0.73778,-3.2803 -0.25537,-4.21281c0.2129,-0.41156 0.88759,-1.11399 1.49926,-1.56081c0.97923,-0.71529 1.46131,-0.87459 4.03658,-1.3355c2.91572,-0.52179 2.92596,-0.52611 3.23444,-1.28155c0.41664,-1.02004 0.66158,-1.27242 2.73979,-2.82027c1.42204,-1.05915 2.13156,-1.41485 3.45956,-1.73607c1.67068,-0.4041 1.67095,-0.40429 3.53246,-3.01089c2.573,-3.60279 2.81672,-4.20645 2.69692,-6.67633c-0.11005,-2.27001 0.14373,-3.35148 0.96232,-4.09874c0.73285,-0.66902 1.86571,-0.60986 3.09506,0.16205c0.52981,0.33266 1.20954,0.56554 1.51035,0.51755c0.3008,-0.04797 0.94598,0.07613 1.43413,0.27544c0.48816,0.19933 1.00117,0.34369 1.14008,0.32129c0.70974,-0.11444 2.57869,-4.59909 2.61205,-6.26797c0.03582,-1.79122 1.49443,-2.89678 5.05711,-3.83251c1.29769,-0.34083 2.67739,-0.67315 3.06582,-0.73983c0.60838,-0.10418 0.67466,-0.19438 0.47729,-0.65326c-2.23628,-5.20009 -3.06672,-8.27417 -2.53336,-9.37511c0.3436,-0.70913 2.35422,-2.1748 3.16859,-2.30996c0.28689,-0.04757 0.7689,-0.3556 1.07155,-0.68418c1.15504,-1.2538 3.31257,-1.38245 5.03634,-0.30013c0.78892,0.49541 1.05875,0.89484 1.68139,2.48742c0.40791,1.0435 0.90947,1.99626 1.11453,2.11714c0.20496,0.12091 0.49646,0.5084 0.64658,0.86149c0.31189,0.73128 1.33893,1.60986 1.79603,1.53616c0.16872,-0.0272 1.06982,0.20715 2.00246,0.52091c0.93264,0.31376 2.41219,0.60327 3.28774,0.64343c1.77152,0.08124 2.15946,-0.057 7.00617,-2.50003c1.35242,-0.68172 3.30855,-1.62539 4.34674,-2.09688c3.02245,-1.3726 4.95897,-2.87572 6.31146,-4.89947c3.48409,-5.21307 4.21153,-6.10348 6.26991,-7.67695c1.46465,-1.11962 2.56522,-2.25076 3.84608,-3.95182c0.98693,-1.31075 2.04364,-2.49345 2.34784,-2.62778c0.07613,-0.03356 0.19068,-0.06003 0.33329,-0.07887z" stroke-width="9.26042"></path></g></g></svg>